<?xml version="1.0" encoding="UTF-8"?>
<svg id="Capa_1" data-name="Capa 1" xmlns="http://www.w3.org/2000/svg" viewBox="0 0 238.11 330.84">
  <g>
    <path d="m.87,257.7c.07.29.1.57.1.82v15.49c0,.26-.03.53-.1.82h3.06c-.03-.14-.06-.26-.08-.37-.02-.11-.03-.26-.03-.45v-15.49c0-.19,0-.34.03-.45.02-.11.04-.24.08-.37H.87Zm10.09,0c.03.15.06.28.08.39.02.1.03.25.03.44v15.49c0,.17,0,.31-.03.42-.02.11-.04.24-.08.4h8.89v-1.52c-.24.05-.42.09-.55.1-.13.02-.27.03-.42.03h-4.96v-6.73h5.01c.24,0,.41,0,.51.01.1,0,.24.03.41.06v-1.39c-.19.05-.33.08-.44.09-.1,0-.27.01-.51.01h-4.98v-6.55h5.11c.17,0,.3,0,.4.03.09.02.23.05.4.1v-1.39h-8.86Zm14.07,16.08c.45.24.86.44,1.25.6.39.16.77.3,1.14.4.38.1.76.18,1.14.23.39.05.79.08,1.22.08.77,0,1.48-.09,2.13-.27.65-.18,1.21-.44,1.67-.78.65-.48,1.16-1.09,1.53-1.84.37-.74.55-1.53.55-2.35,0-1.11-.32-2.07-.95-2.88-.31-.41-.71-.79-1.21-1.13-.5-.34-1.2-.72-2.11-1.13-.72-.33-1.31-.62-1.77-.87-.46-.26-.82-.51-1.08-.77-.26-.26-.44-.52-.54-.78-.1-.27-.15-.58-.15-.94,0-.74.27-1.34.8-1.82.53-.48,1.21-.72,2.03-.72.58,0,1.15.11,1.71.32.56.21,1.19.57,1.89,1.07l.54-1.82c-.75-.34-1.43-.58-2.02-.72-.59-.14-1.25-.21-1.97-.21-.84,0-1.61.12-2.3.35-.69.23-1.29.55-1.8.96-.51.41-.89.91-1.17,1.49-.27.58-.41,1.22-.41,1.93,0,.51.07.99.22,1.43.15.44.38.85.71,1.23.33.39.75.75,1.26,1.1.51.35,1.14.7,1.88,1.04.7.34,1.25.61,1.63.81.39.2.67.36.86.5.82.6,1.23,1.39,1.23,2.36,0,.87-.3,1.58-.9,2.13-.6.55-1.39.82-2.36.82-.38,0-.72-.03-1.04-.09-.32-.06-.63-.16-.94-.3-.31-.14-.63-.33-.96-.58-.33-.25-.71-.55-1.12-.91l-.59,2.06h0Zm40.3-6.32h1.82c1.95,0,3.48-.45,4.57-1.34,1.1-.89,1.64-2.12,1.64-3.7,0-1.49-.49-2.65-1.46-3.48-.98-.83-2.34-1.25-4.08-1.25h-5.45c.07.29.1.57.1.82v15.49c0,.22-.03.5-.1.82h3.08c-.05-.19-.09-.34-.1-.45-.02-.11-.03-.24-.03-.37v-6.55h0Zm0-1.31v-7.19h1.77c1.05,0,1.87.31,2.47.94.6.63.9,1.49.9,2.58,0,.72-.14,1.36-.42,1.93-.28.57-.67.99-1.17,1.28-.51.31-1.18.46-2,.46h-1.54Zm21.24-8.71c-1.34,0-2.53.2-3.57.59-1.04.39-1.93.96-2.65,1.7-.72.74-1.27,1.64-1.66,2.72-.39,1.08-.58,2.29-.58,3.65,0,2.93.72,5.16,2.15,6.69,1.43,1.53,3.51,2.3,6.26,2.3s4.84-.76,6.29-2.27c1.46-1.52,2.18-3.7,2.18-6.56s-.73-5-2.18-6.52c-1.46-1.52-3.54-2.29-6.24-2.29h0Zm0,1.34c1.76,0,3.1.63,4.01,1.89.91,1.26,1.36,3.14,1.36,5.64s-.45,4.28-1.36,5.55c-.91,1.27-2.23,1.9-3.98,1.9-3.61,0-5.42-2.53-5.42-7.6,0-2.41.46-4.25,1.37-5.5.92-1.25,2.26-1.88,4.02-1.88h0Zm23.19,16.06v-1.52c-.15.05-.28.09-.37.1-.09.02-.26.03-.5.03h-4.86v-14.93c0-.27.03-.55.1-.82h-3.06c.03.19.06.34.08.45.02.11.03.24.03.37v15.52c0,.24-.03.51-.1.8h8.68Zm5.44-17.13c.07.29.1.57.1.82v15.49c0,.26-.03.53-.1.82h3.06c-.03-.14-.06-.26-.08-.37-.02-.11-.03-.26-.03-.45v-15.49c0-.19,0-.34.03-.45.02-.11.04-.24.08-.37h-3.06Zm7.81,0v1.57c.24-.05.43-.09.58-.1.15-.02.31-.03.5-.03h3.72v14.87c0,.17,0,.31-.03.42-.02.11-.04.24-.08.4h3.06c-.03-.15-.06-.29-.08-.4-.02-.11-.03-.25-.03-.42v-14.87h3.72c.15,0,.31,0,.46.03.15.02.35.05.59.1v-1.57h-12.43Zm17,0c.03.15.06.28.08.39.02.1.03.25.03.44v15.49c0,.17,0,.31-.03.42-.02.11-.04.24-.08.4h8.89v-1.52c-.24.05-.42.09-.55.1-.13.02-.27.03-.42.03h-4.96v-6.73h5.01c.24,0,.41,0,.51.01.1,0,.24.03.41.06v-1.39c-.19.05-.33.08-.44.09-.1,0-.27.01-.51.01h-4.98v-6.55h5.11c.17,0,.3,0,.4.03.09.02.23.05.4.1v-1.39h-8.86Zm3.42-.98h1.28l2.7-3.98h-2.24l-1.75,3.98h0Zm23.78,1.49c-.7-.29-1.36-.49-1.97-.6-.61-.11-1.31-.17-2.09-.17-2.83,0-4.99.75-6.5,2.25-1.51,1.5-2.26,3.65-2.26,6.46s.72,5.13,2.15,6.65c1.43,1.52,3.5,2.29,6.2,2.29.43,0,.83-.02,1.21-.05.38-.03.74-.09,1.08-.17.34-.08.69-.18,1.04-.32.35-.14.73-.3,1.14-.49v-2.26c-.72.69-1.37,1.16-1.97,1.43-.59.27-1.27.4-2.04.4-.87,0-1.67-.18-2.38-.53-.71-.35-1.31-.85-1.81-1.5-.5-.65-.88-1.43-1.16-2.34-.27-.91-.41-1.93-.41-3.06s.13-2.15.4-3.06c.27-.91.64-1.68,1.13-2.31.49-.63,1.08-1.12,1.79-1.46.7-.34,1.49-.51,2.36-.51.77,0,1.46.12,2.06.36.6.24,1.28.68,2.03,1.31v-2.31h0Zm7.03,2.65l9.53,13.33c.05.09.1.16.15.22.05.06.09.12.13.19l.1.23h2.49c-.05-.14-.09-.25-.1-.33-.02-.09-.03-.23-.03-.44v-15.54c0-.21,0-.36.03-.46.02-.1.04-.22.08-.36h-1.52c.07.27.1.55.1.82v12.87l-9.35-13.1c-.12-.15-.19-.26-.22-.32-.03-.06-.06-.15-.09-.27h-2.72c.03.17.06.31.08.42.02.11.03.24.03.4v15.49c0,.26-.03.53-.1.82h1.52c-.03-.15-.06-.29-.08-.4-.02-.11-.03-.25-.03-.42v-13.15h0Zm19.37-3.16c.07.29.1.57.1.82v15.49c0,.26-.03.53-.1.82h3.06c-.03-.14-.06-.26-.08-.37-.02-.11-.03-.26-.03-.45v-15.49c0-.19,0-.34.03-.45.02-.11.04-.24.08-.37h-3.06Zm22.11.51c-.7-.29-1.36-.49-1.97-.6-.61-.11-1.31-.17-2.09-.17-2.83,0-4.99.75-6.5,2.25-1.51,1.5-2.26,3.65-2.26,6.46s.72,5.13,2.15,6.65c1.43,1.52,3.5,2.29,6.2,2.29.43,0,.83-.02,1.21-.05.38-.03.74-.09,1.08-.17.34-.08.69-.18,1.04-.32.35-.14.73-.3,1.14-.49v-2.26c-.72.69-1.37,1.16-1.97,1.43-.59.27-1.27.4-2.04.4-.87,0-1.67-.18-2.38-.53-.71-.35-1.31-.85-1.81-1.5-.5-.65-.88-1.43-1.16-2.34-.27-.91-.41-1.93-.41-3.06s.13-2.15.4-3.06c.27-.91.64-1.68,1.13-2.31.49-.63,1.08-1.12,1.79-1.46.7-.34,1.49-.51,2.36-.51.77,0,1.46.12,2.05.36.6.24,1.28.68,2.03,1.31v-2.31h0Zm12.87-.77c-1.34,0-2.53.2-3.57.59-1.04.39-1.93.96-2.65,1.7-.72.74-1.27,1.64-1.66,2.72-.39,1.08-.58,2.29-.58,3.65,0,2.93.72,5.16,2.15,6.69,1.43,1.53,3.51,2.3,6.26,2.3s4.84-.76,6.29-2.27c1.46-1.52,2.18-3.7,2.18-6.56s-.73-5-2.18-6.52c-1.46-1.52-3.54-2.29-6.24-2.29h0Zm0,1.34c1.76,0,3.1.63,4.01,1.89.91,1.26,1.36,3.14,1.36,5.64s-.45,4.28-1.36,5.55c-.91,1.27-2.24,1.9-3.98,1.9-3.61,0-5.42-2.53-5.42-7.6,0-2.41.46-4.25,1.37-5.5.92-1.25,2.26-1.88,4.02-1.88h0ZM3.67,294.49h7.55v7.4c0,.17,0,.31-.03.42-.02.11-.04.24-.08.4h3.06c-.03-.15-.06-.29-.08-.4-.02-.11-.03-.25-.03-.42v-15.49c0-.17,0-.31.03-.42.02-.11.04-.24.08-.4h-3.06c.07.29.1.57.1.82v6.83H3.67v-6.83c0-.26.03-.53.1-.82H.72c.03.17.06.31.08.42.02.11.03.24.03.4v15.49c0,.27-.03.55-.1.82h3.06c-.03-.15-.06-.29-.08-.4-.02-.11-.03-.25-.03-.42v-7.4h0Zm14.13-8.91c.03.15.06.28.08.39.02.1.03.25.03.44v15.49c0,.17,0,.31-.03.42-.02.11-.04.24-.08.4h8.89v-1.52c-.24.05-.42.09-.55.1-.13.02-.27.03-.42.03h-4.96v-6.73h5.01c.24,0,.41,0,.51.01.1,0,.24.03.41.06v-1.39c-.19.05-.33.08-.44.09-.1,0-.27.01-.51.01h-4.98v-6.55h5.11c.17,0,.3,0,.4.03.09.02.23.05.4.1v-1.39h-8.86Zm14.9,9.2l5.19,7.19c.09.14.15.26.21.36.05.1.1.23.15.39h3.75c-.17-.1-.29-.19-.35-.26-.06-.07-.18-.21-.35-.41l-5.63-7.4c.46-.09.82-.16,1.08-.23.26-.07.53-.16.82-.28.87-.34,1.55-.85,2.02-1.52.47-.67.71-1.46.71-2.39,0-.69-.13-1.31-.39-1.89-.26-.57-.62-1.07-1.1-1.48-.48-.41-1.05-.73-1.71-.95-.66-.22-1.38-.33-2.17-.33h-5.21c.07.33.1.6.1.82v15.49c0,.17,0,.31-.03.42-.02.11-.04.24-.08.4h3.08c-.03-.17-.06-.31-.08-.42-.02-.11-.03-.24-.03-.4v-7.12h0Zm-.03-.98v-6.96h1.21c1.01,0,1.8.25,2.36.74.36.31.64.71.85,1.21.21.5.31,1.02.31,1.57,0,1.03-.31,1.86-.94,2.49-.63.63-1.44.95-2.45.95h-1.34Zm13.28-4.26l4.32,12.54c.07.14.1.3.1.49v.15h2.41v-.13c0-.15.04-.36.13-.62l4.37-12.74,1.8,12.79c.02.05.03.11.03.18v.31c0,.05-.02.12-.05.21h3.06c-.07-.22-.12-.38-.14-.48-.03-.09-.05-.18-.06-.27l-2.26-15.8v-.59h-2.59v.15c0,.17-.03.32-.08.44l-4.6,13.38-4.57-13.31c-.03-.1-.06-.2-.06-.3,0-.09-.02-.22-.04-.37h-2.57v.74l-2.44,15.59c-.03.1-.06.21-.09.31-.03.1-.07.27-.14.49h1.54v-.21c0-.05,0-.2-.03-.44v-.1l1.98-12.43h0Zm18.68-3.96c.03.15.06.28.08.39.02.1.03.25.03.44v15.49c0,.17,0,.31-.03.42-.02.11-.04.24-.08.4h8.89v-1.52c-.24.05-.42.09-.55.1-.13.02-.27.03-.42.03h-4.96v-6.73h5.01c.24,0,.41,0,.51.01.1,0,.24.03.41.06v-1.39c-.19.05-.33.08-.44.09-.1,0-.27.01-.51.01h-4.98v-6.55h5.11c.17,0,.3,0,.4.03.09.02.23.05.4.1v-1.39h-8.86Zm13.28,3.16l9.53,13.33c.05.09.1.16.15.22.05.06.09.12.13.19l.1.23h2.49c-.05-.14-.09-.25-.1-.33-.02-.09-.03-.23-.03-.44v-15.54c0-.21,0-.36.03-.46.02-.1.04-.22.08-.36h-1.52c.07.27.1.55.1.82v12.87l-9.35-13.1c-.12-.15-.19-.26-.22-.32-.03-.06-.06-.15-.09-.27h-2.72c.03.17.06.31.08.42.02.11.03.24.03.4v15.49c0,.26-.03.53-.1.82h1.52c-.03-.15-.06-.29-.08-.4-.02-.11-.03-.25-.03-.42v-13.15h0Zm15.95-3.16c.03.15.06.28.08.39.02.1.03.25.03.44v15.49c0,.17,0,.31-.03.42-.02.11-.04.24-.08.4h8.89v-1.52c-.24.05-.42.09-.55.1-.13.02-.27.03-.42.03h-4.96v-6.73h5.01c.24,0,.41,0,.51.01.1,0,.24.03.41.06v-1.39c-.19.05-.33.08-.44.09-.1,0-.27.01-.51.01h-4.98v-6.55h5.11c.17,0,.3,0,.4.03.09.02.23.05.4.1v-1.39h-8.86Zm24.71.67c-.46-.17-.89-.32-1.3-.44-.4-.12-.79-.21-1.17-.28-.38-.07-.75-.12-1.13-.15-.38-.03-.77-.05-1.18-.05-1.35,0-2.57.21-3.65.62-1.08.41-2,1-2.75,1.76-.75.76-1.33,1.69-1.73,2.79-.4,1.1-.6,2.34-.6,3.72,0,2.77.8,4.98,2.39,6.63.72.74,1.55,1.28,2.5,1.62.95.34,2.09.51,3.4.51.5,0,.94-.01,1.32-.04.39-.03.79-.08,1.21-.17.42-.09.89-.21,1.43-.36s1.18-.36,1.95-.62c-.09-.19-.14-.35-.15-.48-.02-.13-.03-.31-.03-.55v-6.6c0-.15,0-.29.03-.4.02-.11.04-.25.08-.42h-2.98c.03.15.06.29.08.4.02.11.03.25.03.42v6.7c-.48.27-.91.46-1.3.57-.39.1-.83.15-1.35.15-1.76,0-3.13-.64-4.1-1.91s-1.45-3.09-1.45-5.43c0-1.34.14-2.46.42-3.38.28-.92.72-1.71,1.32-2.38,1.04-1.15,2.4-1.72,4.06-1.72.82,0,1.59.12,2.31.37.72.25,1.5.66,2.34,1.25v-2.13h0Zm3.98-.67c.07.29.1.57.1.82v15.49c0,.26-.03.53-.1.82h3.06c-.03-.14-.06-.26-.08-.37-.02-.11-.03-.26-.03-.45v-15.49c0-.19,0-.34.03-.45.02-.11.04-.24.08-.37h-3.06Zm15.52,17.13v-1.52c-.15.05-.28.09-.37.1-.09.02-.26.03-.5.03h-4.86v-14.93c0-.27.03-.55.1-.82h-3.06c.03.19.06.34.08.45.02.11.03.24.03.37v15.52c0,.24-.03.51-.1.8h8.68Zm2.03-17.13c.03.15.06.29.08.4s.03.25.03.42v15.49c0,.26-.03.53-.1.82h6.01c1.16,0,2.23-.21,3.21-.64.98-.43,1.82-1.03,2.53-1.8.71-.77,1.26-1.69,1.66-2.75.39-1.06.59-2.23.59-3.52s-.2-2.47-.6-3.52c-.4-1.04-.98-1.93-1.73-2.66-.75-.73-1.67-1.28-2.75-1.67-1.08-.39-2.29-.58-3.65-.58h-5.27Zm2.95,15.67v-14.26h1.88c.94,0,1.79.16,2.54.49.75.33,1.4.79,1.93,1.4.53.61.94,1.34,1.22,2.2.28.86.42,1.82.42,2.9,0,2.28-.5,4.06-1.5,5.34-1,1.28-2.38,1.93-4.15,1.93h-2.34Zm21.63-15.93c-1.34,0-2.53.2-3.57.59-1.04.39-1.93.96-2.65,1.7-.72.74-1.27,1.64-1.66,2.72-.39,1.08-.58,2.29-.58,3.65,0,2.93.72,5.16,2.15,6.69,1.43,1.53,3.51,2.3,6.26,2.3s4.84-.76,6.29-2.27c1.46-1.52,2.18-3.7,2.18-6.56s-.73-5-2.18-6.52c-1.46-1.52-3.54-2.29-6.24-2.29h0Zm0,1.34c1.76,0,3.1.63,4.01,1.89.91,1.26,1.36,3.14,1.36,5.64s-.45,4.28-1.36,5.55c-.91,1.27-2.23,1.9-3.98,1.9-3.61,0-5.42-2.53-5.42-7.6,0-2.41.46-4.25,1.37-5.5.92-1.25,2.26-1.88,4.02-1.88h0Zm26.92,16.06v-1.52c-.15.05-.28.09-.37.1-.09.02-.26.03-.5.03h-4.86v-14.93c0-.27.03-.55.1-.82h-3.06c.03.19.06.34.08.45.02.11.03.24.03.37v15.52c0,.24-.03.51-.1.8h8.68Zm4.52-5.37h6.37l1.64,4.65c.05.15.09.28.1.37.02.09.03.21.03.35h3.34c-.12-.17-.21-.3-.26-.39-.05-.09-.1-.2-.15-.33l-5.78-15.85c-.07-.19-.11-.38-.13-.57h-2.47c-.02.12-.03.22-.05.3-.02.08-.04.18-.08.32l-5.6,15.8c-.05.14-.1.26-.15.36-.05.1-.12.22-.21.36h1.62c0-.15,0-.28.03-.37.02-.09.04-.21.08-.35l1.67-4.65h0Zm.41-1.26l2.7-7.73,2.77,7.73h-5.47Zm14.18-7.35l9.53,13.33c.05.09.1.16.15.22.05.06.09.12.13.19l.1.23h2.49c-.05-.14-.09-.25-.1-.33-.02-.09-.03-.23-.03-.44v-15.54c0-.21,0-.36.03-.46.02-.1.04-.22.08-.36h-1.52c.07.27.1.55.1.82v12.87l-9.35-13.1c-.12-.15-.19-.26-.22-.32-.03-.06-.06-.15-.09-.27h-2.72c.03.17.06.31.08.42.02.11.03.24.03.4v15.49c0,.26-.03.53-.1.82h1.52c-.03-.15-.06-.29-.08-.4-.02-.11-.03-.25-.03-.42v-13.15h0Zm14.72,13.97h12.05v-1.49c-.21.05-.37.08-.49.09-.12,0-.33.01-.62.01h-7.73l8.84-14.31v-1.44h-12.05v1.41c.29-.03.52-.06.69-.08.17-.02.35-.03.54-.03h7.6l-8.84,14.28v1.54h0Zm-211.93,11.41c-.46-.17-.89-.32-1.3-.44-.4-.12-.79-.21-1.17-.28-.38-.07-.75-.12-1.13-.15-.38-.03-.77-.05-1.18-.05-1.35,0-2.57.21-3.65.62-1.08.41-2,1-2.75,1.76-.75.76-1.33,1.69-1.73,2.79-.4,1.1-.6,2.34-.6,3.72,0,2.77.8,4.98,2.39,6.63.72.74,1.55,1.28,2.5,1.62.95.34,2.08.51,3.4.51.5,0,.94-.01,1.32-.04.39-.03.79-.08,1.21-.17.42-.09.89-.21,1.43-.36.53-.15,1.18-.36,1.95-.62-.09-.19-.14-.35-.15-.48-.02-.13-.03-.31-.03-.55v-6.6c0-.15,0-.29.03-.4.02-.11.04-.25.08-.42h-2.98c.03.15.06.29.08.4.02.11.03.25.03.42v6.7c-.48.27-.91.46-1.3.57-.39.1-.83.15-1.35.15-1.76,0-3.13-.64-4.1-1.91-.97-1.28-1.45-3.09-1.45-5.43,0-1.34.14-2.46.42-3.38.28-.92.72-1.71,1.32-2.38,1.04-1.15,2.4-1.72,4.06-1.72.82,0,1.59.12,2.31.37.72.25,1.5.66,2.34,1.25v-2.13h0Zm28.58,8.53l5.19,7.19c.09.14.15.26.21.36.05.1.1.23.15.39h3.75c-.17-.1-.29-.19-.35-.26-.06-.07-.18-.21-.35-.41l-5.63-7.4c.46-.09.82-.16,1.08-.23.26-.07.53-.16.82-.28.87-.34,1.55-.85,2.02-1.52.47-.67.71-1.46.71-2.39,0-.69-.13-1.31-.39-1.89-.26-.57-.63-1.07-1.1-1.48-.48-.41-1.05-.73-1.71-.95-.66-.22-1.38-.33-2.17-.33h-5.21c.07.33.1.6.1.82v15.49c0,.17,0,.31-.03.42-.02.11-.04.24-.08.4h3.08c-.03-.17-.06-.31-.08-.42-.02-.11-.03-.24-.03-.4v-7.12h0Zm-.03-.98v-6.96h1.21c1.01,0,1.8.25,2.36.74.36.31.64.71.85,1.21.21.5.31,1.02.31,1.57,0,1.03-.31,1.86-.94,2.49-.62.63-1.44.95-2.45.95h-1.34Zm34.24,3.54h6.37l1.64,4.65c.05.15.09.28.1.37.02.09.03.21.03.35h3.34c-.12-.17-.21-.3-.26-.39-.05-.09-.1-.2-.15-.33l-5.78-15.85c-.07-.19-.11-.38-.13-.57h-2.47c-.02.12-.03.22-.05.3-.02.08-.04.18-.08.32l-5.6,15.8c-.05.14-.1.26-.15.36-.05.1-.12.22-.21.36h1.62c0-.15,0-.28.03-.37.02-.09.04-.21.08-.35l1.67-4.65h0Zm.41-1.26l2.7-7.73,2.77,7.73h-5.47Zm35.96-7.35l9.53,13.33c.05.09.1.16.15.22.05.06.09.12.13.19l.1.23h2.49c-.05-.14-.09-.25-.1-.33-.02-.09-.03-.23-.03-.44v-15.54c0-.21,0-.36.03-.46.02-.1.04-.22.08-.36h-1.52c.07.27.1.55.1.82v12.87l-9.35-13.1c-.12-.15-.19-.26-.22-.32-.03-.06-.06-.15-.09-.27h-2.72c.03.17.06.31.08.42.02.11.03.24.03.4v15.49c0,.26-.03.53-.1.82h1.52c-.03-.15-.06-.29-.08-.4-.02-.11-.03-.25-.03-.42v-13.15Z" style="fill: #1e120d;"/>
    <path d="m152.1,325.21h6.37l1.64,4.65c.05.15.09.28.1.37.02.09.03.21.03.35h3.34c-.12-.17-.21-.3-.26-.39-.05-.09-.1-.2-.15-.33l-5.78-15.85c-.07-.19-.11-.38-.13-.57h-2.47c-.02.12-.03.22-.05.3-.02.08-.04.18-.08.32l-5.6,15.8c-.05.14-.1.26-.15.36-.05.1-.12.22-.21.36h1.62c0-.15,0-.28.03-.37.02-.09.04-.21.08-.35l1.67-4.65h0Zm.41-1.26l2.7-7.73,2.77,7.73h-5.47Zm34.59-10.51c.03.15.06.29.08.4.02.11.03.25.03.42v15.49c0,.26-.03.53-.1.82h6.01c1.16,0,2.23-.21,3.21-.64.98-.43,1.82-1.03,2.53-1.8.71-.77,1.26-1.69,1.66-2.75.39-1.06.59-2.23.59-3.52s-.2-2.47-.6-3.52c-.4-1.04-.98-1.93-1.73-2.66-.75-.73-1.67-1.28-2.75-1.67-1.08-.39-2.29-.58-3.65-.58h-5.27Zm2.95,15.67v-14.26h1.88c.94,0,1.79.16,2.54.49.75.33,1.4.79,1.93,1.4.53.61.94,1.34,1.22,2.2.28.86.42,1.82.42,2.9,0,2.28-.5,4.06-1.5,5.34-1,1.28-2.38,1.93-4.15,1.93h-2.34Zm36.57-3.9h6.37l1.64,4.65c.05.15.09.28.1.37.02.09.03.21.03.35h3.34c-.12-.17-.21-.3-.26-.39-.05-.09-.1-.2-.15-.33l-5.78-15.85c-.07-.19-.11-.38-.13-.57h-2.47c-.02.12-.03.22-.05.3-.02.08-.04.18-.08.32l-5.6,15.8c-.05.14-.1.26-.15.36-.05.1-.12.22-.21.36h1.62c0-.15,0-.28.03-.37.02-.09.04-.21.08-.35l1.67-4.65h0Zm.41-1.26l2.7-7.73,2.77,7.73h-5.47Z" style="fill: #1e120d;"/>
  </g>
  <g>
    <path d="m118.41,218.29c-.03-.15-.06-.29-.08-.44-.18.22-.35.43-.46.65l-.63,1.19c-1.5,2.84-3.05,5.77-4.46,8.71-1.47,3.06-2.91,6.16-4.33,9.23.7.06,1.39.12,2.09.17.71-1.16,1.45-2.3,2.29-3.37.1-.12.23-.2.37-.24-.03-.15,0-.3.06-.44.1-.21.2-.41.3-.62.22-.48.45-.97.74-1.44,1.03-1.69,2.09-3.36,3.15-5.03l.57-.9c.82-1.3,1.15-2.67.97-4.08-.15-1.13-.37-2.28-.58-3.4Z" style="fill: #1e120d;"/>
    <path d="m123.85,222.89c.36-.6.72-1.2,1.08-1.8.31-.51.63-1.02.94-1.53.49-.79.98-1.58,1.45-2.37.37-.63.73-1.27,1.09-1.91.29-.51.58-1.03.87-1.54.51-.87.95-1.59,1.39-2.26.18-.28.4-.54.61-.8.33-.41.65-.79.77-1.17.53-1.73,1.54-3.12,2.52-4.48.77-1.06,1.5-2.07,1.99-3.21.13-.29.31-.53.47-.74.12-.15.22-.29.28-.42.1-.22.32-.68.31-1v-.05s-.03.02-.03.02c-.79.72-1.3,1.3-1.66,1.88-.81,1.32-1.59,2.71-2.34,4.04-.31.55-.62,1.1-.93,1.65l-.08.15c-.08.17-.19.39-.37.57-2.26,2.29-3.7,5.07-5.22,8.01l-.13.25c-.81,1.57-1.79,3.07-2.73,4.51l-.55.84c-.24.37-.47.74-.71,1.11-.89,1.41-1.82,2.87-2.91,4.17-.77.92-1.2,2-1.65,3.14-.3.75-.6,1.53-1.02,2.26l-.15.27c-.28.52-.58,1.05-1.02,1.5-.35.36-.79.57-1.18.76-.15.07-.29.14-.43.22l-.14.05v.16s-.07.31-.07.31c-.05.28-.11.6-.25.9l-.4.85c-.11.24-.23.48-.34.72.34.02.68.03,1.02.04.91-1.43,1.81-2.85,2.72-4.28,1.63-2.56,3.26-5.11,4.88-7.67.66-1.04,1.29-2.1,1.93-3.16" style="fill: #1e120d;"/>
    <path d="m53.33,155.47c-.76.25-.85.42-.85.42,0,0-.04.17.34.77.43.68,1.08,1.38,1.93,2.07,1.63,1.32,2.2,2.24,1.48,4.52-.44,1.41-.98,2.86-1.6,4.34-1.89,4.5-3.29,9.46-4.4,15.6-1.72,9.52-4.93,18.63-7.81,26.43-.05.14-.1.28-.16.42,8.68,7.33,18.41,13.44,28.95,18.07.06-2.24.25-4.42.59-6.54.41-2.54.96-5.09,1.48-7.56.31-1.45.62-2.9.9-4.35.23-1.19.47-2.38.71-3.57.83-4.16,1.68-8.46,2.36-12.71.34-2.14.44-4.56.31-7.41-.38-7.88.59-14.68,2.98-20.8.4-1.04.56-2.19.72-3.4.09-.66.18-1.33.31-1.98.16-.79.4-1.64.72-2.5.14-.39.48-.6.72-.75l.18-.12c.17-.14.4-.18.61-.13.21.06.39.21.47.41l.09.18c.13.23.3.55.25.94-.21,1.73-.43,3.25-.67,4.64-.31,1.82-.63,3.64-.96,5.46-.69,3.88-1.4,7.88-1.97,11.84-.25,1.74-.13,3.59,0,5.39.03.38.05.77.07,1.15.06.97.55,1.76,1.5,2.41.83.57,1.33,1.61,1.68,2.44.26.64.5,1.28.7,1.93.21-1.08.46-2.15.71-3.19l.22-.88c.51-2.07,1.02-4.14,1.53-6.22.78-3.17,1.57-6.34,2.33-9.51.06-.27.09-.55.11-.85-.5.58-.87,1.22-1.09,1.87-.49,1.49-.89,3.05-1.27,4.56-.19.74-.38,1.48-.58,2.21-.32,1.19-.66,2.38-.99,3.57l-.45,1.62c-.1.35-.44.57-.8.5l-.46-.08c-.36-.07-.61-.39-.57-.76.02-.21.03-.43.05-.64.03-.49.07-1.01.17-1.52.86-4.51,2.31-8.76,4.31-12.63.27-.52.6-1.02.99-1.5.48-.59,1.1-.92,1.73-.92.83,0,1.55.58,1.86,1.5.25.73.35,1.6.31,2.72-.1,3.27-1.07,6.36-2.01,9.34-.19.59-.37,1.18-.55,1.77-.85,2.79-1.56,5.65-2.08,7.83-.17.69-.14,1.49-.11,2.26.02.42.07.53.08.54,0,0,.07.03.26.03h.25c.12-.02.24-.04.36-.05l.29-.04c.74-.07,1.15.18,1.37.42,1.05-3.15,2.93-5.77,5.62-7.76,1.01-.75,1.99-.82,2.81-.24.85.6,1.08,1.55.69,2.82-.19.61-.46,1.18-.73,1.73-.12.24-.24.49-.35.74-.49,1.11-.99,2.22-1.48,3.33-1.35,3.03-2.75,6.16-4.04,9.27-.27.65-.37,1.39-.47,2.18-.06.43-.11.85-.19,1.27-.01.07,0,.21,0,.34.02.44.06,1.62-1.32,1.77h-.08c.12.4.25.79.38,1.18.23.68.47,1.39.64,2.12.16.68-.08,1.44-.31,1.96-.15.35-.15.62.28,1.08.38.4.79.79,1.2,1.17.3.28.59.56.88.85,2.5,2.49,2.67,4.84.53,7.62-.36.47-.38.72-.36.78.02.05.2.21.75.3,1.56.24,2.84.13,4.03-.34,1.56-.61,2.97-1.15,4.46-1.56.7-.2,1.31-.29,1.87-.29,1.25,0,2.26.49,3,1.45.22-.21.35-.52.52-.97.07-.19.15-.38.23-.56.7-1.49,1.47-3.08,2.51-5.15.15-.3.36-.53.55-.73l.19-.22.17-.15v-.12c.05-.21.08-.41.1-.6.06-.45.11-.88.33-1.28.54-1.01,1.17-1.95,1.78-2.85.81-1.2.78-1.62-.21-2.61-1.78-1.79-2.3-4.08-2.65-6.08-.34-1.93-.62-3.82-.84-5.6-.23-1.86-.91-3.56-1.63-5.37-.21-.52-.42-1.04-.61-1.57-1.37-3.66-2.08-7.53-2.75-11.26-.13-.72-.26-1.44-.4-2.16-.88-4.66-1.76-8.83-3.67-12.75-.45-.91-.94-1.83-1.43-2.72-.8-1.47-1.63-2.99-2.26-4.58-1.05-2.63-2.03-5.34-2.98-7.95-.93-2.56-1.89-5.21-2.91-7.77-.94-2.38-2.18-4.7-3.37-6.96l-.52-.98c-.36-.69-1-1.31-1.61-1.91-.73-.71-1.58-1.08-2.68-1.18-8.72-.83-16.59-3.8-23.4-8.84-.5-.37-.94-.79-1.37-1.2-.3-.28-.59-.57-.9-.83-.12-.1-.24-.18-.34-.23l-.14.28c-.12,1.24-.24,2.48-.37,3.71-.37,3.65-.76,7.43-.9,11.15-.11,2.82,0,5.71.12,8.5.06,1.39.11,2.78.14,4.18.01.73.02,1.57-.15,2.38-.46,2.26-2.25,3.14-3.93,3.7Zm5.29,18.71c.07-.2.2-.38.39-.57,2.05-2.06,4.11-4.13,6.17-6.19.11-.11.23-.2.36-.28l.1-.07c.24-.18.57-.18.82,0l.21.15c.03-.2.1-.4.22-.58.23-.34.61-.56,1.12-.66.16-.03.3-.04.43-.04.43,0,1.44.17,1.57,1.71.03.38.04.77.05,1.15,0,.3.01.6.03.9.02.31.03.39.46.39h.12c.81,0,1.61.13,2.43.29.8.15,1.71.68,1.52,2.37-.19,1.6-.35,3.17-.33,4.74.01.78.25,1.63.48,2.44l.11.41c.38,1.39-.02,2.59-1.19,3.57-.3.25-.67.29-.94.32l-.21.03-.15.02c-.14,0-.29-.05-.41-.13-.16-.11-.27-.29-.29-.49l-.04-.26c-.05-.28-.11-.59-.05-.93.06-.38.32-.64.5-.83l.11-.12c.25-.29.31-.43.33-.47-.02-.01-.12-.11-.45-.31-2.25-1.39-4.87-1.89-7.57-2.32-.24-.04-.47-.08-.7-.12-1.12-.2-2.19-.33-3.06-.01-.16.06-.66.24-.75.34,0,.02,0,.18.16.7.31,1.1.34,1.98-.46,2.96-.21.26-.58.34-.88.18-.09-.03-.4-.16-.5-.52-.73-2.65-.63-5.25.29-7.75Z" style="fill: #1e120d;"/>
    <path d="m95.47,232.72c.63-.3,1.24-.62,1.86-.94l.23-.12c-1.01.24-2.15.29-3.21.03-1.41-.35-2.43-1.07-2.93-2.09-.5-1.02-.45-2.25.13-3.58.46-1.04.89-2.14,1.31-3.37.06-.18.14-.4-.37-.74-2.39-1.59-3.51-3.84-3.24-6.5.17-1.7-.26-3.24-1.32-4.71-.99-1.36-1.57-2.94-1.78-4.84-.03-.3-.49-.8-.69-1.01-.13-.14-.44-.27-.71-.38l-.14-.06c-1.66-.69-1.84-2.06-1.84-3.03.01-3.32-.32-5.96-1.04-8.34l-.04-.17v-.02c-.09-.11-.18-.23-.26-.36l-.28-.38c-.1.1-.33.32-.46.55-1.38,2.43-2.27,5.29-2.66,8.49-.79,6.45-1.59,13.36-2.12,20.25-.22,2.81-.34,5.64-.43,8.47,5.01,1.97,10.19,3.61,15.51,4.89,1.23-.53,2.46-1.1,3.65-1.66l.83-.39Z" style="fill: #1e120d;"/>
    <path d="m105.28,229.79c.64.03,1.25,0,1.71-.13l.28-.21-.23-.27c-.58-.33-1.18-.49-1.79-.49-.5,0-1.01.11-1.51.33-.68.29-1.35.62-2.01.94l-.05.02c1.06-.2,2.31-.25,3.61-.19Z" style="fill: #1e120d;"/>
    <path d="m87.6,201.26c.21.17.42.34.61.52,1.23,1.13,1.92,2.29,2.15,3.63.23-.6.48-1.2.77-1.78.78-1.54,1.59-3.07,2.41-4.59.85-1.59,1.69-3.17,2.5-4.78.44-.88.69-1.93.93-2.94.19-.8-.11-.93-.23-.98h0c-.29,0-.75.29-.86.67-.2.73-.32,1.48-.44,2.28-.05.3-.09.59-.14.89-.2,1.2-.66,2.64-2.36,3.15-.17.05-.5.13-.85.13s-.65-.09-.87-.26l-.17-.21c-.13.54-.26,1.08-.4,1.62l-.24.94c-.08.32-.37.53-.68.53h-.14s-.31-.08-.31-.08c-.3-.06-.53-.32-.56-.63v-.12c-.02-.12-.03-.23-.04-.35-.03-1.44-.09-1.5-1.48-1.61-.4-.03-.89-.12-1.35-.34.09.68.16,1.35.19,2.03.02.38.26.9.68,1.46.22.29.54.55.88.82Z" style="fill: #1e120d;"/>
    <path d="m105.49,232.84c.09-.42.04-.56.03-.57,0,0-.25-.06-.59,0-.69.1-1.26.24-1.75.41-1.82.65-3.81,1.39-6.08,2.26l-.14.06.13.11c.2.16.41.3.63.44.13.08.25.16.37.25.27.19.49.39.68.59,1.45.25,2.91.47,4.38.67.42-.95.94-1.86,1.7-2.69.26-.29.48-.8.64-1.52Z" style="fill: #1e120d;"/>
    <path d="m57.82,60.04c1.06-.56,2.12-1.12,3.17-1.7,4.65-2.57,9.13-5.18,12.89-8.8,2.21-2.13,4.59-4.5,7.49-7.44.12-.12.22-.3.33-.51-1.07.06-1.96.47-3,.98-4.44,2.21-8.74,5.25-13.54,9.55-.36.32-.69.67-1.03,1.03-.52.54-1.05,1.1-1.67,1.57-1.5,1.13-3.15,2.25-5.34,3.64-2.59,1.64-5.18,3.26-7.78,4.88-1.66,1.04-3.32,2.07-4.98,3.12l.16-.05c2.78-.92,5.42-1.78,7.87-3.25,1.78-1.07,3.64-2.05,5.44-3.01Z" style="fill: #1e120d;"/>
    <path d="m34.5,35.25l.08-.03c.33-.11.7.04.85.36.08.17.18.33.29.5.27.44.57.94.62,1.52.21,2.22.39,4.39.31,6.54-.05,1.47-.46,2.9-.86,4.29l-.04.13c-.2.69-.69,1.35-1.5,2.01-.13.1-.29.16-.45.16l-.31-.07c-.25-.12-.4-.38-.39-.66l.31-6.84c-.22,1.25-.5,2.53-.86,3.85-.95,3.52-2.05,7.06-3.12,10.48l-.39,1.26c-.96,3.09-1.52,6.32-1.72,9.85-.04.72.13,1.52.31,2.28.03.11.07.17.08.17l.15-.05c1.12-.49,2.25-.96,3.38-1.43,2.58-1.08,5.24-2.19,7.77-3.45,1.81-.9,3.49-2,5.26-3.16.4-.26.8-.53,1.21-.79h0c-4-.29-8.29-.62-12.59-1.06-.36-.04-.63-.34-.63-.7,0-.36.27-.66.63-.7l1.26-.13c3.58-.36,7.28-.73,10.95-.73,1.41,0,2.72.05,4,.16,1.36.12,2.01-.02,2.02-1.88,0-.29,0-.63-.06-.93l-.29-1.49c-.33-1.72-.68-3.5-1.07-5.24-.39-1.73-.8-3.46-1.21-5.18-.42-1.77-.84-3.53-1.24-5.31-.32-1.43-.28-2.92.13-4.55.7-2.76.67-5.48-.08-8.08-.3-1.03-.49-1.44-.96-1.46h0c-.3,0-.45.23-.74.91-.06.15-.13.3-.2.43-.17.35-.33.7-.49,1.05-.27.59-.54,1.2-.87,1.79-.46.83-.9,1.42-1.41,1.88-.66.6-1.49.93-2.34.93-.66,0-1.27-.2-1.78-.53-1.37,1.26-2.71,2.55-4.02,3.87Zm9.59,6.07c.03-.22.07-.45.09-.67.01-.12.07-.23.13-.33-.07-.11-.11-.23-.11-.36,0-1.83.38-3.17,1.27-4.36.14-.19.37-.3.6-.28.24.01.45.14.57.35.69,1.17.02,3.32-1.01,4.53.12.12.21.27.22.44l.32,3.46c.03.37-.22.7-.59.76l-.37.06h-.11c-.23,0-.45-.1-.58-.3-.77-1.12-.59-2.28-.43-3.3Z" style="fill: #1e120d;"/>
    <path d="m50.28,82.4c.24-.69.41-1.52.46-2.28-.24.72-.4,1.55-.46,2.28Z" style="fill: #1e120d;"/>
    <path d="m49.31,68.71c-.1-.5-.18-.5-.5-.5-.29,0-.51.02-.73.06-7.69,1.43-13.84,3.39-19.34,6.18q-1.17.59-.98,1.86c.24,1.53.5,3.06.75,4.59.27,1.59.54,3.19.78,4.79l.05.26c.1.46.4,1.88-1,2.19-.43.1-.83.02-1.15-.2.2.49.45.98.72,1.49.53,1.04,1.08,2.11,1.26,3.28.3,2.01,1.31,2.57,3.19,2.94,1.04.21,2.02.64,2.96,1.06.23.1.47.21.7.31.46.2,1.06.88.94,1.49-.11.56-.62,1.03-1.04,1.23-1.89.89-3.1.66-4.64-.87-.24-.24-.49-.46-.74-.69.14.74.29,1.48.44,2.22l.32,1.59c.16.84.28,1.32.83,1.62.46.25.57.81.61,1.21.04.33.05.66.07.99.02.32.04.63.07.95.26,2.31.85,3.92,1.9,5.2,1.49,1.81,3.79,2.17,5.65.9,1.4-.96,2.24-2.37,2.56-4.32.48-2.87.82-5.21,1.08-7.36.09-.78.09-1.64-.02-2.56-.73.89-1.63,1.34-2.68,1.34-.68,0-1.4-.18-2.28-.57-.37-.16-.65-.42-.9-.66l-.27-.25c-.16-.13-.25-.32-.26-.52,0-.2.08-.4.22-.54l.24-.26c.24-.28.55-.62,1-.75,1.55-.46,3.38-.98,5.3-1.37.75-.15.95-.36,1.1-.73.85-2.19,1.62-4.34,1.56-6.67-.13-5.48.47-9.9,1.89-13.93.56-1.57.66-3.25.32-4.99Zm-15.73,11.53l-1.16.96c-.13.11-.29.16-.45.16-.17,0-.35-.06-.48-.19l-1.13-1.07c-.16-.15-.24-.37-.22-.6.03-.22.16-.42.35-.53l.27-.18c.29-.21.66-.47,1.11-.47h.11c.48.05.86.32,1.2.56l.31.21c.2.12.32.32.34.55.02.23-.08.45-.25.6Zm3.2,15.09c-.14.1-.26.21-.37.3-.29.24-.58.49-.99.49h-.1c-.6-.07-1.23-.75-1.25-1.33-.02-.63.68-1.28,1.24-1.34.42-.06.78.21,1.08.46.11.09.23.18.37.28.19.13.3.34.31.57,0,.23-.11.45-.3.58Zm2.22,5.53c.24.5-.11.89-.39,1.2l-.25.29c-.12.15-.3.25-.49.27h-.07c-.17,0-.34-.06-.46-.17l-.92-.81c-.15-.13-.24-.32-.24-.52s.08-.39.22-.52l.19-.21c.25-.29.56-.65,1.04-.65.79.07,1.24.88,1.36,1.13Zm1.82-5.49c-.14.09-.26.2-.37.29-.29.24-.57.46-.94.46l-.24-.04c-.43-.13-.67-.49-.85-.75l-.15-.2c-.12-.15-.18-.33-.16-.52.02-.19.11-.36.26-.48l.16-.16c.22-.22.53-.53.98-.54h0c.45,0,.74.26,1.02.52.1.09.2.18.33.28.18.14.28.35.28.58,0,.23-.12.43-.31.56Zm5.37-14.79l-1.18.92c-.13.1-.28.15-.43.15-.17,0-.34-.06-.48-.19l-1.13-1.05c-.16-.15-.25-.37-.22-.6.03-.22.16-.42.35-.53l.29-.19c.31-.22.69-.49,1.15-.49.59.05.98.35,1.3.6l.3.22c.19.12.31.33.32.56,0,.23-.09.44-.27.58Z" style="fill: #1e120d;"/>
    <path d="m64.82,176.41c.65.01,1.3.03,1.94.06.74.04,1.6.09,2.44.31.28.07.52.11.72.11.37,0,.66-.06.74-.82.09-.8.33-1.74,1.34-2.25-.59-.62-1.15-.7-1.55-.7-.2,0-.43.03-.66.08-2.55.61-2.61-1.15-2.69-2.26-.05-.75-.16-1.55-.35-2.51-.16.24-.31.48-.46.72-.44.7-.9,1.43-1.45,2.1-.54.66-1.12,1.29-1.69,1.9-.54.58-1.1,1.19-1.6,1.8-.21.26-.36.63-.51,1.02.35.15.68.29.98.32.92.08,1.87.1,2.79.12Z" style="fill: #1e120d;"/>
    <path d="m48.4,126.25c-.13.52-.28,1.03-.43,1.55-.19.66-.37,1.29-.51,1.93-.14.66-.2,1.35-.26,2.08l-.04.54c-.12,1.34-.38,2.67-.62,3.95-.39,1.99-.75,3.87-.65,5.83.01.24-.03.46-.07.63l-.03.18c-.16,1.03-.32,2.07-.49,3.1-.36,2.27-.74,4.61-1.02,6.93-.32,2.6-.59,5.26-.85,7.82-.21,2.06-.42,4.12-.66,6.17-.49,4.29-1,8.15-2.26,12.03-1.15,3.54-1.81,7.37-2.34,10.68-.86,5.36-1.52,10.21-2.03,14.81,1.17,1.14,2.37,2.25,3.59,3.35.58-1.86,1.17-3.73,1.72-5.59,1.38-4.66,2.73-9.59,4-14.66.48-1.93.9-3.92,1.3-5.84.42-2,.85-4.07,1.36-6.08,1.01-3.99,2.41-6.93,4.39-9.25,1.11-1.3,1.59-2.31,1.51-3.18-.09-.86-.75-1.75-2.08-2.79-.7-.55-1.61-1.28-2.4-2.14-.97-1.05-1.3-2.29-.94-3.49.37-1.24,1.48-2.25,2.81-2.57.15-.04.31-.07.46-.1.43-.09.83-.18,1.16-.34.36-.18.61-.44.64-.52.28-1.18.56-2.43.58-3.66.04-2.99.05-5.98.06-8.97,0-2.61.02-5.23.05-7.84.03-2.31.2-4.63.35-6.62.05-.67.16-1.33.27-1.97.11-.64.21-1.24.25-1.85.12-1.51-.4-2.81-1.54-3.88-1.46-1.37-3.02-2.78-4.76-4.32l-.18-.13-.04.17c-.14.97-.19,2.01-.17,3.17.03,1.29.08,2.58.13,3.87.06,1.53.12,3.05.14,4.58.01.77-.17,1.51-.35,2.23l-.06.23Zm1.24,34.6c.86.55,1.7,1.32,2.41,2.22.17.21.68.86.37,1.51-.32.66-1.19.66-1.48.66-.2,0-.33,0-.45-.02l-.22.04h-.08c-.2-.03-.41-.06-.61-.08-.47-.05-.96-.11-1.45-.22-.7-.16-1.2-.49-1.48-.99-.31-.55-.32-1.25-.03-2.08.48-1.39,1.75-1.86,3.03-1.03Z" style="fill: #1e120d;"/>
    <path d="m113.8,221.05l.13-.26c.33-.66.66-1.32.99-1.99-.2.24-.44.46-.73.66.08.17.1.36.03.54l-.42,1.05Z" style="fill: #1e120d;"/>
    <path d="m136.73,215.06c-.91,1.17-1.8,2.34-2.64,3.53-.66.94-1.3,1.91-1.93,2.87-.48.73-.97,1.47-1.48,2.21l.11-.15c1.86-2.62,3.72-5.24,5.55-7.87.13-.19.27-.38.39-.58" style="fill: #1e120d;"/>
    <path d="m155.26,195.42c-.76-.45-1.47-.86-2.25-.79-.43.04-1.03.38-1.38.8-.39.46-.72.98-1.06,1.53-.31.49-.63,1.01-1,1.48-.33.42-.73.73-1.12,1.03-.26.2-.51.39-.71.6-.42.42-.81.87-1.19,1.32-.25.29-.5.58-.76.87-.22.24-.46.47-.7.7l-.08.07c1.04.65,2.01.65,2.95,0,.91-.64,1.84-1.47,2.76-2.47.67-.72,1.32-1.11,2.19-1.32,1.22-.29,2.42-.69,3.34-1.02-1.06-1.06-1.23-1.5-.61-2.59-.12-.07-.24-.14-.37-.21" style="fill: #1e120d;"/>
    <path d="m119.06,0c-26.28,0-50.57,8.52-70.27,22.95.43.3.82.67,1.16,1.12.51.68.86,1.69.94,2.7.15,2.11.18,4.01.1,5.81-.28,6.11.82,12.07,1.81,16.57.39,1.77.7,3.57,1.01,5.32l.29,1.67c.07.37.38.75.86.53.25-.11.5-.36.7-.56.53-.55,1.04-1.11,1.56-1.68,1.02-1.12,2.08-2.28,3.23-3.31,5.26-4.68,9.84-7.99,14.44-10.43,1.6-.85,3.37-1.55,5.26-2.09.95-.27,2.23-.13,3.36.07.7.12,1.06.49,1.24.78.2.32.39.88.15,1.74-.76,2.67-2.37,4.72-3.84,6.37-2.76,3.1-6.12,5.95-10.55,8.96-4.05,2.75-8.95,5.83-14.6,7.79-.99.34-1.34,1.21-1.46,1.69-.33,1.33-.73,3.09-.9,4.84-.14,1.42-.14,3-.03,4.84.17,2.71-.28,5.43-1.44,8.55-1.25,3.38-2.47,6.85-3.64,10.31-.23.68-.36,1.38-.51,2.14-.09.47-.18.94-.29,1.4-.23.97-.46,1.89-.79,2.78-.72,1.9-.6,3.35.37,4.56,1.35,1.69,2.82,3.27,4.08,4.59.84.88,1.78,1.68,2.83,2.54,2.03,1.68,4.15,3.55,5.91,5.91,2.21,2.96,5.47,5.07,10.26,6.65,4.19,1.39,7.64,2.3,10.86,2.86,7.31,1.29,12.31,5.54,14.85,12.64,1.04,2.91,1.91,5.92,2.75,8.83.32,1.12.65,2.24.98,3.36,1.11,3.71,2.44,6.97,4.09,9.98.96,1.75,1.55,3.68,2.13,5.56.18.58.36,1.16.55,1.74l.11.34c1.01,3.07,2.06,6.24,2.94,9.41.56,2.04,1.07,4.12,1.56,6.14.41,1.69.82,3.38,1.27,5.06.28,1.05.71,2.03,1.26,2.85.78,1.18,1.57,2.65,1.5,4.64-.11,3.23.22,6.33,1,9.22.19.71.52,1.39.91,1.93.12.16.44.31.62-.14l.17-.44c.53-1.36,1.08-2.77,1.67-4.15.35-.81.73-1.62,1.1-2.43.58-1.25,1.18-2.54,1.68-3.83.47-1.22,1.25-2.14,2.53-3.01l.06-.04-.09-.03c-.27-.08-.46-.32-.49-.6l-.03-.22c-.03-.21-.07-.46-.05-.73.17-1.64.55-3.75,2.06-5.56.66-.8,1.25-1.69,1.83-2.55.45-.67.91-1.36,1.4-2.02,1.26-1.67,2.73-2.52,4.38-2.52,2.22,0,4.1,1.55,5.29,2.85,1,1.1.93,2.59-.17,3.64-1.48,1.41-3.09,2.86-4.89,3.87-1.35.75-2.75,1.63-3.8,2.95-2.36,2.94-3.83,6.39-4.95,9.38-.29.77-.74,1.51-1.27,2.09-1.75,1.93-2.65,4.25-2.68,6.89-.02,1.94.1,3.94.21,5.86.03.44.05.89.08,1.33.35-.62.71-1.24,1.06-1.86,1.39-2.44,2.82-4.96,4.29-7.42.88-1.46,1.89-2.9,3.03-4.26,3.65-4.39,6.32-9.38,9.2-14.99.68-1.32,1.33-2.5,2.4-3.53.37-.36.62-.99.86-1.59.07-.18.14-.36.21-.53.33-.77.63-1.55.93-2.33.6-1.55,1.23-3.15,2.02-4.66.96-1.84,2.58-2.6,4.38-2.03h0c.14,0,.35-.07.55-.13.24-.07.48-.15.71-.18l.33-.06c.48-.09,1.09-.16,1.53,0,2.21.78,3.41,2.97,3.12,5.72-.23,2.25-1.54,3.87-2.8,5.44l-.19.24c-.23.29-.67.45-.97.45-.15,0-.37-.06-.49-.15-.32-.24-.69-.8-.52-1.32l.14-.46c.26-.84.52-1.7.93-2.51.23-.45.55-.81.85-1.17.22-.25.43-.49.58-.73v-.13c-.72-.4-1.05-1.04-1.32-1.57-.1-.18-.19-.37-.3-.54-.2-.3-.39-.48-.52-.48-.05,0-.2.02-.49.24-.34.26-.63.47-.87.62.16.08.29.22.35.39.06.18.06.37-.02.54l-.47,1.01.07-.05c.23-.17.53-.19.77-.05.25.14.38.41.35.69-.19,1.56-1.41,2.76-2.82,2.78l-.14.04.08.32.27.21c.12.09.25.18.39.29.15.12.24.3.25.5.01.2-.06.39-.19.53l-.36.38c-.25.25-.49.51-.73.76l-.38.41c-.5.54-1.01,1.09-1.48,1.65.67-.26,1.4-.55,2.01-.93.53-.33,1.01-.75,1.53-1.19.23-.2.46-.39.69-.58.28-.23.68-.21.94.05l.29.28c.26.25.28.66.05.94l-.22.3c-.2.29-.42.61-.76.85-6.05,4.26-10.96,9.77-14.59,16.37-1.67,3.04-3.46,6.08-5.19,9.01-.58.98-1.16,1.96-1.73,2.94-.39.67-.81,1.32-1.22,1.97-.29.46-.59.92-.87,1.38-.08.14-.25.42-.26.54-.01.42-.09.8-.21,1.16.62-.87,1.25-1.75,1.87-2.62l3.44-4.8c1.41-1.95,2.81-3.91,4.19-5.88.43-.62.81-1.26,1.21-1.95.26-.45.53-.9.8-1.34.15-.24.34-.43.5-.6l.28-.31.35-.47c.41-.53.79-1.04,1.1-1.58.68-1.2,1.68-1.88,2.76-1.82l.04-.21.1-.3c.08-.26.17-.54.33-.82,1.38-2.5,3.18-4.79,5.5-7.02,1.46-1.39,3.28-1.83,4.87-2.07.22-.03.42-.05.62-.05,1.19,0,2.78.57,3.56,3.3.06.2.14.4.22.59.14.34.28.68.35,1.08.16.93.08,1.55-.26,1.95-.99,1.17-2.38,2.62-4.36,3.49-2.02.89-4.16,1.94-6.74,3.32-1.6.85-2.76,1.88-3.55,3.13-.16.25-.28.52-.4.79-.07.15-.14.3-.21.45-.11.22-.22.44-.33.66-.25.48-.49.94-.68,1.41-.1.24-.16.51-.22.8-.06.27-.13.55-.22.81l-.09.29c-.16.49-.33,1.04-.72,1.47-1.19,1.31-2.4,2.6-3.61,3.89-1.75,1.87-3.56,3.8-5.28,5.74-2.07,2.34-3.52,4.77-4.43,7.43-.06.18-.2.33-.37.41-.17.08-.37.09-.55.02-.47-.18-.79-.47-.95-.86-.25-.6,0-1.19.08-1.38.31-.74.72-1.46,1.2-2.15.8-1.13,1.59-2.26,2.39-3.39-.45.59-.94,1.14-1.41,1.68-.35.4-.7.79-1.03,1.2-.48.58-.93,1.18-1.39,1.79l-.61.8c-.17.22-.34.44-.5.67-.42.56-.85,1.13-1.32,1.67-.32.36-.93.74-1.54.74-.69-.04-.92-.63-1.13-1.16l-.02-.06c-.18.18-.33.35-.44.53-.86,1.39-1.76,2.95-2.74,4.74.45-.56.94-1.1,1.47-1.6.22-.21.54-.25.8-.11l.38.2c.31.16.48.53.36.86l-.07.25c-.05.2-.13.43-.24.65.3,0,.6,0,.9-.01.36-.37.67-.66.92-.82.26-.17.61-.14.84.06l.06.07c-.03-.78.17-1.67,1.1-2.5.16-.14.38-.21.59-.16.21.04.39.17.49.36l.09.16c.08.14.15.27.21.4l.16.36c.27.62.54,1.24.8,1.86,62.38-3.74,111.82-55.51,111.82-118.83S184.81,0,119.06,0" style="fill: #1e120d;"/>
    <path d="m30.34,39.67c-10.56,11.79-18.81,25.7-24.02,41.01,3.51-1.75,6.43-3.17,9.14-4.46,1.39-.66,2.89-1.35,4.46-1.88,2.97-.99,4.49-3.12,4.55-6.31.11-7.12,2.06-13.66,4.15-19.67,1.02-2.94,1.49-5.92,1.73-8.68Z" style="fill: #1e120d;"/>
    <path d="m128.63,192.71c.36-.39.73-.78,1.12-1.14.51-.47,1.09-.83,1.7-1.18.66-.38,1.32-.75,1.98-1.12.89-.5,1.77-.99,2.64-1.51.11-.07.23-.17.35-.3l-.11-.06c-.66-.38-1.44-.96-1.65-2.18-.04-.23-.19-.97-.57-.97-.12,0-.37.05-.8.36-1.22.91-2.38,2.02-3.36,3.22-1.4,1.72-2.76,3.65-3.21,6.06-.06.32-.21.59-.38.83.33-.21.64-.42.92-.66.48-.4.9-.86,1.36-1.35" style="fill: #1e120d;"/>
    <path d="m147.54,182.8h.1c.4.05.48.07.74-.7.05-.13.09-.26.14-.39.13-.32.29-.6.45-.87l.09-.16c-.49-.13-.75-.58-.93-1.17-.63,1.21-1.44,2.79-2.16,4.43l-.1.23.18-.31c.22-.32.8-1.07,1.49-1.07" style="fill: #1e120d;"/>
    <path d="m31.78,126.14c-.13-2.29-.59-4.48-1.07-6.79-.32-1.54-.65-3.13-.88-4.76-.18.11-.35.22-.5.34-.54.42-1.07.85-1.6,1.28-.99.81-2.02,1.64-3.1,2.38-.89.6-1.4,1.3-1.66,2.26-.45,1.69-.48,3.46-.09,5.25.18.84.42,1.7.64,2.52.37,1.37.76,2.79.96,4.23.29,2.14.43,4.32.58,6.43.08,1.19.16,2.37.26,3.56.15,1.66.38,3.34.59,4.77.07.45.2.65.87.73,1.27.15,2.53.5,3.64,1.02,1.69.79,2.42,2.49,1.9,4.42-.51,1.9-1.71,3.41-3.58,4.49-.79.46-.83.91-.75,1.32.06.34.12.68.18,1.02.22,1.31.46,2.66.89,3.88,1.7,4.76,3.56,9.56,5.36,14.21.94,2.44,1.73,4.65,1.85,7.12l.45-2.21c.73-3.58,1.49-7.28,2.12-10.94.38-2.2.51-4.22.39-6.01-.09-1.29-.42-2.55-.77-3.89-.15-.56-.3-1.12-.42-1.68-.24-1.03-.48-2.06-.72-3.09-.48-2.01-.97-4.1-1.41-6.16-.19-.91-.33-1.83-.45-2.72-.13-.9-.26-1.82-.45-2.7-.14-.65-.35-1.29-.57-1.97-.29-.88-.59-1.79-.72-2.74-.13-.88-.26-1.76-.39-2.64-.62-4.22-1.27-8.59-1.52-12.92Z" style="fill: #1e120d;"/>
    <path d="m27.9,96.45c-.88-1.21-1.2-2.57-1.51-3.88-.15-.62-.29-1.2-.48-1.77l-.07-.19c-.66-1.94-1.35-3.95-2.13-5.87-.22-.55-.33-.69-.37-.72-.1.02-.58.24-.73.32-1.78.83-3.08,1.61-4.22,2.53l-1.08.87c-3.76,3.06-7.65,6.22-12.2,8.34-1.07.5-2.09.84-3.08,1.06C.7,104.24,0,111.56,0,119.06,0,123.04.2,126.98.58,130.87c1.48-.56,3.01-1.14,4.48-1.77,3.66-1.57,7.87-3.58,11.38-6.58.52-.45.99-.98,1.48-1.54.33-.37.66-.75,1-1.1l.74-.76c.92-.95,1.87-1.92,2.91-2.78.91-.74,1.87-1.43,2.8-2.09.86-.61,1.75-1.25,2.57-1.91,2.15-1.73,2.76-3.79,1.89-6.31-.49-1.42-.82-2.9-1.14-4.32l-.04-.16c-.13-.6-.16-1.29-.08-2.05.13-1.25-.09-2.22-.68-3.04Z" style="fill: #1e120d;"/>
    <path d="m4.36,92.93c2.17-1.31,4.21-2.83,6.29-4.4,1.07-.81,2.13-1.67,3.16-2.5,1.45-1.17,2.95-2.39,4.5-3.49,1.44-1.02,3.17-1.67,4.69-2.24.7-.26.69-.51.67-.74-.07-1.11-.18-2.24-.3-3.43-.02-.21-.04-.41-.06-.62-.44.18-.8.33-1.14.51-2.3,1.23-4.6,2.47-6.9,3.7-2.63,1.41-5.27,2.83-7.91,4.24-.65.35-1.33.65-1.98.94-.16.07-.32.14-.48.22-.83,2.81-1.57,5.67-2.2,8.56.57-.19,1.12-.43,1.64-.75Z" style="fill: #1e120d;"/>
    <path d="m43.44,136.33l.29-.28s.02-.07.06-.27c.13-.68.26-1.36.39-2.04.38-1.97.78-4.01,1.08-6.02.11-.72.02-1.5-.06-2.31-.02-.17-.04-.35-.05-.52-.51.55-1,1.11-1.49,1.68l-.45.52c-1.8,2.07-4.51,2.39-6.66.76-.57-.44-1.05-.97-1.51-1.48-.26-.29-.52-.58-.79-.85l-.19-.14-.07.14c-.03.65.02,1.38.15,2.16.28,1.72.71,3.46,1.12,5.14.28,1.16.57,2.34.82,3.54.08-.11.18-.21.3-.29.3-.22.37-.49.48-1,.04-.16.07-.32.12-.49l.04-.13c.21-.73.43-1.48.8-2.18.58-1.1,1.48-1.73,2.45-1.73s1.82.57,2.46,1.6c.7,1.12.9,2.38.63,3.95l.07.25Z" style="fill: #1e120d;"/>
    <path d="m36.77,138.41c-.12-.03-.23-.08-.33-.15.14.89.25,1.79.3,2.7.14,2.33.54,4.71.92,7,.05.3.1.59.15.89v-.09c.23-2.41.46-4.91.6-7.36.09-1.74-.38-2.6-1.65-2.99Z" style="fill: #1e120d;"/>
    <path d="m33.46,191.78c-.3-4.61-1.11-8.35-2.56-11.75-2.07-4.83-3.9-9.69-5.58-14.21-.97-2.62-1.19-5.13-.66-7.47.38-1.66,1.31-3.08,2.76-4.22.3-.24.6-.58.91-1.05l-.41-.02c-.6-.03-1.2-.06-1.8-.12-1.86-.18-2.54-.81-2.81-2.58-.18-1.16-.28-2.45-.32-4.05-.09-3.25-.58-6.45-1.48-9.78-.54-1.99-.75-4.07-.95-6.08-.09-.94-.19-1.89-.32-2.83l-.03-.19c-.11-.8-.22-1.62-.45-2.36-.04-.15-.08-.24-.11-.29-.07.02-.18.07-.36.19-1,.63-2,1.26-2.99,1.89-2.33,1.48-4.74,3.01-7.18,4.41-2.35,1.35-5,2.21-8.2,2.67,3.27,26.21,15.07,49.78,32.52,67.84.17-3.31.23-6.65.02-10.01Z" style="fill: #1e120d;"/>
    <path d="m45.28,110.21c-.1.14-.2.28-.31.43-.34.47-.68.94-1.01,1.42-.81,1.15-1.65,2.34-2.57,3.45-1.09,1.32-2.7,1.81-4.26,1.29-.95-.32-1.89-.69-2.87-1.09-.24-.1-.48-.19-.72-.29-.05.15-.09.31-.07.4.3,1.66.68,3.34,1.05,4.97l.27,1.2h0l.07.06c.39.37.78.73,1.17,1.09.74.69,1.48,1.38,2.2,2.1.67.67,1.03.75,1.25.75.3,0,.66-.18,1.12-.54,3.23-2.56,4.83-5.35,5.02-8.79.12-2.2-.08-4.41-.33-6.45Z" style="fill: #1e120d;"/>
  </g>
</svg>