{
	"asset":{
		"generator":"Khronos glTF Blender I/O v3.5.30",
		"version":"2.0"
	},
	"extensionsUsed":[
		"KHR_materials_transmission",
		"KHR_materials_clearcoat",
		"KHR_materials_ior"
	],
	"scene":0,
	"scenes":[
		{
			"name":"Scene",
			"nodes":[
				10,
				11,
				12,
				13,
				14
			]
		}
	],
	"nodes":[
		{
			"mesh":0,
			"name":"bottomceramic_default4"
		},
		{
			"mesh":1,
			"name":"bulb_default8"
		},
		{
			"mesh":2,
			"name":"contact_default3"
		},
		{
			"mesh":3,
			"name":"screwcap_default9"
		},
		{
			"children":[
				0,
				1,
				2,
				3
			],
			"name":"bulb.001",
			"scale":[
				174.1572265625,
				205.73635864257812,
				174.1572265625
			],
			"translation":[
				-95.95091247558594,
				129.97634887695312,
				101.93378448486328
			]
		},
		{
			"name":"Default Ambient Light",
			"translation":[
				0,
				1,
				-1.52587890625e-05
			]
		},
		{
			"mesh":4,
			"name":"Cube 38",
			"rotation":[
				0.39450258016586304,
				-0.6608824729919434,
				0.4540870487689972,
				0.4487839937210083
			],
			"translation":[
				109.65410614013672,
				220.9434814453125,
				56.61104202270508
			]
		},
		{
			"mesh":5,
			"name":"Cube 38.001",
			"rotation":[
				0.5783027410507202,
				0.3797111213207245,
				-0.4214508831501007,
				0.5863144993782043
			],
			"translation":[
				-45.789241790771484,
				260.0411071777344,
				-10.456034660339355
			]
		},
		{
			"children":[
				6,
				7
			],
			"name":"Plant Tall",
			"scale":[
				1.0443373918533325,
				1.440000057220459,
				1.0443373918533325
			],
			"translation":[
				-108.267578125,
				-191.17825317382812,
				97.60577392578125
			]
		},
		{
			"children":[
				4,
				5,
				8
			],
			"name":"Scene 1",
			"translation":[
				0,
				0,
				-1.52587890625e-05
			]
		},
		{
			"children":[
				9
			],
			"name":"Node_0",
			"scale":[
				0.009999999776482582,
				0.009999999776482582,
				0.009999999776482582
			],
			"translation":[
				0.9257887601852417,
				0,
				-0.9969412088394165
			]
		},
		{
			"mesh":6,
			"name":"Plane",
			"scale":[
				0.5896685719490051,
				0.5896685719490051,
				0.5896685719490051
			],
			"translation":[
				-0.04433651268482208,
				-0.2924463450908661,
				0.01778101921081543
			]
		},
		{
			"mesh":7,
			"name":"Icosphere",
			"scale":[
				0.06457789242267609,
				0.06457789242267609,
				0.06457789242267609
			],
			"translation":[
				0.02646563947200775,
				-0.229514941573143,
				0.08791792392730713
			]
		},
		{
			"mesh":8,
			"name":"Icosphere.001",
			"scale":[
				0.06457789242267609,
				0.06457789242267609,
				0.06457789242267609
			],
			"translation":[
				0.004580304026603699,
				-0.2506382465362549,
				0.15370118618011475
			]
		},
		{
			"mesh":9,
			"name":"Icosphere.002",
			"scale":[
				0.06457789242267609,
				0.06457789242267609,
				0.06457789242267609
			],
			"translation":[
				-0.31466758251190186,
				-0.282118558883667,
				-0.23754405975341797
			]
		}
	],
	"materials":[
		{
			"doubleSided":true,
			"name":"bombilla-3",
			"pbrMetallicRoughness":{
				"baseColorFactor":[
					0.0732337087392807,
					0.0732337087392807,
					0.0732337087392807,
					1
				],
				"roughnessFactor":0.5
			}
		},
		{
			"alphaMode":"BLEND",
			"doubleSided":true,
			"extensions":{
				"KHR_materials_transmission":{
					"transmissionFactor":0.9373094439506531
				}
			},
			"name":"bombilla",
			"pbrMetallicRoughness":{
				"baseColorFactor":[
					1,
					1,
					1,
					0.25
				],
				"metallicFactor":0.6297637224197388,
				"roughnessFactor":0
			}
		},
		{
			"doubleSided":true,
			"extensions":{
				"KHR_materials_clearcoat":{
					"clearcoatFactor":0.036363635212183,
					"clearcoatRoughnessFactor":0.029999999329447746
				},
				"KHR_materials_transmission":{
					"transmissionFactor":0.03181818127632141
				},
				"KHR_materials_ior":{
					"ior":1.4500000476837158
				}
			},
			"name":"bombilla-2",
			"pbrMetallicRoughness":{
				"baseColorFactor":[
					0.39564141631126404,
					0.46840736269950867,
					0.49652397632598877,
					1
				],
				"roughnessFactor":0.1772727221250534
			}
		},
		{
			"doubleSided":true,
			"extensions":{
				"KHR_materials_transmission":{
					"transmissionFactor":0.5409089922904968
				},
				"KHR_materials_ior":{
					"ior":1.4500000476837158
				}
			},
			"name":"planta",
			"pbrMetallicRoughness":{
				"baseColorFactor":[
					0.15592621266841888,
					0.3563999533653259,
					0.06847827136516571,
					1
				],
				"metallicFactor":0,
				"roughnessFactor":0.36818182468414307
			}
		},
		{
			"doubleSided":true,
			"name":"Tierra",
			"pbrMetallicRoughness":{
				"baseColorFactor":[
					0.12477179616689682,
					0.04518617317080498,
					0.024157637730240822,
					1
				],
				"metallicFactor":0,
				"roughnessFactor":0.5
			}
		}
	],
	"meshes":[
		{
			"name":"Mesh_5",
			"primitives":[
				{
					"attributes":{
						"POSITION":0,
						"NORMAL":1
					},
					"indices":2,
					"material":0
				}
			]
		},
		{
			"name":"Mesh_4",
			"primitives":[
				{
					"attributes":{
						"POSITION":3,
						"NORMAL":4
					},
					"indices":5,
					"material":1
				}
			]
		},
		{
			"name":"Mesh_6",
			"primitives":[
				{
					"attributes":{
						"POSITION":6,
						"NORMAL":7
					},
					"indices":8,
					"material":2
				}
			]
		},
		{
			"name":"Mesh_3",
			"primitives":[
				{
					"attributes":{
						"POSITION":9,
						"TEXCOORD_0":10,
						"NORMAL":11
					},
					"indices":12,
					"material":2
				}
			]
		},
		{
			"name":"Mesh_1",
			"primitives":[
				{
					"attributes":{
						"POSITION":13,
						"NORMAL":14
					},
					"indices":15,
					"material":3
				}
			]
		},
		{
			"name":"Mesh_2",
			"primitives":[
				{
					"attributes":{
						"POSITION":16,
						"NORMAL":17
					},
					"indices":18,
					"material":3
				}
			]
		},
		{
			"name":"Plane",
			"primitives":[
				{
					"attributes":{
						"POSITION":19,
						"TEXCOORD_0":20,
						"NORMAL":21
					},
					"indices":22,
					"material":4
				}
			]
		},
		{
			"name":"Icosphere",
			"primitives":[
				{
					"attributes":{
						"POSITION":23,
						"TEXCOORD_0":24,
						"NORMAL":25
					},
					"indices":26
				}
			]
		},
		{
			"name":"Icosphere.001",
			"primitives":[
				{
					"attributes":{
						"POSITION":27,
						"TEXCOORD_0":28,
						"NORMAL":29
					},
					"indices":26
				}
			]
		},
		{
			"name":"Icosphere.002",
			"primitives":[
				{
					"attributes":{
						"POSITION":30,
						"TEXCOORD_0":31,
						"NORMAL":32
					},
					"indices":26
				}
			]
		}
	],
	"accessors":[
		{
			"bufferView":0,
			"componentType":5126,
			"count":948,
			"max":[
				0.18770669400691986,
				-1.3576598167419434,
				0.18770669400691986
			],
			"min":[
				-0.18770669400691986,
				-1.4512922763824463,
				-0.18770669400691986
			],
			"type":"VEC3"
		},
		{
			"bufferView":1,
			"componentType":5126,
			"count":948,
			"type":"VEC3"
		},
		{
			"bufferView":2,
			"componentType":5123,
			"count":948,
			"type":"SCALAR"
		},
		{
			"bufferView":3,
			"componentType":5126,
			"count":6138,
			"max":[
				0.6599199771881104,
				0.8867684006690979,
				0.6599199771881104
			],
			"min":[
				-0.6599199771881104,
				-0.8125070333480835,
				-0.6599199771881104
			],
			"type":"VEC3"
		},
		{
			"bufferView":4,
			"componentType":5126,
			"count":6138,
			"type":"VEC3"
		},
		{
			"bufferView":5,
			"componentType":5123,
			"count":6138,
			"type":"SCALAR"
		},
		{
			"bufferView":6,
			"componentType":5126,
			"count":564,
			"max":[
				0.05738119035959244,
				-1.4512922763824463,
				0.05738119035959244
			],
			"min":[
				-0.05738119035959244,
				-1.4660007953643799,
				-0.05738119035959244
			],
			"type":"VEC3"
		},
		{
			"bufferView":7,
			"componentType":5126,
			"count":564,
			"type":"VEC3"
		},
		{
			"bufferView":8,
			"componentType":5123,
			"count":564,
			"type":"SCALAR"
		},
		{
			"bufferView":9,
			"componentType":5126,
			"count":123684,
			"max":[
				0.3230670690536499,
				-0.7616431713104248,
				0.32503560185432434
			],
			"min":[
				-0.3304101824760437,
				-1.3576598167419434,
				-0.32759684324264526
			],
			"type":"VEC3"
		},
		{
			"bufferView":10,
			"componentType":5126,
			"count":123684,
			"type":"VEC2"
		},
		{
			"bufferView":11,
			"componentType":5126,
			"count":123684,
			"type":"VEC3"
		},
		{
			"bufferView":12,
			"componentType":5125,
			"count":123684,
			"type":"SCALAR"
		},
		{
			"bufferView":13,
			"componentType":5126,
			"count":2176,
			"max":[
				28.87494659423828,
				110.00914001464844,
				88.92082214355469
			],
			"min":[
				-70.51668548583984,
				9.775136947631836,
				-1.1472443342208862
			],
			"type":"VEC3"
		},
		{
			"bufferView":14,
			"componentType":5126,
			"count":2176,
			"type":"VEC3"
		},
		{
			"bufferView":15,
			"componentType":5123,
			"count":3264,
			"type":"SCALAR"
		},
		{
			"bufferView":16,
			"componentType":5126,
			"count":4224,
			"max":[
				46.99000549316406,
				77.6644515991211,
				147.54727172851562
			],
			"min":[
				-46.880126953125,
				-45.9360237121582,
				-37.19109344482422
			],
			"type":"VEC3"
		},
		{
			"bufferView":17,
			"componentType":5126,
			"count":4224,
			"type":"VEC3"
		},
		{
			"bufferView":18,
			"componentType":5123,
			"count":6336,
			"type":"SCALAR"
		},
		{
			"bufferView":19,
			"componentType":5126,
			"count":25,
			"max":[
				0.9166667461395264,
				0.19948668777942657,
				0.9166667461395264
			],
			"min":[
				-0.9166667461395264,
				0.0021803081035614014,
				-0.9166667461395264
			],
			"type":"VEC3"
		},
		{
			"bufferView":20,
			"componentType":5126,
			"count":25,
			"type":"VEC2"
		},
		{
			"bufferView":21,
			"componentType":5126,
			"count":25,
			"type":"VEC3"
		},
		{
			"bufferView":22,
			"componentType":5123,
			"count":96,
			"type":"SCALAR"
		},
		{
			"bufferView":23,
			"componentType":5126,
			"count":240,
			"max":[
				0.9510578513145447,
				1,
				0.9999999403953552
			],
			"min":[
				-0.9510578513145447,
				-1,
				-0.9999999403953552
			],
			"type":"VEC3"
		},
		{
			"bufferView":24,
			"componentType":5126,
			"count":240,
			"type":"VEC2"
		},
		{
			"bufferView":25,
			"componentType":5126,
			"count":240,
			"type":"VEC3"
		},
		{
			"bufferView":26,
			"componentType":5123,
			"count":240,
			"type":"SCALAR"
		},
		{
			"bufferView":27,
			"componentType":5126,
			"count":240,
			"max":[
				0.9510578513145447,
				1,
				0.9999999403953552
			],
			"min":[
				-0.9510578513145447,
				-1,
				-0.9999999403953552
			],
			"type":"VEC3"
		},
		{
			"bufferView":28,
			"componentType":5126,
			"count":240,
			"type":"VEC2"
		},
		{
			"bufferView":29,
			"componentType":5126,
			"count":240,
			"type":"VEC3"
		},
		{
			"bufferView":30,
			"componentType":5126,
			"count":240,
			"max":[
				0.9510578513145447,
				1,
				0.9999999403953552
			],
			"min":[
				-0.9510578513145447,
				-1,
				-0.9999999403953552
			],
			"type":"VEC3"
		},
		{
			"bufferView":31,
			"componentType":5126,
			"count":240,
			"type":"VEC2"
		},
		{
			"bufferView":32,
			"componentType":5126,
			"count":240,
			"type":"VEC3"
		}
	],
	"bufferViews":[
		{
			"buffer":0,
			"byteLength":11376,
			"byteOffset":0,
			"target":34962
		},
		{
			"buffer":0,
			"byteLength":11376,
			"byteOffset":11376,
			"target":34962
		},
		{
			"buffer":0,
			"byteLength":1896,
			"byteOffset":22752,
			"target":34963
		},
		{
			"buffer":0,
			"byteLength":73656,
			"byteOffset":24648,
			"target":34962
		},
		{
			"buffer":0,
			"byteLength":73656,
			"byteOffset":98304,
			"target":34962
		},
		{
			"buffer":0,
			"byteLength":12276,
			"byteOffset":171960,
			"target":34963
		},
		{
			"buffer":0,
			"byteLength":6768,
			"byteOffset":184236,
			"target":34962
		},
		{
			"buffer":0,
			"byteLength":6768,
			"byteOffset":191004,
			"target":34962
		},
		{
			"buffer":0,
			"byteLength":1128,
			"byteOffset":197772,
			"target":34963
		},
		{
			"buffer":0,
			"byteLength":1484208,
			"byteOffset":198900,
			"target":34962
		},
		{
			"buffer":0,
			"byteLength":989472,
			"byteOffset":1683108,
			"target":34962
		},
		{
			"buffer":0,
			"byteLength":1484208,
			"byteOffset":2672580,
			"target":34962
		},
		{
			"buffer":0,
			"byteLength":494736,
			"byteOffset":4156788,
			"target":34963
		},
		{
			"buffer":0,
			"byteLength":26112,
			"byteOffset":4651524,
			"target":34962
		},
		{
			"buffer":0,
			"byteLength":26112,
			"byteOffset":4677636,
			"target":34962
		},
		{
			"buffer":0,
			"byteLength":6528,
			"byteOffset":4703748,
			"target":34963
		},
		{
			"buffer":0,
			"byteLength":50688,
			"byteOffset":4710276,
			"target":34962
		},
		{
			"buffer":0,
			"byteLength":50688,
			"byteOffset":4760964,
			"target":34962
		},
		{
			"buffer":0,
			"byteLength":12672,
			"byteOffset":4811652,
			"target":34963
		},
		{
			"buffer":0,
			"byteLength":300,
			"byteOffset":4824324,
			"target":34962
		},
		{
			"buffer":0,
			"byteLength":200,
			"byteOffset":4824624,
			"target":34962
		},
		{
			"buffer":0,
			"byteLength":300,
			"byteOffset":4824824,
			"target":34962
		},
		{
			"buffer":0,
			"byteLength":192,
			"byteOffset":4825124,
			"target":34963
		},
		{
			"buffer":0,
			"byteLength":2880,
			"byteOffset":4825316,
			"target":34962
		},
		{
			"buffer":0,
			"byteLength":1920,
			"byteOffset":4828196,
			"target":34962
		},
		{
			"buffer":0,
			"byteLength":2880,
			"byteOffset":4830116,
			"target":34962
		},
		{
			"buffer":0,
			"byteLength":480,
			"byteOffset":4832996,
			"target":34963
		},
		{
			"buffer":0,
			"byteLength":2880,
			"byteOffset":4833476,
			"target":34962
		},
		{
			"buffer":0,
			"byteLength":1920,
			"byteOffset":4836356,
			"target":34962
		},
		{
			"buffer":0,
			"byteLength":2880,
			"byteOffset":4838276,
			"target":34962
		},
		{
			"buffer":0,
			"byteLength":2880,
			"byteOffset":4841156,
			"target":34962
		},
		{
			"buffer":0,
			"byteLength":1920,
			"byteOffset":4844036,
			"target":34962
		},
		{
			"buffer":0,
			"byteLength":2880,
			"byteOffset":4845956,
			"target":34962
		}
	],
	"buffers":[
		{
			"byteLength":4848836,
			"uri":"bombilla.bin"
		}
	]
}
