<svg
      xmlns="http://www.w3.org/2000/svg"
      viewBox="0 0 245.8 207.11541"
      enableBackground="new 0 0 640 480"
      xmlSpace="preserve"
    >
      <defs id="defs13" />

      <g id="libro" fill="white" transform="translate(0,-2.0036762)">
        <path
          d="m 54.7,196.68064 c 16,0 31.9,0.1 47.9,0 5.2,0 9.7,1.2 13.8,4.6 4.7,3.9 7.7,4.1 12.5,0.3 4.7,-3.7 9.8,-4.9 15.8,-4.9 31.6,0.1 63.2,0.1 94.8,0.1 1.2,0 2.3,0 3.5,0 1.7,-0.1 2.8,0.3 2.8,2.4 -0.1,2.1 -1.3,2.4 -2.9,2.4 -8.5,0 -17,0 -25.4,0 -24.1,0 -48.2,0.1 -72.3,-0.1 -5.2,0 -9.6,1.1 -13.8,4.4 -5.6,4.4 -11.3,4.3 -16.9,-0.2 -3.9,-3.2 -8.1,-4.1 -12.9,-4.1 -31.6,0.1 -63.2,0.1 -94.8,0.1 -1.2,0 -2.3,0 -3.5,0 -1.8,0 -3.3,0 -3.3,-2.5 0.1,-2.7 1.9,-2.2 3.5,-2.2 11.1,0 22.3,0 33.4,0 5.8,-0.3 11.8,-0.3 17.8,-0.3 z"
          id="inferior"
        />
        <path
          d="m 14.5,188.78064 c 28.1,-6.1 56.2,-10.3 84.8,-4.3 7.9,1.7 15.3,4.5 21.7,9.5 1.5,1.2 2.6,1.4 4.3,0.3 13.2,-8.8 28.1,-11.6 43.5,-12.5 21.5,-1.3 42.7,1.2 63.5,7 -7.7,-0.9 -15.4,-1.9 -23.1,-2.5 -21.8,-1.9 -43.5,-2.1 -64.7,4.3 -6.4,1.9 -12.5,4.5 -17.8,8.7 -2.2,1.7 -4.4,2.2 -6.7,0.2 -9.7,-8.6 -21.7,-11.2 -34,-12.6 -21.9,-2.6 -43.8,-1.1 -65.6,1.7 -1.9,0.1 -3.9,0.1 -5.9,0.2 z"
          id="medio"
        />
        <path
          d="m 14.2,179.68064 c 29.9,-6.3 59.8,-11 90.1,-3.2 6.2,1.6 11.8,4.3 16.9,8.2 1.5,1.2 2.6,1.4 4.3,0.2 11.6,-7.8 24.9,-11.1 38.5,-12 23.3,-1.6 46.4,0 69,6.7 -7.4,-0.9 -14.8,-1.9 -22.2,-2.6 -22.6,-2.1 -45.1,-2.3 -67.1,4.5 -5.9,1.8 -11.5,4.3 -16.4,8.1 -3,2.3 -5.2,2.1 -8.3,-0.4 -9.3,-7.8 -20.7,-10.3 -32.3,-11.6 -22.4,-2.5 -44.8,-1.2 -67.1,1.7 -1.8,0.3 -3.6,0.3 -5.4,0.4 z"
          id="superior"
        />
      </g>

      <g id="bombilla-cabeza" transform="translate(0,-2.0036762)">
        <path
        fill="#80cd26"
          id="derecha"
          d="m 123.34375,2.01619 v 56.84765 l 1.15625,1.11719 2.69922,-2.80078 c 1.5,-1.6 3.40078,-3.19922 4.30078,-3.69922 1.1,-0.6 0.90078,-0.1 -0.69922,1.5 -4.09999,4.1 -5.30078,6.79883 -5.30078,11.79883 v 4.60156 l 2.59961,-2.40039 c 1.4,-1.3 2.90117,-2.40039 3.20117,-2.40039 0.3,0 0.59961,-1.6 0.59961,-3.5 0,-4.5 1.9004,-7.00039 7.40039,-9.40039 5.3,-2.3 15.10001,-2.99961 21.5,-1.59961 2.5,0.6 4.79922,1.20039 5.19922,1.40039 0.4,0.2 -0.90078,1.39961 -2.80078,2.59961 -4.1,2.7 -5.59844,4.30079 -9.89844,10.80078 -5.29999,8.19999 -10.2,10.39961 -15.5,7.09961 -3.3,-2.1 -4.70039,-4.60117 -3.40039,-6.20117 1.6,-2 11.49922,-8.19844 15.69922,-9.89844 2.2,-0.9 4.70117,-2.20117 4.20117,-2.20117 -1.2,0 -7.4,2.50117 -11.5,4.70117 -4.89999,2.7 -12,8.29961 -14.5,11.59961 l -2.30078,3 2.09961,7.90039 c 2.1,7.79999 2.10039,8.09884 0.90039,14.29883 -1.6,8.29999 -1.50078,11.9 0.19922,14 1.3,1.6 2.0004,2.40039 9.90039,2.40039 h 8.20117 l 0.69922,-5 c 0.8,-5.89999 4.39962,-12.6008 14.59961,-27.80078 5.09999,-7.59999 9.90117,-15.7 10.70117,-18 1.8,-5.2 1.7,-15.29962 0,-22.09961 C 168.80079,23.18027 155.19959,9.27985 137.09961,3.77986 133.611,2.69888 128.47874,2.10772 123.34375,2.01619 Z"
        />
        <path
          id="izquierda"
          d="m 123.34375,2.01619 c -5.31569,-0.0948 -10.63488,0.34794 -14.14453,1.36523 -22.39998,6.39999 -38.09961,26.39924 -38.09961,48.69922 0,4.6 0.49961,7.80078 1.59961,10.80078 1.6,4.1 3.2004,6.69845 13.90039,21.39844 5.99999,8.29999 9.30078,15.00118 10.80078,22.20117 0.6,3.2 1.39961,6.1 1.59961,6.5 l 0.19922,0.59961 c 5.89999,0 10.30118,-0.19961 15.20117,-0.0996 l 3.09961,-5 c 1.9,-2.7 3.49922,-5.10039 4.69922,-7.40039 l 0.70117,-1.30078 c 0.16886,-0.36411 0.2922,-0.71268 0.44336,-1.07031 V 76.32088 c -1.05137,-4.22287 -1.30151,-6.83779 -0.94336,-10.24023 l 0.5,-4.90039 -5.09961,-4.90039 c -5.39999,-5.3 -11.10157,-8.79961 -18.60156,-11.59961 -7.09999,-2.7 -6.59921,-2.19882 2.30078,2.20117 4.5,2.2 9.50078,5.29883 11.30078,6.79883 3.2,2.8 3.19883,2.80039 1.79883,4.90039 -2,3.1 -5.80039,4.89922 -8.90039,4.19922 -4,-0.9 -5.99922,-2.49884 -9.69922,-8.29883 -3.6,-5.7 -8.79922,-11.0004 -11.69922,-11.9004 -0.9,-0.3 -1.50078,-0.89922 -1.30078,-1.19922 0.8,-1.3 10.3004,-2.60117 16.40039,-2.20117 12.19999,0.9 18,4.69962 18,11.59961 0,2 0.29922,3.60156 0.69922,3.60156 0.3,0 1.9,1.29883 3.5,2.79883 l 1.74414,1.68359 z"
          fill="#3eb93b"
        />
        <path
          fill="#80cd26"
          id="derecha-extra"
          d="m 123.34375,76.32087 v 22.38868 c 2.71335,-6.41965 2.62882,-11.931 0.35547,-20.92969 -0.14647,-0.54403 -0.23262,-0.96556 -0.35547,-1.45899 z"
        />
      </g>

      <g
        id="hoja-blanca"
        fill="#ffff"
        transform="translate(0,-2.0036762)"
      >
        <path
        strokeWidth="0.0860215"
          d="m 122.32228,68.365592 c -1.7e-4,-0.63749 0.12905,-2.373689 0.30858,-4.146057 l 0.30887,-3.049283 -0.84621,-0.823432 c -4.36712,-4.249565 -6.48578,-6.217061 -8.029,-7.456127 -4.61949,-3.709038 -9.03986,-6.097362 -16.218126,-8.76265 -2.707332,-1.005232 -3.618871,-1.277878 -3.550081,-1.061848 0.06614,0.207694 1.331876,0.902625 5.015515,2.753675 4.194622,2.107819 5.969222,3.061331 8.327152,4.47426 2.88049,1.726058 4.44646,2.810849 5.8664,4.06382 1.455,1.283914 1.93548,1.890136 1.93548,2.442014 0,0.555024 -1.06123,2.192317 -2.10753,3.251559 -0.86385,0.874538 -1.5713,1.38662 -2.66666,1.930258 -1.77406,0.880475 -3.65173,1.111168 -5.37635,0.660546 -1.91142,-0.499432 -3.20927,-1.139647 -4.50952,-2.224507 -1.377504,-1.149315 -2.392231,-2.420573 -4.683224,-5.867182 -1.602838,-2.411337 -2.300504,-3.369323 -3.702667,-5.084239 -1.108418,-1.355652 -3.454409,-3.778133 -4.566952,-4.715855 -1.082187,-0.912136 -2.462744,-1.809884 -3.21742,-2.092222 -1.08926,-0.407512 -1.672595,-0.874044 -1.555232,-1.243823 0.12778,-0.402598 1.842488,-0.978346 4.213512,-1.414771 5.420995,-0.99782 11.899213,-1.077613 16.979263,-0.209135 5.94053,1.015584 9.75708,2.938742 11.69738,5.894302 0.91637,1.395864 1.28153,2.714739 1.39125,5.024782 0.0438,0.922581 0.10149,1.832259 0.12816,2.021506 0.14143,1.003694 0.37774,1.677419 0.58836,1.677419 0.36206,0 2.17179,1.521602 4.68723,3.940971 l 1.75121,1.684331 2.24879,-2.28493 c 2.65047,-2.693069 3.81557,-3.712525 4.90097,-4.288328 0.85715,-0.454716 0.5744,-0.01938 -1.15703,1.781465 -3.00646,3.126979 -4.26257,5.276486 -4.76598,8.155739 -0.15571,0.890614 -0.29383,3.161351 -0.29693,4.88172 l -0.002,1.182796 h -1.54839 -1.54839 z"
          id="path10"
        />
        <path
          strokeWidth="0.0860215"
          d="m 124.34985,96.086324 c 0.65676,-2.069523 0.97219,-3.99709 1.043,-6.373761 0.1015,-3.406567 -0.30696,-6.346639 -1.66009,-11.949122 -0.9992,-4.137087 -1.41018,-6.424582 -1.41018,-7.848935 v -0.45214 h 1.54839 1.54839 v 0.931899 c 0,0.512545 0.0238,0.95569 0.0529,0.984768 0.0291,0.02908 0.73703,-0.58154 1.57323,-1.356928 0.8362,-0.775387 1.82854,-1.66674 2.2052,-1.980782 0.78952,-0.658268 1.89367,-1.417667 2.06127,-1.417667 0.14182,0 0.35309,-0.561043 0.47128,-1.251525 0.049,-0.286189 0.12544,-1.33135 0.16988,-2.322581 0.0652,-1.455108 0.12239,-1.96467 0.29664,-2.645555 0.67092,-2.621558 2.30211,-4.322833 5.8265,-6.076832 2.03827,-1.014396 3.72098,-1.57452 6.19219,-2.061197 3.18295,-0.626846 5.21426,-0.812779 8.89288,-0.813995 4.17163,-0.0014 5.85682,0.201118 9.54839,1.147373 2.38271,0.610757 3.24431,0.875542 3.28943,1.010895 0.0906,0.271881 -1.14083,1.315376 -3.07438,2.605117 -3.79188,2.529313 -5.30148,4.165793 -9.24422,10.021203 -1.74236,2.587607 -2.60575,3.747259 -3.68257,4.946237 -2.08268,2.318944 -4.13983,3.664685 -6.25432,4.091438 -0.92549,0.186785 -2.33511,0.128365 -3.2705,-0.135544 -2.37094,-0.668928 -5.24636,-2.831738 -6.10984,-4.595647 -0.39216,-0.801114 -0.47906,-1.376432 -0.30062,-1.99025 0.12517,-0.430556 0.24106,-0.59711 0.80522,-1.157149 1.55847,-1.547107 6.70133,-4.97149 11.20493,-7.460816 1.70028,-0.939813 2.54868,-1.359577 4.12074,-2.038825 2.41228,-1.042283 4.21505,-1.981597 4.21505,-2.1962 0,-0.572885 -7.81246,2.550109 -11.6129,4.642201 -4.13767,2.277733 -10.0181,6.755307 -13.07273,9.954043 -1.01969,1.067805 -3.74167,4.540791 -3.72511,4.752897 0.006,0.07362 0.67471,2.630626 1.48659,5.682239 1.88292,7.077386 2.09276,7.990819 2.22506,9.686035 0.099,1.268366 -0.0127,2.672524 -0.37425,4.706882 -0.16665,0.937609 -0.303,1.740835 -0.303,1.784946 0,0.04774 -1.0057,0.0802 -2.48448,0.0802 h -2.48447 z"
          id="path11"
        />
        <path
          id="path14"
          strokeWidth="0.0304132"
          d="m 129.00977,96.960938 c -0.007,-0.0066 -0.27204,-5.1e-4 -0.58985,0.01367 -0.31782,0.0142 -1.42942,0.02659 -2.4707,0.02734 -1.49431,0.0011 -1.89353,-0.0071 -1.89453,-0.03711 -7.7e-4,-0.02091 -0.068,0.139968 -0.14844,0.357422 -0.27536,0.744976 -0.86862,2.205727 -1.01172,2.490234 -0.0516,0.102633 -0.34072,0.644706 -0.64258,1.205076 -0.93504,1.73577 -1.60895,2.85286 -2.82031,4.67187 -0.57131,0.85791 -1.62795,2.40385 -1.86133,2.72266 -0.0319,0.0436 -0.75257,1.19853 -1.60156,2.56836 l -1.49023,2.4043 c 0.061,-0.002 0.12259,-0.003 0.18359,-0.004 0.34868,-0.004 0.69819,-0.005 1.04687,-0.006 0.39776,-10e-4 0.79567,-0.002 1.19336,0.006 0.38643,0.0133 0.77163,0.0301 1.15821,0.0391 0.47827,0.009 0.95719,0.0136 1.43554,0.0156 0.43124,0.002 0.86173,0.003 1.29297,0.004 0.33922,3.4e-4 0.67836,-8e-5 1.01758,0 0.34021,6e-5 0.68132,-1e-5 1.02148,0 0.49013,1e-5 0.98058,0 1.47071,0 h 1.34961 1.07617 1.01172 0.81445 c 0.14699,-0.007 0.29389,-0.0142 0.44141,-0.0195 0.21883,-0.007 0.43929,-0.0136 0.6582,-0.0176 0.21016,-0.003 0.41874,-0.003 0.62891,-0.004 0.25067,-5.6e-4 0.50128,7e-5 0.75195,0 0.33499,-8e-5 0.67086,1e-5 1.00586,0 0.30205,-1e-5 0.6042,0 0.90625,0 0.25841,-0.004 0.51697,-0.0126 0.77539,-0.0156 0.03,-3.2e-4 0.0599,-0.002 0.0898,-0.002 -1.75805,-0.19118 -2.79139,-0.51021 -3.51562,-1.05078 -0.43046,-0.3213 -1.09894,-1.07275 -1.44727,-1.62696 -0.4759,-0.75696 -0.76385,-1.65362 -0.91601,-2.85546 -0.0647,-0.51132 -0.0899,-2.16684 -0.0449,-2.91211 0.11342,-1.87871 0.42569,-4.15021 0.96679,-7.042968 0.0947,-0.505995 0.16521,-0.92506 0.15821,-0.93164 z m 22.04882,4.732422 c 0.0268,0.005 0.0534,0.0115 0.0801,0.0156 0.061,-0.002 0.2445,-0.004 0.1836,-0.008 -0.0878,-0.006 -0.17553,-0.008 -0.26368,-0.008 z m -49.82617,13.83594 c -0.0142,0.0116 -0.0284,0.0237 -0.041,0.0371 0.0225,-0.0111 0.0306,-0.0203 0.041,-0.0371 z"
        />
      </g>

      <g id="bombilla-tronco" fill="white" transform="translate(0,-2.0036762)">
        <path
          d="m 123.2,124.68064 c -8.8,0 -17.6,0 -26.4,0 -1.8,0 -3.6,0.1 -5.4,-0.7 -1.6,-0.8 -2.7,-1.9 -2.7,-3.8 0,-2.1 1.1,-3.6 3,-4.1 1.6,-0.4 3.3,-0.4 4.9,-0.4 17.6,0 35.2,0 52.8,0 0.8,0 1.7,0 2.5,0 2.9,0.1 5.6,1.2 5.6,4.4 0.1,3.2 -2.6,4.5 -5.5,4.6 -5,0.2 -10,0.1 -14.9,0.1 -4.6,-0.1 -9.3,-0.1 -13.9,-0.1 z"
          id="superior"
        />
        <path
          d="m 122.8,135.88064 c -9.1,0 -18.3,0 -27.4,0 -3.1,0 -6.5,-0.2 -6.6,-4.3 -0.1,-4.3 3.5,-4.8 6.7,-4.8 18.4,-0.1 36.8,-0.1 55.3,0 3.1,0 6.6,0.8 6.7,4.5 0.1,4.2 -3.5,4.6 -6.8,4.6 -9.3,0 -18.6,0 -27.9,0 z"
          id="superior-medio"
        />
        <path
          d="m 123,147.68064 c -9.1,0 -18.3,0 -27.4,0 -3.3,0 -6.8,-0.3 -6.7,-4.7 0.1,-4.1 3.4,-4.4 6.5,-4.4 18.4,0 36.8,0 55.3,0 3.4,0 7,0.6 6.8,4.6 -0.1,4 -3.8,4.4 -7.1,4.4 -9.2,0.1 -18.3,0.1 -27.4,0.1 z"
          id="inferior-medio"
        />
        <path
          d="m 142.7,150.78064 c -12.1,14 -24.3,14.6 -39,0 6.8,0 13,0 19.2,0 6.3,0 12.6,0 19.8,0 z"
          id="inferior"
        />
      </g>
    </svg>