<?xml version="1.0" encoding="UTF-8" standalone="no"?>
<!-- Created with Inkscape (http://www.inkscape.org/) -->

<svg
   width="60.56974mm"
   height="22.130934mm"
   viewBox="0 0 60.56974 22.130934"
   version="1.1"
   id="svg1"
   xml:space="preserve"
   inkscape:export-filename="logo-albaytar.svg"
   inkscape:export-xdpi="96"
   inkscape:export-ydpi="96"
   xmlns:inkscape="http://www.inkscape.org/namespaces/inkscape"
   xmlns:sodipodi="http://sodipodi.sourceforge.net/DTD/sodipodi-0.dtd"
   xmlns="http://www.w3.org/2000/svg"
   xmlns:svg="http://www.w3.org/2000/svg"><sodipodi:namedview
     id="namedview1"
     pagecolor="#505050"
     bordercolor="#eeeeee"
     borderopacity="1"
     inkscape:showpageshadow="0"
     inkscape:pageopacity="0"
     inkscape:pagecheckerboard="0"
     inkscape:deskcolor="#505050"
     inkscape:document-units="mm"
     inkscape:zoom="0.25"
     inkscape:cx="672"
     inkscape:cy="146"
     inkscape:window-width="1920"
     inkscape:window-height="991"
     inkscape:window-x="-9"
     inkscape:window-y="-9"
     inkscape:window-maximized="1"
     inkscape:current-layer="svg1" /><defs
     id="defs1"><inkscape:path-effect
       effect="fillet_chamfer"
       id="path-effect2"
       is_visible="true"
       lpeversion="1"
       nodesatellites_param="F,0,0,1,0,0,0,1 @ F,0,0,1,0,0,0,1 @ F,0,0,1,0,0,0,1 @ F,0,0,1,0,0,0,1 @ F,0,0,1,0,0,0,1 @ F,0,0,1,0,0,0,1 @ F,0,0,1,0,0,0,1 @ F,0,0,1,0,0,0,1 @ F,0,0,1,0,0,0,1 @ F,0,0,1,0,0,0,1 @ F,0,0,1,0,0,0,1 @ F,0,0,1,0,0,0,1 @ F,0,0,1,0,0,0,1 @ F,0,0,1,0,0,0,1 @ F,0,0,1,0,0,0,1 @ F,0,0,1,0,0,0,1 @ F,0,0,1,0,0,0,1 @ F,0,0,1,0,0,0,1 @ F,0,0,1,0,0,0,1 @ F,0,0,1,0,0,0,1 @ F,0,0,1,0,0,0,1 @ F,0,0,1,0,0,0,1 @ F,0,0,1,0,0,0,1 @ F,0,0,1,0,0,0,1 @ F,0,0,1,0,0,0,1 @ F,0,0,1,0,0,0,1 @ F,0,0,1,0,0,0,1 @ F,0,0,1,0,0,0,1 @ F,0,0,1,0,0,0,1 @ F,0,0,1,0,0,0,1 @ F,0,0,1,0,0,0,1 @ F,0,0,1,0,0,0,1 @ F,0,0,1,0,0,0,1 @ F,0,0,1,0,0,0,1 @ F,0,0,1,0,0,0,1 @ F,0,0,1,0,0,0,1 @ F,0,0,1,0,0,0,1 @ F,0,0,1,0,0,0,1 @ F,0,0,1,0,0,0,1 @ F,0,0,1,0,0,0,1 @ F,0,0,1,0,0,0,1 @ F,0,0,1,0,0,0,1 @ F,0,0,1,0,0,0,1 @ F,0,0,1,0,0,0,1 @ F,0,0,1,0,0,0,1 @ F,0,0,1,0,0,0,1 @ F,0,0,1,0,0,0,1 @ F,0,0,1,0,0,0,1 @ F,0,0,1,0,0,0,1 @ F,0,0,1,0,0,0,1 @ F,0,0,1,0,0,0,1 @ F,0,0,1,0,0,0,1 | F,0,0,1,0,0,0,1 @ F,0,0,1,0,0,0,1 @ F,0,0,1,0,0,0,1 @ F,0,0,1,0,0,0,1 @ F,0,0,1,0,0,0,1 @ F,0,0,1,0,0,0,1 @ F,0,0,1,0,0,0,1 @ F,0,0,1,0,0,0,1 | F,0,0,1,0,0,0,1 @ F,0,0,1,0,0,0,1 @ F,0,0,1,0,0,0,1 @ F,0,0,1,0,0,0,1 | F,0,0,1,0,0,0,1 @ F,0,0,1,0,0,0,1 @ F,0,0,1,0,0,0,1 @ F,0,0,1,0,0,0,1 @ F,0,0,1,0,0,0,1 @ F,0,0,1,0,0,0,1 | F,0,0,1,0,0,0,1 @ F,0,0,1,0,0,0,1 @ F,0,0,1,0,0,0,1 @ F,0,0,1,0,0,0,1 @ F,0,0,1,0,0,0,1 @ F,0,0,1,0,0,0,1 @ F,0,0,1,0,0,0,1 @ F,0,0,1,0,0,0,1 @ F,0,0,1,0,0,0,1 @ F,0,0,1,0,0,0,1 @ F,0,0,1,0,0,0,1 @ F,0,0,1,0,0,0,1 @ F,0,0,1,0,0,0,1 | F,0,0,1,0,0,0,1 @ F,0,0,1,0,0,0,1 @ F,0,0,1,0,0,0,1 @ F,0,0,1,0,0,0,1 | F,0,0,1,0,0,0,1 @ F,0,0,1,0,0,0,1 @ F,0,0,1,0,0,0,1 @ F,0,0,1,0,0,0,1 @ F,0,0,1,0,0,0,1 @ F,0,0,1,0,0,0,1 @ F,0,0,1,0,0,0,1 @ F,0,0,1,0,0,0,1 @ F,0,0,1,0,0,0,1 @ F,0,0,1,0,0,0,1 @ F,0,0,1,0,0,0,1 @ F,0,0,1,0,0,0,1 @ F,0,0,1,0,0,0,1 @ F,0,0,1,0,0,0,1 | F,0,0,1,0,0,0,1 @ F,0,0,1,0,0,0,1 @ F,0,0,1,0,0,0,1 @ F,0,0,1,0,0,0,1 @ F,0,0,1,0,0,0,1 @ F,0,0,1,0,0,0,1 @ F,0,0,1,0,0,0,1 @ F,0,0,1,0,0,0,1 @ F,0,0,1,0,0,0,1 @ F,0,0,1,0,0,0,1 @ F,0,0,1,0,0,0,1 @ F,0,0,1,0,0,0,1 | F,0,0,1,0,0,0,1 @ F,0,0,1,0,0,0,1 @ F,0,0,1,0,0,0,1 @ F,0,0,1,0,0,0,1 @ F,0,0,1,0,0,0,1 @ F,0,0,1,0,0,0,1 | F,0,0,1,0,0,0,1 @ F,0,0,1,0,0,0,1 @ F,0,0,1,0,0,0,1 @ F,0,0,1,0,0,0,1 @ F,0,0,1,0,0,0,1 @ F,0,0,1,0,0,0,1 | F,0,0,1,0,0,0,1 @ F,0,0,1,0,0,0,1 @ F,0,0,1,0,0,0,1 @ F,0,0,1,0,0,0,1 @ F,0,0,1,0,0,0,1 @ F,0,0,1,0,0,0,1 @ F,0,0,1,0,0,0,1 @ F,0,0,1,0,0,0,1 @ F,0,0,1,0,0,0,1 | F,0,0,1,0,0,0,1 @ F,0,0,1,0,0,0,1 @ F,0,0,1,0,0,0,1 @ F,0,0,1,0,0,0,1 @ F,0,0,1,0,0,0,1 | F,0,0,1,0,0,0,1 @ F,0,0,1,0,0,0,1 @ F,0,0,1,0,0,0,1 @ F,0,0,1,0,0,0,1 @ F,0,0,1,0,0,0,1 @ F,0,0,1,0,0,0,1 @ F,0,0,1,0,0,0,1 @ F,0,0,1,0,0,0,1 @ F,0,0,1,0,0,0,1 @ F,0,0,1,0,0,0,1 @ F,0,0,1,0,0,0,1 @ F,0,0,1,0,0,0,1 | F,0,0,1,0,0,0,1 @ F,0,0,1,0,0,0,1 @ F,0,0,1,0,0,0,1 @ F,0,0,1,0,0,0,1 @ F,0,0,1,0,0,0,1 @ F,0,0,1,0,0,0,1 | F,0,0,1,0,0,0,1 @ F,0,0,1,0,0,0,1 @ F,0,0,1,0,0,0,1 @ F,0,0,1,0,0,0,1 @ F,0,0,1,0,0,0,1 @ F,0,0,1,0,0,0,1 @ F,0,0,1,0,0,0,1 @ F,0,0,1,0,0,0,1 @ F,0,0,1,0,0,0,1 @ F,0,0,1,0,0,0,1 @ F,0,0,1,0,0,0,1 @ F,0,0,1,0,0,0,1 @ F,0,0,1,0,0,0,1 @ F,0,0,1,0,0,0,1 | F,0,0,1,0,0,0,1 @ F,0,0,1,0,0,0,1 @ F,0,0,1,0,0,0,1 @ F,0,0,1,0,0,0,1 @ F,0,0,1,0,0,0,1 @ F,0,0,1,0,0,0,1 @ F,0,0,1,0,0,0,1 @ F,0,0,1,0,0,0,1 @ F,0,0,1,0,0,0,1 @ F,0,0,1,0,0,0,1 @ F,0,0,1,0,0,0,1 @ F,0,0,1,0,0,0,1 | F,0,0,1,0,0,0,1 @ F,0,0,1,0,0,0,1 @ F,0,0,1,0,0,0,1 @ F,0,0,1,0,0,0,1 @ F,0,0,1,0,0,0,1 @ F,0,0,1,0,0,0,1 | F,0,0,1,0,0,0,1 @ F,0,0,1,0,0,0,1 @ F,0,0,1,0,0,0,1 @ F,0,0,1,0,0,0,1 @ F,0,0,1,0,0,0,1 @ F,0,0,1,0,0,0,1 @ F,0,0,1,0,0,0,1 @ F,0,0,1,0,0,0,1 @ F,0,0,1,0,0,0,1 @ F,0,0,1,0,0,0,1 @ F,0,0,1,0,0,0,1 | F,0,0,1,0,0,0,1 @ F,0,0,1,0,0,0,1 @ F,0,0,1,0,0,0,1 @ F,0,0,1,0,0,0,1 | F,0,0,1,0,0,0,1 @ F,0,0,1,0,0,0,1 @ F,0,0,1,0,0,0,1 @ F,0,0,1,0,0,0,1 | F,0,0,1,0,0,0,1 @ F,0,0,1,0,0,0,1 @ F,0,0,1,0,0,0,1 @ F,0,0,1,0,0,0,1 | F,0,0,1,0,0,0,1 @ F,0,0,1,0,0,0,1 @ F,0,0,1,0,0,0,1 @ F,0,0,1,0,0,0,1 | F,0,0,1,0,0,0,1 @ F,0,0,1,0,0,0,1 @ F,0,0,1,0,0,0,1 @ F,0,0,1,0,0,0,1 | F,0,0,1,0,0,0,1 @ F,0,0,1,0,0,0,1 @ F,0,0,1,0,0,0,1 @ F,0,0,1,0,0,0,1 @ F,0,0,1,0,0,0,1 @ F,0,0,1,0,0,0,1 @ F,0,0,1,0,0,0,1 @ F,0,0,1,0,0,0,1 @ F,0,0,1,0,0,0,1 @ F,0,0,1,0,0,0,1 @ F,0,0,1,0,0,0,1 | F,0,0,1,0,0,0,1 @ F,0,0,1,0,0,0,1 @ F,0,0,1,0,0,0,1 @ F,0,0,1,0,0,0,1 | F,0,0,1,0,0,0,1 @ F,0,0,1,0,0,0,1 @ F,0,0,1,0,0,0,1 @ F,0,0,1,0,0,0,1 @ F,0,0,1,0,0,0,1 @ F,0,0,1,0,0,0,1 @ F,0,0,1,0,0,0,1 @ F,0,0,1,0,0,0,1 @ F,0,0,1,0,0,0,1 @ F,0,0,1,0,0,0,1 @ F,0,0,1,0,0,0,1 @ F,0,0,1,0,0,0,1 @ F,0,0,1,0,0,0,1 @ F,0,0,1,0,0,0,1 @ F,0,0,1,0,0,0,1 @ F,0,0,1,0,0,0,1 | F,0,0,1,0,0,0,1 @ F,0,0,1,0,0,0,1 @ F,0,0,1,0,0,0,1 @ F,0,0,1,0,0,0,1 @ F,0,0,1,0,0,0,1 @ F,0,0,1,0,0,0,1 @ F,0,0,1,0,0,0,1 @ F,0,0,1,0,0,0,1 @ F,0,0,1,0,0,0,1 @ F,0,0,1,0,0,0,1 | F,0,0,1,0,0,0,1 @ F,0,0,1,0,0,0,1 @ F,0,0,1,0,0,0,1 @ F,0,0,1,0,0,0,1 @ F,0,0,1,0,0,0,1 @ F,0,0,1,0,0,0,1 @ F,0,0,1,0,0,0,1 @ F,0,0,1,0,0,0,1 @ F,0,0,1,0,0,0,1 @ F,0,0,1,0,0,0,1 | F,0,0,1,0,0,0,1 @ F,0,0,1,0,0,0,1 @ F,0,0,1,0,0,0,1 @ F,0,0,1,0,0,0,1 @ F,0,0,1,0,0,0,1 @ F,0,0,1,0,0,0,1 @ F,0,0,1,0,0,0,1 @ F,0,0,1,0,0,0,1 | F,0,0,1,0,0,0,1 @ F,0,0,1,0,0,0,1 @ F,0,0,1,0,0,0,1 @ F,0,0,1,0,0,0,1 | F,0,0,1,0,0,0,1 @ F,0,0,1,0,0,0,1 @ F,0,0,1,0,0,0,1 @ F,0,0,1,0,0,0,1"
       radius="0"
       unit="px"
       method="auto"
       mode="F"
       chamfer_steps="1"
       flexible="false"
       use_knot_distance="true"
       apply_no_radius="true"
       apply_with_radius="true"
       only_selected="false"
       hide_knots="false" /></defs><g
     inkscape:label="Capa 1"
     inkscape:groupmode="layer"
     id="layer1"
     style="fill:#ff3000;fill-opacity:1"
     transform="translate(-71.13672,-137.38102)"><path
       d="m 124.49517,157.66486 c -0.0209,0.252 -1.06707,0.20759 -1.20834,-0.2534 -0.0875,-0.22807 -0.12781,-0.66695 0.0273,-0.82201 0.15507,-0.15507 0.84153,-0.14222 1.05829,-0.059 0.28892,0.17886 0.24188,0.70267 -0.32166,0.7298 -0.0463,0.002 -0.30775,0.0825 -0.0492,0.20215 0.16485,0.0763 0.51697,-0.078 0.49366,0.20246 z m -0.21607,-0.76018 c -0.006,-0.21819 -0.22079,-0.23374 -0.37781,-0.23701 -0.16336,-0.003 -0.28458,0.0645 -0.28389,0.26374 4e-4,0.11476 0.17131,0.13281 0.30078,0.1389 0.16546,0.008 0.36514,-0.0128 0.36092,-0.16563 z"
       style="fill:#ff3000;fill-opacity:1"
       id="path1-5" /><path
       d="m 130.32938,157.6153 c -0.0908,-0.0367 -0.1767,-0.1093 -0.20164,-0.17429 -0.025,-0.065 0.0207,-0.2387 0.0865,-0.29323 0.0657,-0.0545 0.22893,-0.0869 0.42395,-0.0773 0.1805,0.009 0.33452,-0.0504 0.33452,-0.0934 0,-0.043 -0.15844,-0.1173 -0.34129,-0.13053 -0.18285,-0.0132 -0.32743,0.0134 -0.32539,-0.0943 0.002,-0.10235 0.15134,-0.0773 0.34495,-0.0773 0.23609,0 0.39889,0.0469 0.49436,0.14235 0.0919,0.0919 0.13587,0.23609 0.12405,0.40683 -0.0101,0.14578 -0.026,0.31539 -0.10257,0.37141 -0.0764,0.0559 -0.30141,0.0941 -0.43301,0.0914 -0.13161,-0.003 -0.31359,-0.035 -0.40441,-0.0717 z m 0.61931,-0.20806 c 0.0275,-0.0275 0.0355,-0.0735 0.0178,-0.10218 -0.0177,-0.0287 -0.16287,-0.0305 -0.33726,-0.0373 -0.17968,0.007 -0.25381,-0.001 -0.25205,0.11984 5.9e-4,0.0383 0.11734,0.0697 0.26076,0.0697 0.14341,0 0.28326,-0.0225 0.31077,-0.05 z"
       style="fill:#ff3000;fill-opacity:1"
       id="path1-6" /><path
       d="m 116.57104,157.6153 c -0.0908,-0.0367 -0.1767,-0.1093 -0.20164,-0.17429 -0.025,-0.065 0.0207,-0.2387 0.0865,-0.29323 0.0657,-0.0545 0.22893,-0.0869 0.42395,-0.0773 0.1805,0.009 0.33452,-0.0504 0.33452,-0.0934 0,-0.043 -0.15844,-0.1173 -0.34129,-0.13053 -0.18285,-0.0132 -0.32743,0.0134 -0.32539,-0.0943 0.002,-0.10235 0.15134,-0.0773 0.34495,-0.0773 0.23609,0 0.39889,0.0469 0.49436,0.14235 0.0919,0.0919 0.13587,0.23609 0.12405,0.40683 -0.0101,0.14578 -0.026,0.31539 -0.10257,0.37141 -0.0764,0.0559 -0.30141,0.0941 -0.43301,0.0914 -0.13161,-0.003 -0.31359,-0.035 -0.40441,-0.0717 z m 0.61931,-0.20806 c 0.0275,-0.0275 0.0355,-0.0735 0.0178,-0.10218 -0.0177,-0.0287 -0.16287,-0.0305 -0.33726,-0.0373 -0.17968,0.007 -0.25381,-0.001 -0.25205,0.11984 5.9e-4,0.0383 0.11734,0.0697 0.26076,0.0697 0.14341,0 0.28326,-0.0225 0.31077,-0.05 z"
       style="fill:#ff3000;fill-opacity:1"
       id="path1-26" /><path
       d="m 106.51688,157.6153 c -0.0908,-0.0367 -0.1767,-0.1093 -0.20164,-0.17429 -0.025,-0.065 0.0207,-0.2387 0.0865,-0.29323 0.0657,-0.0545 0.22893,-0.0869 0.42395,-0.0773 0.1805,0.009 0.33452,-0.0504 0.33452,-0.0934 0,-0.043 -0.15844,-0.1173 -0.34129,-0.13053 -0.18285,-0.0132 -0.32743,0.0134 -0.32539,-0.0943 0.002,-0.10235 0.15134,-0.0773 0.34495,-0.0773 0.23609,0 0.39889,0.0469 0.49436,0.14235 0.0919,0.0919 0.13587,0.23609 0.12405,0.40683 -0.0101,0.14578 -0.026,0.31539 -0.10257,0.37141 -0.0764,0.0559 -0.30141,0.0941 -0.43301,0.0914 -0.13161,-0.003 -0.31359,-0.035 -0.40441,-0.0717 z m 0.61931,-0.20806 c 0.0275,-0.0275 0.0355,-0.0735 0.0178,-0.10218 -0.0177,-0.0287 -0.16287,-0.0305 -0.33726,-0.0373 -0.17968,0.007 -0.25381,-0.001 -0.25205,0.11984 5.9e-4,0.0383 0.11734,0.0697 0.26076,0.0697 0.14341,0 0.28326,-0.0225 0.31077,-0.05 z"
       style="fill:#ff3000;fill-opacity:1"
       id="path1-7" /><path
       style="fill:#ff3000;fill-opacity:1"
       d="m 75.450296,159.24493 c -0.454272,-0.20465 -1.019819,-0.64888 -1.256771,-0.98717 -0.236952,-0.3383 -0.430822,-0.92503 -0.430822,-1.30385 0,-0.37881 0.267891,-0.93922 0.595313,-1.24534 0.421246,-0.39384 1.098171,-0.60581 2.315104,-0.72495 1.141919,-0.11179 2.04223,-0.3788 2.679392,-0.79464 0.52778,-0.34445 1.224168,-1.05435 1.547528,-1.57756 0.323361,-0.52321 0.651292,-1.4237 0.728737,-2.0011 0.07744,-0.57739 -0.0097,-1.58727 -0.193596,-2.24418 -0.183922,-0.65691 -0.787313,-1.70891 -1.340869,-2.33778 -0.589585,-0.6698 -1.698341,-1.47962 -2.676849,-1.95512 -0.918712,-0.44644 -2.087104,-0.89465 -2.596427,-0.99602 -0.509322,-0.10137 -1.283229,-0.4235 -1.719791,-0.71584 -0.436563,-0.29234 -1.010123,-0.81994 -1.274579,-1.17244 -0.264457,-0.3525 -0.546506,-1.04562 -0.626777,-1.54028 -0.11932,-0.73528 -0.121097,-1.16978 0.461853,-1.75273 0.620139,-0.62014 0.973354,-0.55524 2.008548,-0.43855 0.779473,0.0879 1.525887,0.40409 2.162697,0.91628 0.63142,0.50786 1.100885,1.19115 1.338748,1.9485 0.201478,0.64151 0.54976,1.70216 0.77396,2.35701 0.261162,0.7628 0.943208,1.72669 1.898127,2.68249 1.12651,1.12755 1.849057,1.60489 2.958818,1.95471 0.947468,0.29867 1.799649,0.4007 2.402336,0.28763 0.513705,-0.0964 1.334267,-0.44258 1.823472,-0.76936 0.489205,-0.32678 1.097638,-1.00849 1.352074,-1.51491 0.254435,-0.50643 0.462794,-1.40834 0.463021,-2.00424 2.7e-4,-0.71324 0.165752,-1.23311 0.484265,-1.52136 0.26612,-0.24083 0.839157,-0.43788 1.273416,-0.43788 0.526186,0 1.035215,0.25641 1.525997,0.76867 0.503605,0.52565 0.744851,1.06551 0.76305,1.70755 0.01625,0.57337 -0.164131,1.14964 -0.463359,1.48028 -0.368182,0.40684 -0.816098,0.54142 -1.802004,0.54142 -0.869033,0 -1.66842,0.2003 -2.367551,0.59323 -0.619429,0.34814 -1.262863,0.99966 -1.557378,1.57696 -0.276022,0.54105 -0.501195,1.25636 -0.500383,1.58958 8.11e-4,0.33322 0.133319,1.0821 0.294461,1.66418 0.18137,0.65516 0.760377,1.52528 1.519878,2.28404 1.007852,1.00687 1.498118,1.28175 2.746067,1.53966 1.011268,0.20899 1.652589,0.50444 1.918229,0.88369 0.219481,0.31335 0.399056,0.87967 0.399056,1.25849 0,0.37882 -0.275564,0.94764 -0.612365,1.26405 -0.336801,0.3164 -0.856526,0.57528 -1.154944,0.57528 -0.298418,0 -0.840445,-0.2343 -1.204504,-0.52067 -0.486003,-0.38229 -0.709253,-0.87743 -0.839995,-1.86301 -0.137064,-1.03325 -0.404104,-1.59305 -1.159692,-2.4311 -0.539894,-0.59882 -1.457875,-1.30566 -2.039958,-1.57076 -0.582084,-0.2651 -1.577904,-0.48462 -2.212935,-0.48781 -0.690771,-0.003 -1.550258,0.21656 -2.139501,0.54773 -0.541695,0.30445 -1.302047,1.04266 -1.68967,1.64046 -0.511525,0.78889 -0.70477,1.43109 -0.70477,2.34212 0,0.92229 -0.157889,1.43692 -0.595312,1.94035 -0.356211,0.40996 -0.967248,0.73559 -1.521354,0.81076 -0.509323,0.0691 -1.297719,-0.0418 -1.751991,-0.24647 z m 20.24335,-1.53828 c 0,0 -0.02843,-0.67209 -0.0262,-1.12078 0.0022,-0.44869 -0.04406,-0.63784 0.210384,-0.63346 0.11799,0.002 0.176908,0.10702 0.18286,0.42075 0.08998,0.0535 0.371097,0.0553 0.56577,0.0773 0.290569,0.0328 0.532315,0.36644 0.531205,0.63315 -10e-4,0.24746 -0.146349,0.56771 -0.370056,0.61079 -0.223706,0.0431 -1.093964,0.0122 -1.093964,0.0122 z m 1.087808,-0.60769 c 0,-0.21828 -0.178594,-0.39688 -0.396875,-0.39688 -0.218281,0 -0.396875,0.1786 -0.396875,0.39688 0,0.21828 0.178594,0.39687 0.396875,0.39687 0.218281,0 0.396875,-0.17859 0.396875,-0.39687 z m 3.636636,0.5659 c -0.0209,0.252 -1.067069,0.20759 -1.208337,-0.2534 -0.08752,-0.22807 -0.12781,-0.66695 0.02725,-0.82201 0.155062,-0.15507 0.841527,-0.14222 1.058287,-0.059 0.28892,0.17886 0.24188,0.70267 -0.321662,0.7298 -0.04635,0.002 -0.307751,0.0825 -0.0492,0.20215 0.164852,0.0763 0.516972,-0.078 0.493662,0.20246 z m 2.19224,-0.63207 c -0.002,-0.16906 -0.0344,-0.50345 0.0175,-0.56751 0.0242,-0.0299 0.14379,-0.0483 0.18386,0.002 0.0273,0.0335 0.0303,0.14502 0.0613,0.12753 0.0641,-0.0365 0.16492,-0.0767 0.24342,-0.0886 0.25896,-0.0394 0.62968,-0.0155 0.80431,0.15913 0.17462,0.17462 0.14028,0.62754 0.13786,0.74393 -0.003,0.14329 -0.10642,0.13321 -0.25192,0.13601 -0.10962,0.002 -0.11744,-0.23149 -0.11744,-0.44977 0,-0.21828 -0.0659,-0.37328 -0.28018,-0.36695 -0.13822,0.004 -0.32758,-0.0121 -0.37964,0.0808 -0.14932,0.26566 0.0985,0.76904 -0.28465,0.77488 -0.15207,0.002 -0.13107,-0.29238 -0.13456,-0.55031 z m 6.85022,-0.20441 c 0,-0.3638 -0.0601,-0.71686 0.25264,-0.71222 0.35165,0.005 0.29743,0.35439 0.29743,0.71819 0,0.36381 0.0601,0.73336 -0.26757,0.73612 -0.35455,0.003 -0.2825,-0.37828 -0.2825,-0.74209 z m 5.04781,-2.30913 c -0.009,-0.50318 0.36966,-0.37254 0.96749,-0.37254 0.53752,0 1.01784,-0.1052 1.08055,-0.28892 0.0756,-0.22137 -0.18112,-0.33073 -0.77632,-0.33073 -0.48907,0 -1.15383,-0.18534 -1.47725,-0.41188 -0.47479,-0.33255 -0.58804,-0.66752 -0.58804,-1.73919 0,-1.12121 0.006,-1.25394 0.46302,-1.23939 0.56389,-0.005 0.49484,0.36729 0.50185,1.33635 0.0807,1.25439 0.12251,1.26036 1.16629,1.26036 1.04384,0 1.04384,0 1.04384,-1.32291 0,-0.99954 -0.07,-1.33929 0.39687,-1.32292 0.56466,0.0198 0.39688,0.4123 0.39688,2.12321 0,2.03568 -0.028,2.13386 -0.67868,2.38125 -0.37328,0.14192 -1.08765,0.25804 -1.5875,0.25804 -0.55058,0 -0.90415,-0.0708 -0.909,-0.33073 z m -18.189928,-1.31511 c -0.327422,-0.15791 -0.595312,-0.50285 -0.595312,-0.76653 0,-0.26369 0.230297,-0.60268 0.511772,-0.75332 0.281475,-0.15064 0.946241,-0.27389 1.477257,-0.27389 0.654003,0 0.882643,-0.0963 0.856727,-0.33073 -0.0419,-0.37899 -0.60552,-0.36734 -1.212674,-0.41209 -0.607154,-0.0447 -1.107201,0.13072 -1.103916,-0.33073 0.0025,-0.35262 0.50929,-0.24937 1.131754,-0.24937 0.622465,0 1.396371,0.18534 1.719792,0.41188 0.410824,0.28775 0.588038,0.68191 0.588038,1.30791 0,0.626 -0.177214,1.02016 -0.588038,1.30791 -0.323421,0.22654 -0.948499,0.40382 -1.389063,0.39398 -0.440563,-0.01 -1.068915,-0.14711 -1.396337,-0.30502 z m 2.131523,-0.64002 c 0.09306,-0.0931 0.118143,-0.2518 0.05575,-0.35276 -0.0624,-0.10096 -0.376248,-0.23204 -0.877042,-0.20277 -0.448848,0.0262 -0.851023,-0.0151 -0.859151,0.36471 -0.008,0.37385 0.349289,0.35997 0.761598,0.35997 0.412309,0 0.825791,-0.0761 0.918849,-0.16919 z m 1.887755,0.81044 c -0.097,-0.097 -0.11667,-1.19246 -0.11667,-2.40514 0,-2.02847 -0.0473,-2.20486 0.52916,-2.20486 0.58553,0 0.52917,0.17639 0.52917,2.38125 0,1.80799 0.0943,2.26777 -0.17361,2.26777 -0.19402,0 -0.67104,0.058 -0.76805,-0.039 z m 4.7047,-0.25938 c -0.5181,-0.36289 -0.58804,-0.64609 -0.58804,-2.38125 0,-1.5316 0.0843,-1.9798 0.37847,-1.96937 0.67401,0.0239 0.38069,0.8293 0.42719,1.15672 0.0708,0.49824 0.32316,0.11733 1.39559,0.18041 0.96415,0.0567 1.38414,0.3187 1.5173,0.52916 0.13315,0.21047 0.24392,0.76287 0.24615,1.22756 0.003,0.57622 -0.18295,0.97587 -0.58399,1.25677 -0.32342,0.22654 -0.95177,0.41188 -1.39633,0.41188 -0.44457,0 -1.07292,-0.18534 -1.39634,-0.41188 z m 2.47526,-1.44573 c 0,-0.78925 -0.33211,-0.92051 -1.21122,-0.92051 -0.76755,0 -0.94094,0.10518 -1.01311,0.61455 -0.0479,0.33801 0.0856,0.77255 0.1654,0.98025 0.0883,0.23013 0.6236,0.29401 1.20273,0.29401 0.53201,0 0.8562,-0.17905 0.8562,-0.9683 z m 2.33132,1.5984 c -0.30718,-0.12412 -0.59767,-0.3697 -0.68202,-0.58951 -0.0844,-0.21982 0.0702,-0.80738 0.29249,-0.99181 0.22222,-0.18443 0.77434,-0.294 1.43396,-0.26139 0.6105,0.0302 1.13144,-0.17054 1.13144,-0.31606 0,-0.14552 -0.53588,-0.39675 -1.15434,-0.4415 -0.61847,-0.0447 -1.10749,0.0453 -1.10059,-0.31879 0.007,-0.34617 0.51189,-0.26131 1.16673,-0.26131 0.79855,0 1.34918,0.15856 1.67211,0.48148 0.31085,0.31085 0.45954,0.79852 0.41956,1.37603 -0.0341,0.49308 -0.0878,1.06675 -0.34691,1.25623 -0.25857,0.18907 -1.01947,0.3183 -1.4646,0.30907 -0.44513,-0.009 -1.06065,-0.11832 -1.36783,-0.24244 z m 2.09472,-0.70373 c 0.0931,-0.0931 0.12013,-0.24859 0.0602,-0.34562 -0.06,-0.097 -0.5509,-0.10305 -1.14073,-0.12622 -0.60774,0.0247 -0.85848,-0.005 -0.85251,0.40535 0.002,0.12959 0.39688,0.23563 0.88195,0.23563 0.48507,0 0.95808,-0.0761 1.05114,-0.16919 z m 7.12889,0.64002 c -0.52468,-0.25304 -0.59531,-0.48637 -0.59531,-1.96647 0,-1.2858 -0.11362,-1.78201 0.37529,-1.79881 0.35884,-0.0123 0.53845,0.10715 0.55672,0.46168 0.009,0.17083 0.0768,0.16902 0.78778,0.18694 0.34652,0.009 0.75878,-0.0678 0.78316,0.24744 -0.006,0.4168 -0.23418,0.34014 -0.71199,0.33073 -0.95749,-0.0189 -0.86492,0.15683 -0.86492,1.00933 0,0.8791 0.0503,0.9302 0.99219,1.00816 0.57435,0.0475 1.00413,-0.0778 1.00413,-0.24025 0,-0.1543 0.22618,-0.32235 0.51722,-0.32235 0.29104,0 0.53135,0.19594 0.52917,0.33319 -0.006,0.37617 -0.26462,0.43492 -0.58804,0.66145 -0.32342,0.22654 -0.9485,0.40382 -1.38906,0.39398 -0.44057,-0.01 -1.06892,-0.14711 -1.39634,-0.30502 z m 4.78711,0.17195 c -0.31254,-0.1261 -0.56764,-0.14447 -0.75106,-0.64092 -0.064,-0.17318 0.0178,-0.5242 0.26601,-0.79847 0.27019,-0.29856 0.8911,-0.53076 1.54727,-0.57864 0.60279,-0.044 1.09598,-0.19903 1.09598,-0.34455 0,-0.14552 -0.50601,-0.30119 -1.12448,-0.34594 -0.61846,-0.0447 -1.12447,0.11894 -1.12447,-0.33073 0,-0.39054 0.48407,-0.24937 1.07572,-0.24937 0.59165,0 1.30603,0.12325 1.5875,0.27389 0.38931,0.20835 0.51178,0.55814 0.51178,1.46176 0,1.03164 -0.0893,1.2218 -0.67869,1.4459 -0.37327,0.14192 -0.93882,0.25049 -1.25677,0.24126 -0.31795,-0.009 -0.83626,-0.008 -1.14879,-0.13419 z m 2.10691,-0.81198 c 0.0931,-0.0931 0.12013,-0.24859 0.0602,-0.34562 -0.06,-0.097 -0.52951,-0.11862 -1.05114,-0.12562 -0.5266,-0.007 -0.93365,-0.0543 -0.9421,0.40475 -0.002,0.12958 0.39687,0.23563 0.88194,0.23563 0.48507,0 0.95809,-0.0761 1.05114,-0.16919 z m 1.71137,-0.48893 c 0,-1.15873 -0.10143,-1.48835 0.3087,-1.70785 0.28147,-0.15064 0.7351,-0.33958 1.74136,-0.32167 0.52838,0.009 1.18516,0.16506 1.46663,0.3157 0.28148,0.15064 0.51178,0.4483 0.51178,0.66146 0,0.21316 -0.0267,0.42559 -0.40629,0.4234 -0.5469,-0.003 -0.41714,-0.23832 -0.5983,-0.4566 -0.18116,-0.21828 -0.64239,-0.37298 -0.95927,-0.37298 -0.31688,0 -0.71079,0.0739 -0.89364,0.23986 -0.32394,0.29407 -0.27569,0.19637 -0.28167,1.52687 -0.004,0.8349 0.16928,1.16284 -0.43271,1.14368 -0.56691,-0.018 -0.45659,-0.34301 -0.45659,-1.45187 z M 101.80854,151.675 c -0.0104,-0.33965 0.47203,-0.33637 1.05411,-0.33637 0.58208,0 1.05753,-0.0372 1.06255,0.33637 0.004,0.31445 -0.4847,0.28992 -1.06678,0.28992 -0.58208,0 -1.03963,0.0456 -1.04988,-0.28992 z m -4.334693,-4.78784 c 0,-0.29104 0.203527,-0.41092 0.349047,-0.41092 0.145521,0 0.399726,0.14522 0.399726,0.43626 0,0.29104 -0.262651,0.39403 -0.408172,0.39403 -0.14552,0 -0.340601,-0.12833 -0.340601,-0.41937 z m 6.175603,-0.0484 c 0.037,-0.36287 0.1557,-0.38817 0.36629,-0.38898 0.20115,-7.8e-4 0.40051,0.0882 0.39289,0.46621 -0.006,0.28673 -0.0411,0.38654 -0.39616,0.40094 -0.30772,0.0125 -0.39352,-0.17877 -0.36302,-0.47817 z m 6.21783,0.0678 c 0,-0.29104 0.10114,-0.48737 0.40195,-0.48737 0.28887,0 0.39598,0.1366 0.39598,0.50528 0,0.29104 -0.11335,0.52009 -0.39001,0.50529 -0.29495,-0.0158 -0.40792,-0.23216 -0.40792,-0.5232 z m -14.144159,-1.44924 c 0,-1.35231 -0.153964,-1.732 0.396875,-1.71979 0.539027,0.0119 0.396875,0.36748 0.396875,1.71979 0,1.35232 0.17799,1.74368 -0.396875,1.71979 -0.490824,-0.0204 -0.396875,-0.36747 -0.396875,-1.71979 z m 3.704167,1.37908 c -0.50044,-0.25187 -0.681717,-0.57746 -0.744677,-1.33748 -0.04577,-0.55251 0.05811,-1.17486 0.230834,-1.38298 0.190594,-0.22965 0.801495,-0.37841 1.554005,-0.37841 0.68197,0 1.47106,0.17162 1.75354,0.38138 0.41015,0.30457 0.45489,0.47775 0.22213,0.85989 -0.18181,0.29849 -0.72156,0.52829 -1.43466,0.61081 -0.62876,0.0728 -1.192139,0.28112 -1.251946,0.46302 -0.07638,0.2323 0.252186,0.33073 1.103936,0.33073 0.90154,0 1.21267,0.10183 1.21267,0.39688 0,0.28291 -0.2849,0.39575 -0.99219,0.39297 -0.5457,-0.002 -1.28984,-0.15371 -1.653642,-0.33681 z m 2.116662,-2.18959 c 0,-0.30564 -0.21919,-0.39199 -0.83952,-0.33073 -0.46173,0.0456 -0.888372,0.23174 -0.948086,0.41364 -0.07329,0.22325 0.199532,0.33073 0.839516,0.33073 0.68344,0 0.94809,-0.11547 0.94809,-0.41364 z m 3.59622,2.38541 c -0.19123,-0.14831 -0.067,-0.42655 -0.067,-0.54782 0,-0.12127 0.57517,-0.10104 1.38766,-0.10104 1.0634,0 1.44681,-0.0926 1.36855,-0.33073 -0.0598,-0.1819 -0.69479,-0.39026 -1.41111,-0.46302 -1.12572,-0.11434 -1.31451,-0.21796 -1.3917,-0.76383 -0.0491,-0.34734 0.07,-0.73247 0.26459,-0.85584 0.19463,-0.12337 0.97895,-0.22613 1.74294,-0.22836 0.76398,-0.002 1.39503,-0.0946 1.38906,0.24604 -0.008,0.47193 -0.55624,0.28637 -1.23609,0.33072 -0.69084,0.0451 -1.29605,0.14292 -1.3569,0.32777 -0.0749,0.22735 0.2316,0.41434 0.95413,0.41434 0.64786,0 1.29922,0.18632 1.6757,0.51209 0.34353,0.29726 0.39549,0.71778 0.15711,1.02903 -0.23718,0.3097 -0.98094,0.44235 -1.83416,0.51204 -0.52634,-0.0102 -1.45204,0.0665 -1.64274,-0.0814 z m -22.150776,-2.67954 c -0.490774,-0.19657 -1.160206,-0.75018 -1.487628,-1.23025 -0.327422,-0.48007 -0.595313,-1.2478 -0.595313,-1.70607 0,-0.51643 0.220159,-1.03833 0.579057,-1.37269 0.318482,-0.29671 0.884029,-0.53903 1.256771,-0.53849 0.372743,5.5e-4 1.058887,0.23341 1.524765,0.51747 0.465878,0.28406 1.031425,0.87302 1.256771,1.30879 0.225346,0.43577 0.40972,1.06939 0.40972,1.40804 0,0.33865 -0.175164,0.8658 -0.389253,1.17146 -0.214089,0.30565 -0.675751,0.6105 -1.025914,0.67744 -0.350163,0.0669 -1.038202,-0.0391 -1.528976,-0.2357 z m 2.207398,-0.48294 c 0.258952,-0.24853 0.472162,-0.76392 0.472162,-1.1124 0,-0.34847 -0.180609,-0.98285 -0.401354,-1.40972 -0.220744,-0.42687 -0.750613,-0.95674 -1.177486,-1.17749 -0.426873,-0.22074 -0.98273,-0.40135 -1.235239,-0.40135 -0.252509,0 -0.757404,0.0321 -1.124092,0.47005 -0.331456,0.39589 -0.497852,0.68432 -0.557679,1.19325 -0.03221,0.27401 0.175847,0.82369 0.393297,1.24419 0.21745,0.42051 0.660661,0.95037 0.984913,1.17749 0.324252,0.22711 0.940635,0.44802 1.36974,0.44802 0.429105,0 0.793297,0.031 1.275738,-0.43204 z m -2.68922,-0.59523 c -0.433665,-0.40018 -0.86258,-1.04471 -0.953145,-1.43228 -0.121355,-0.51934 -0.02321,-0.86595 0.41036,-1.2797 0.511483,-0.4881 0.760362,-0.53172 1.279699,-0.41036 0.387572,0.0906 1.032098,0.51948 1.43228,0.95314 0.400182,0.43367 0.727604,1.06581 0.727604,1.40476 0,0.33895 -0.217734,0.81333 -0.483854,1.05416 -0.26612,0.24084 -0.787264,0.37941 -1.100931,0.37941 -0.313668,0 -0.878349,-0.26895 -1.312013,-0.66913 z m 13.215549,-0.59531 c 0,-0.14553 0.178593,-0.26459 0.396875,-0.26459 0.218281,0 0.396875,0.11906 0.396875,0.26459 0,0.14552 -0.178594,0.26458 -0.396875,0.26458 -0.218282,0 -0.396875,-0.11906 -0.396875,-0.26458 z m 4.478899,14.22548 c -0.006,-0.21819 -0.220794,-0.23374 -0.377816,-0.23701 -0.163359,-0.003 -0.284577,0.0645 -0.283884,0.26374 3.99e-4,0.11476 0.171309,0.13281 0.300777,0.1389 0.165463,0.008 0.365143,-0.0128 0.360923,-0.16563 z"
       id="path2"
       sodipodi:nodetypes="sssssssssssssssscssssssssssssssssssssssssssssscssssssssscssscssssssscscsssssssssssssssssscssscsssccsssssssscszscssssscscszssccszscssszscsscssszscsszscssscssssscscssssccsssssscsssssscsssssscssssscssssssccssssssssssssssssssssssssssssssscssscssscssscssscsscssscsssssscsscsssscssssssssscsssssssssssssssssssssssssscssscsssc"
       inkscape:original-d="m 75.450296,159.24493 c -0.454272,-0.20465 -1.019819,-0.64888 -1.256771,-0.98717 -0.236952,-0.3383 -0.430822,-0.92503 -0.430822,-1.30385 0,-0.37881 0.267891,-0.93922 0.595313,-1.24534 0.421246,-0.39384 1.098171,-0.60581 2.315104,-0.72495 1.141919,-0.11179 2.04223,-0.3788 2.679392,-0.79464 0.52778,-0.34445 1.224168,-1.05435 1.547528,-1.57756 0.323361,-0.52321 0.651292,-1.4237 0.728737,-2.0011 0.07744,-0.57739 -0.0097,-1.58727 -0.193596,-2.24418 -0.183922,-0.65691 -0.787313,-1.70891 -1.340869,-2.33778 -0.589585,-0.6698 -1.698341,-1.47962 -2.676849,-1.95512 -0.918712,-0.44644 -2.087104,-0.89465 -2.596427,-0.99602 -0.509322,-0.10137 -1.283229,-0.4235 -1.719791,-0.71584 -0.436563,-0.29234 -1.010123,-0.81994 -1.274579,-1.17244 -0.264457,-0.3525 -0.546506,-1.04562 -0.626777,-1.54028 -0.11932,-0.73528 -0.121097,-1.16978 0.461853,-1.75273 0.620139,-0.62014 0.973354,-0.55524 2.008548,-0.43855 0.779473,0.0879 1.525887,0.40409 2.162697,0.91628 0.63142,0.50786 1.100885,1.19115 1.338748,1.9485 0.201478,0.64151 0.54976,1.70216 0.77396,2.35701 0.261162,0.7628 0.943208,1.72669 1.898127,2.68249 1.12651,1.12755 1.849057,1.60489 2.958818,1.95471 0.947468,0.29867 1.799649,0.4007 2.402336,0.28763 0.513705,-0.0964 1.334267,-0.44258 1.823472,-0.76936 0.489205,-0.32678 1.097638,-1.00849 1.352074,-1.51491 0.254435,-0.50643 0.462794,-1.40834 0.463021,-2.00424 2.7e-4,-0.71324 0.165752,-1.23311 0.484265,-1.52136 0.26612,-0.24083 0.839157,-0.43788 1.273416,-0.43788 0.526186,0 1.035215,0.25641 1.525997,0.76867 0.503605,0.52565 0.744851,1.06551 0.76305,1.70755 0.01625,0.57337 -0.164131,1.14964 -0.463359,1.48028 -0.368182,0.40684 -0.816098,0.54142 -1.802004,0.54142 -0.869033,0 -1.66842,0.2003 -2.367551,0.59323 -0.619429,0.34814 -1.262863,0.99966 -1.557378,1.57696 -0.276022,0.54105 -0.501195,1.25636 -0.500383,1.58958 8.11e-4,0.33322 0.133319,1.0821 0.294461,1.66418 0.18137,0.65516 0.760377,1.52528 1.519878,2.28404 1.007852,1.00687 1.498118,1.28175 2.746067,1.53966 1.011268,0.20899 1.652589,0.50444 1.918229,0.88369 0.219481,0.31335 0.399056,0.87967 0.399056,1.25849 0,0.37882 -0.275564,0.94764 -0.612365,1.26405 -0.336801,0.3164 -0.856526,0.57528 -1.154944,0.57528 -0.298418,0 -0.840445,-0.2343 -1.204504,-0.52067 -0.486003,-0.38229 -0.709253,-0.87743 -0.839995,-1.86301 -0.137064,-1.03325 -0.404104,-1.59305 -1.159692,-2.4311 -0.539894,-0.59882 -1.457875,-1.30566 -2.039958,-1.57076 -0.582084,-0.2651 -1.577904,-0.48462 -2.212935,-0.48781 -0.690771,-0.003 -1.550258,0.21656 -2.139501,0.54773 -0.541695,0.30445 -1.302047,1.04266 -1.68967,1.64046 -0.511525,0.78889 -0.70477,1.43109 -0.70477,2.34212 0,0.92229 -0.157889,1.43692 -0.595312,1.94035 -0.356211,0.40996 -0.967248,0.73559 -1.521354,0.81076 -0.509323,0.0691 -1.297719,-0.0418 -1.751991,-0.24647 z m 20.24335,-1.53828 c 0,0 -0.02843,-0.67209 -0.0262,-1.12078 0.0022,-0.44869 -0.04406,-0.63784 0.210384,-0.63346 0.11799,0.002 0.176908,0.10702 0.18286,0.42075 0.08998,0.0535 0.371097,0.0553 0.56577,0.0773 0.290569,0.0328 0.532315,0.36644 0.531205,0.63315 -10e-4,0.24746 -0.146349,0.56771 -0.370056,0.61079 -0.223706,0.0431 -1.093964,0.0122 -1.093964,0.0122 z m 1.087808,-0.60769 c 0,-0.21828 -0.178594,-0.39688 -0.396875,-0.39688 -0.218281,0 -0.396875,0.1786 -0.396875,0.39688 0,0.21828 0.178594,0.39687 0.396875,0.39687 0.218281,0 0.396875,-0.17859 0.396875,-0.39687 z m 3.636636,0.5659 c -0.0209,0.252 -1.067069,0.20759 -1.208337,-0.2534 -0.08752,-0.22807 -0.12781,-0.66695 0.02725,-0.82201 0.155062,-0.15507 0.841527,-0.14222 1.058287,-0.059 0.28892,0.17886 0.24188,0.70267 -0.321662,0.7298 -0.04635,0.002 -0.307751,0.0825 -0.0492,0.20215 0.164852,0.0763 0.516972,-0.078 0.493662,0.20246 z m 2.19224,-0.63207 c -0.002,-0.16906 -0.0344,-0.50345 0.0175,-0.56751 0.0242,-0.0299 0.14379,-0.0483 0.18386,0.002 0.0273,0.0335 0.0303,0.14502 0.0613,0.12753 0.0641,-0.0365 0.16492,-0.0767 0.24342,-0.0886 0.25896,-0.0394 0.62968,-0.0155 0.80431,0.15913 0.17462,0.17462 0.14028,0.62754 0.13786,0.74393 -0.003,0.14329 -0.10642,0.13321 -0.25192,0.13601 -0.10962,0.002 -0.11744,-0.23149 -0.11744,-0.44977 0,-0.21828 -0.0659,-0.37328 -0.28018,-0.36695 -0.13822,0.004 -0.32758,-0.0121 -0.37964,0.0808 -0.14932,0.26566 0.0985,0.76904 -0.28465,0.77488 -0.15207,0.002 -0.13107,-0.29238 -0.13456,-0.55031 z m 6.85022,-0.20441 c 0,-0.3638 -0.0601,-0.71686 0.25264,-0.71222 0.35165,0.005 0.29743,0.35439 0.29743,0.71819 0,0.36381 0.0601,0.73336 -0.26757,0.73612 -0.35455,0.003 -0.2825,-0.37828 -0.2825,-0.74209 z m 5.04781,-2.30913 c -0.009,-0.50318 0.36966,-0.37254 0.96749,-0.37254 0.53752,0 1.01784,-0.1052 1.08055,-0.28892 0.0756,-0.22137 -0.18112,-0.33073 -0.77632,-0.33073 -0.48907,0 -1.15383,-0.18534 -1.47725,-0.41188 -0.47479,-0.33255 -0.58804,-0.66752 -0.58804,-1.73919 0,-1.12121 0.006,-1.25394 0.46302,-1.23939 0.56389,-0.005 0.49484,0.36729 0.50185,1.33635 0.0807,1.25439 0.12251,1.26036 1.16629,1.26036 1.04384,0 1.04384,0 1.04384,-1.32291 0,-0.99954 -0.07,-1.33929 0.39687,-1.32292 0.56466,0.0198 0.39688,0.4123 0.39688,2.12321 0,2.03568 -0.028,2.13386 -0.67868,2.38125 -0.37328,0.14192 -1.08765,0.25804 -1.5875,0.25804 -0.55058,0 -0.90415,-0.0708 -0.909,-0.33073 z m -18.189928,-1.31511 c -0.327422,-0.15791 -0.595312,-0.50285 -0.595312,-0.76653 0,-0.26369 0.230297,-0.60268 0.511772,-0.75332 0.281475,-0.15064 0.946241,-0.27389 1.477257,-0.27389 0.654003,0 0.882643,-0.0963 0.856727,-0.33073 -0.0419,-0.37899 -0.60552,-0.36734 -1.212674,-0.41209 -0.607154,-0.0447 -1.107201,0.13072 -1.103916,-0.33073 0.0025,-0.35262 0.50929,-0.24937 1.131754,-0.24937 0.622465,0 1.396371,0.18534 1.719792,0.41188 0.410824,0.28775 0.588038,0.68191 0.588038,1.30791 0,0.626 -0.177214,1.02016 -0.588038,1.30791 -0.323421,0.22654 -0.948499,0.40382 -1.389063,0.39398 -0.440563,-0.01 -1.068915,-0.14711 -1.396337,-0.30502 z m 2.131523,-0.64002 c 0.09306,-0.0931 0.118143,-0.2518 0.05575,-0.35276 -0.0624,-0.10096 -0.376248,-0.23204 -0.877042,-0.20277 -0.448848,0.0262 -0.851023,-0.0151 -0.859151,0.36471 -0.008,0.37385 0.349289,0.35997 0.761598,0.35997 0.412309,0 0.825791,-0.0761 0.918849,-0.16919 z m 1.887755,0.81044 c -0.097,-0.097 -0.11667,-1.19246 -0.11667,-2.40514 0,-2.02847 -0.0473,-2.20486 0.52916,-2.20486 0.58553,0 0.52917,0.17639 0.52917,2.38125 0,1.80799 0.0943,2.26777 -0.17361,2.26777 -0.19402,0 -0.67104,0.058 -0.76805,-0.039 z m 4.7047,-0.25938 c -0.5181,-0.36289 -0.58804,-0.64609 -0.58804,-2.38125 0,-1.5316 0.0843,-1.9798 0.37847,-1.96937 0.67401,0.0239 0.38069,0.8293 0.42719,1.15672 0.0708,0.49824 0.32316,0.11733 1.39559,0.18041 0.96415,0.0567 1.38414,0.3187 1.5173,0.52916 0.13315,0.21047 0.24392,0.76287 0.24615,1.22756 0.003,0.57622 -0.18295,0.97587 -0.58399,1.25677 -0.32342,0.22654 -0.95177,0.41188 -1.39633,0.41188 -0.44457,0 -1.07292,-0.18534 -1.39634,-0.41188 z m 2.47526,-1.44573 c 0,-0.78925 -0.33211,-0.92051 -1.21122,-0.92051 -0.76755,0 -0.94094,0.10518 -1.01311,0.61455 -0.0479,0.33801 0.0856,0.77255 0.1654,0.98025 0.0883,0.23013 0.6236,0.29401 1.20273,0.29401 0.53201,0 0.8562,-0.17905 0.8562,-0.9683 z m 2.33132,1.5984 c -0.30718,-0.12412 -0.59767,-0.3697 -0.68202,-0.58951 -0.0844,-0.21982 0.0702,-0.80738 0.29249,-0.99181 0.22222,-0.18443 0.77434,-0.294 1.43396,-0.26139 0.6105,0.0302 1.13144,-0.17054 1.13144,-0.31606 0,-0.14552 -0.53588,-0.39675 -1.15434,-0.4415 -0.61847,-0.0447 -1.10749,0.0453 -1.10059,-0.31879 0.007,-0.34617 0.51189,-0.26131 1.16673,-0.26131 0.79855,0 1.34918,0.15856 1.67211,0.48148 0.31085,0.31085 0.45954,0.79852 0.41956,1.37603 -0.0341,0.49308 -0.0878,1.06675 -0.34691,1.25623 -0.25857,0.18907 -1.01947,0.3183 -1.4646,0.30907 -0.44513,-0.009 -1.06065,-0.11832 -1.36783,-0.24244 z m 2.09472,-0.70373 c 0.0931,-0.0931 0.12013,-0.24859 0.0602,-0.34562 -0.06,-0.097 -0.5509,-0.10305 -1.14073,-0.12622 -0.60774,0.0247 -0.85848,-0.005 -0.85251,0.40535 0.002,0.12959 0.39688,0.23563 0.88195,0.23563 0.48507,0 0.95808,-0.0761 1.05114,-0.16919 z m 7.12889,0.64002 c -0.52468,-0.25304 -0.59531,-0.48637 -0.59531,-1.96647 0,-1.2858 -0.11362,-1.78201 0.37529,-1.79881 0.35884,-0.0123 0.53845,0.10715 0.55672,0.46168 0.009,0.17083 0.0768,0.16902 0.78778,0.18694 0.34652,0.009 0.75878,-0.0678 0.78316,0.24744 -0.006,0.4168 -0.23418,0.34014 -0.71199,0.33073 -0.95749,-0.0189 -0.86492,0.15683 -0.86492,1.00933 0,0.8791 0.0503,0.9302 0.99219,1.00816 0.57435,0.0475 1.00413,-0.0778 1.00413,-0.24025 0,-0.1543 0.22618,-0.32235 0.51722,-0.32235 0.29104,0 0.53135,0.19594 0.52917,0.33319 -0.006,0.37617 -0.26462,0.43492 -0.58804,0.66145 -0.32342,0.22654 -0.9485,0.40382 -1.38906,0.39398 -0.44057,-0.01 -1.06892,-0.14711 -1.39634,-0.30502 z m 4.78711,0.17195 c -0.31254,-0.1261 -0.56764,-0.14447 -0.75106,-0.64092 -0.064,-0.17318 0.0178,-0.5242 0.26601,-0.79847 0.27019,-0.29856 0.8911,-0.53076 1.54727,-0.57864 0.60279,-0.044 1.09598,-0.19903 1.09598,-0.34455 0,-0.14552 -0.50601,-0.30119 -1.12448,-0.34594 -0.61846,-0.0447 -1.12447,0.11894 -1.12447,-0.33073 0,-0.39054 0.48407,-0.24937 1.07572,-0.24937 0.59165,0 1.30603,0.12325 1.5875,0.27389 0.38931,0.20835 0.51178,0.55814 0.51178,1.46176 0,1.03164 -0.0893,1.2218 -0.67869,1.4459 -0.37327,0.14192 -0.93882,0.25049 -1.25677,0.24126 -0.31795,-0.009 -0.83626,-0.008 -1.14879,-0.13419 z m 2.10691,-0.81198 c 0.0931,-0.0931 0.12013,-0.24859 0.0602,-0.34562 -0.06,-0.097 -0.52951,-0.11862 -1.05114,-0.12562 -0.5266,-0.007 -0.93365,-0.0543 -0.9421,0.40475 -0.002,0.12958 0.39687,0.23563 0.88194,0.23563 0.48507,0 0.95809,-0.0761 1.05114,-0.16919 z m 1.71137,-0.48893 c 0,-1.15873 -0.10143,-1.48835 0.3087,-1.70785 0.28147,-0.15064 0.7351,-0.33958 1.74136,-0.32167 0.52838,0.009 1.18516,0.16506 1.46663,0.3157 0.28148,0.15064 0.51178,0.4483 0.51178,0.66146 0,0.21316 -0.0267,0.42559 -0.40629,0.4234 -0.5469,-0.003 -0.41714,-0.23832 -0.5983,-0.4566 -0.18116,-0.21828 -0.64239,-0.37298 -0.95927,-0.37298 -0.31688,0 -0.71079,0.0739 -0.89364,0.23986 -0.32394,0.29407 -0.27569,0.19637 -0.28167,1.52687 -0.004,0.8349 0.16928,1.16284 -0.43271,1.14368 -0.56691,-0.018 -0.45659,-0.34301 -0.45659,-1.45187 z M 101.80854,151.675 c -0.0104,-0.33965 0.47203,-0.33637 1.05411,-0.33637 0.58208,0 1.05753,-0.0372 1.06255,0.33637 0.004,0.31445 -0.4847,0.28992 -1.06678,0.28992 -0.58208,0 -1.03963,0.0456 -1.04988,-0.28992 z m -4.334693,-4.78784 c 0,-0.29104 0.203527,-0.41092 0.349047,-0.41092 0.145521,0 0.399726,0.14522 0.399726,0.43626 0,0.29104 -0.262651,0.39403 -0.408172,0.39403 -0.14552,0 -0.340601,-0.12833 -0.340601,-0.41937 z m 6.175603,-0.0484 c 0.037,-0.36287 0.1557,-0.38817 0.36629,-0.38898 0.20115,-7.8e-4 0.40051,0.0882 0.39289,0.46621 -0.006,0.28673 -0.0411,0.38654 -0.39616,0.40094 -0.30772,0.0125 -0.39352,-0.17877 -0.36302,-0.47817 z m 6.21783,0.0678 c 0,-0.29104 0.10114,-0.48737 0.40195,-0.48737 0.28887,0 0.39598,0.1366 0.39598,0.50528 0,0.29104 -0.11335,0.52009 -0.39001,0.50529 -0.29495,-0.0158 -0.40792,-0.23216 -0.40792,-0.5232 z m -14.144159,-1.44924 c 0,-1.35231 -0.153964,-1.732 0.396875,-1.71979 0.539027,0.0119 0.396875,0.36748 0.396875,1.71979 0,1.35232 0.17799,1.74368 -0.396875,1.71979 -0.490824,-0.0204 -0.396875,-0.36747 -0.396875,-1.71979 z m 3.704167,1.37908 c -0.50044,-0.25187 -0.681717,-0.57746 -0.744677,-1.33748 -0.04577,-0.55251 0.05811,-1.17486 0.230834,-1.38298 0.190594,-0.22965 0.801495,-0.37841 1.554005,-0.37841 0.68197,0 1.47106,0.17162 1.75354,0.38138 0.41015,0.30457 0.45489,0.47775 0.22213,0.85989 -0.18181,0.29849 -0.72156,0.52829 -1.43466,0.61081 -0.62876,0.0728 -1.192139,0.28112 -1.251946,0.46302 -0.07638,0.2323 0.252186,0.33073 1.103936,0.33073 0.90154,0 1.21267,0.10183 1.21267,0.39688 0,0.28291 -0.2849,0.39575 -0.99219,0.39297 -0.5457,-0.002 -1.28984,-0.15371 -1.653642,-0.33681 z m 2.116662,-2.18959 c 0,-0.30564 -0.21919,-0.39199 -0.83952,-0.33073 -0.46173,0.0456 -0.888372,0.23174 -0.948086,0.41364 -0.07329,0.22325 0.199532,0.33073 0.839516,0.33073 0.68344,0 0.94809,-0.11547 0.94809,-0.41364 z m 3.59622,2.38541 c -0.19123,-0.14831 -0.067,-0.42655 -0.067,-0.54782 0,-0.12127 0.57517,-0.10104 1.38766,-0.10104 1.0634,0 1.44681,-0.0926 1.36855,-0.33073 -0.0598,-0.1819 -0.69479,-0.39026 -1.41111,-0.46302 -1.12572,-0.11434 -1.31451,-0.21796 -1.3917,-0.76383 -0.0491,-0.34734 0.07,-0.73247 0.26459,-0.85584 0.19463,-0.12337 0.97895,-0.22613 1.74294,-0.22836 0.76398,-0.002 1.39503,-0.0946 1.38906,0.24604 -0.008,0.47193 -0.55624,0.28637 -1.23609,0.33072 -0.69084,0.0451 -1.29605,0.14292 -1.3569,0.32777 -0.0749,0.22735 0.2316,0.41434 0.95413,0.41434 0.64786,0 1.29922,0.18632 1.6757,0.51209 0.34353,0.29726 0.39549,0.71778 0.15711,1.02903 -0.23718,0.3097 -0.98094,0.44235 -1.83416,0.51204 -0.52634,-0.0102 -1.45204,0.0665 -1.64274,-0.0814 z m -22.150776,-2.67954 c -0.490774,-0.19657 -1.160206,-0.75018 -1.487628,-1.23025 -0.327422,-0.48007 -0.595313,-1.2478 -0.595313,-1.70607 0,-0.51643 0.220159,-1.03833 0.579057,-1.37269 0.318482,-0.29671 0.884029,-0.53903 1.256771,-0.53849 0.372743,5.5e-4 1.058887,0.23341 1.524765,0.51747 0.465878,0.28406 1.031425,0.87302 1.256771,1.30879 0.225346,0.43577 0.40972,1.06939 0.40972,1.40804 0,0.33865 -0.175164,0.8658 -0.389253,1.17146 -0.214089,0.30565 -0.675751,0.6105 -1.025914,0.67744 -0.350163,0.0669 -1.038202,-0.0391 -1.528976,-0.2357 z m 2.207398,-0.48294 c 0.258952,-0.24853 0.472162,-0.76392 0.472162,-1.1124 0,-0.34847 -0.180609,-0.98285 -0.401354,-1.40972 -0.220744,-0.42687 -0.750613,-0.95674 -1.177486,-1.17749 -0.426873,-0.22074 -0.98273,-0.40135 -1.235239,-0.40135 -0.252509,0 -0.757404,0.0321 -1.124092,0.47005 -0.331456,0.39589 -0.497852,0.68432 -0.557679,1.19325 -0.03221,0.27401 0.175847,0.82369 0.393297,1.24419 0.21745,0.42051 0.660661,0.95037 0.984913,1.17749 0.324252,0.22711 0.940635,0.44802 1.36974,0.44802 0.429105,0 0.793297,0.031 1.275738,-0.43204 z m -2.68922,-0.59523 c -0.433665,-0.40018 -0.86258,-1.04471 -0.953145,-1.43228 -0.121355,-0.51934 -0.02321,-0.86595 0.41036,-1.2797 0.511483,-0.4881 0.760362,-0.53172 1.279699,-0.41036 0.387572,0.0906 1.032098,0.51948 1.43228,0.95314 0.400182,0.43367 0.727604,1.06581 0.727604,1.40476 0,0.33895 -0.217734,0.81333 -0.483854,1.05416 -0.26612,0.24084 -0.787264,0.37941 -1.100931,0.37941 -0.313668,0 -0.878349,-0.26895 -1.312013,-0.66913 z m 13.215549,-0.59531 c 0,-0.14553 0.178593,-0.26459 0.396875,-0.26459 0.218281,0 0.396875,0.11906 0.396875,0.26459 0,0.14552 -0.178594,0.26458 -0.396875,0.26458 -0.218282,0 -0.396875,-0.11906 -0.396875,-0.26458 z m 4.478899,14.22548 c -0.006,-0.21819 -0.220794,-0.23374 -0.377816,-0.23701 -0.163359,-0.003 -0.284577,0.0645 -0.283884,0.26374 3.99e-4,0.11476 0.171309,0.13281 0.300777,0.1389 0.165463,0.008 0.365143,-0.0128 0.360923,-0.16563 z"
       inkscape:path-effect="#path-effect2" /><path
       d="m 111.93057,156.96564 c -0.002,-0.16906 -0.0344,-0.50345 0.0175,-0.56751 0.0242,-0.0299 0.14379,-0.0483 0.18386,0.002 0.0273,0.0335 0.0303,0.14502 0.0613,0.12753 0.0641,-0.0365 0.16492,-0.0767 0.24342,-0.0886 0.25896,-0.0394 0.62968,-0.0155 0.80431,0.15913 0.17462,0.17462 0.16659,0.65093 0.16417,0.76732 -0.003,0.14329 -0.13273,0.10982 -0.27823,0.11262 -0.10962,0.002 -0.11744,-0.23149 -0.11744,-0.44977 0,-0.21828 -0.0659,-0.37328 -0.28018,-0.36695 -0.13822,0.004 -0.32758,-0.0121 -0.37964,0.0808 -0.14932,0.26566 0.0985,0.76904 -0.28465,0.77488 -0.15207,0.002 -0.13107,-0.29238 -0.13456,-0.55031 z m 1.12817,-0.0615 c -0.002,-0.16906 -0.12502,-0.3529 -0.0731,-0.41696 0.0242,-0.0299 0.17741,0.0292 0.21748,0.0795 0.0273,0.0335 0.0505,-0.0441 0.1183,-0.10048 0.0567,-0.0472 0.16492,-0.0767 0.24342,-0.0886 0.24792,-0.006 0.62593,-0.004 0.80431,0.15913 0.18211,0.1668 0.14028,0.62754 0.13786,0.74393 -0.003,0.14329 -0.10642,0.13321 -0.25192,0.13601 -0.10962,0.002 -0.11744,-0.23149 -0.11744,-0.44977 0,-0.21828 -0.0659,-0.37328 -0.28018,-0.36695 -0.13822,0.004 -0.33196,-0.0106 -0.38402,0.0823 -0.14932,0.26566 -0.0111,0.7705 -0.28465,0.77488 -0.15207,0.002 -0.12669,-0.29384 -0.13018,-0.55177 z"
       style="fill:#ff3000;fill-opacity:1"
       id="path1-64"
       sodipodi:nodetypes="cscccsscsccccccscscsscsccccc" /><path
       d="m 121.05569,157.85848 c 0,0 0.0284,-0.67209 0.0262,-1.12078 -0.002,-0.44869 0.0441,-0.63784 -0.21038,-0.63346 -0.11799,0.002 -0.17691,0.10702 -0.18286,0.42075 -0.09,0.0535 -0.3711,0.0553 -0.56577,0.0773 -0.29057,0.0328 -0.53232,0.36644 -0.53121,0.63315 0.001,0.24746 0.14635,0.56771 0.37006,0.61079 0.22371,0.0431 1.09396,0.0122 1.09396,0.0122 z m -1.08781,-0.60769 c 0,-0.21828 0.1786,-0.39688 0.39688,-0.39688 0.21828,0 0.39687,0.1786 0.39687,0.39688 0,0.21828 -0.17859,0.39687 -0.39687,0.39687 -0.21828,0 -0.39688,-0.17859 -0.39688,-0.39687 z"
       style="fill:#ff3000;fill-opacity:1"
       id="path1-1" /><path
       d="m 126.42283,157.03279 c -0.002,-0.16906 -0.0344,-0.50345 0.0175,-0.56751 0.0242,-0.0299 0.14379,-0.0483 0.18386,0.002 0.0273,0.0335 0.0303,0.14502 0.0613,0.12753 0.0641,-0.0365 0.16492,-0.0767 0.24342,-0.0886 0.25896,-0.0394 0.62968,-0.0155 0.80431,0.15913 0.17462,0.17462 0.14028,0.62754 0.13786,0.74393 -0.003,0.14329 -0.10642,0.13321 -0.25192,0.13601 -0.10962,0.002 -0.11744,-0.23149 -0.11744,-0.44977 0,-0.21828 -0.0659,-0.37328 -0.28018,-0.36695 -0.13822,0.004 -0.32758,-0.0121 -0.37964,0.0808 -0.14932,0.26566 0.0985,0.76904 -0.28465,0.77488 -0.15207,0.002 -0.13107,-0.29238 -0.13456,-0.55031 z"
       style="fill:#ff3000;fill-opacity:1"
       id="path1-54" /></g></svg>
