<?xml version="1.0" encoding="UTF-8" standalone="no"?>
<!-- Created with Inkscape (http://www.inkscape.org/) -->

<svg
   width="119.26116mm"
   height="78.785126mm"
   viewBox="0 0 119.26116 78.785127"
   version="1.1"
   id="svg1"
   xml:space="preserve"
   inkscape:export-filename="logo-virgen-gracia.svg"
   inkscape:export-xdpi="96"
   inkscape:export-ydpi="96"
   xmlns:inkscape="http://www.inkscape.org/namespaces/inkscape"
   xmlns:sodipodi="http://sodipodi.sourceforge.net/DTD/sodipodi-0.dtd"
   xmlns="http://www.w3.org/2000/svg"
   xmlns:svg="http://www.w3.org/2000/svg"><sodipodi:namedview
     id="namedview1"
     pagecolor="#505050"
     bordercolor="#eeeeee"
     borderopacity="1"
     inkscape:showpageshadow="0"
     inkscape:pageopacity="0"
     inkscape:pagecheckerboard="0"
     inkscape:deskcolor="#505050"
     inkscape:document-units="mm"
     inkscape:zoom="1"
     inkscape:cx="283"
     inkscape:cy="235.5"
     inkscape:window-width="1920"
     inkscape:window-height="991"
     inkscape:window-x="-9"
     inkscape:window-y="-9"
     inkscape:window-maximized="1"
     inkscape:current-layer="svg1" /><defs
     id="defs1" /><path
     style="fill:#000000"
     d="m 9.2910772,78.735169 c -0.120395,-0.024 -0.348062,-0.09277 -0.505927,-0.152816 -0.157865,-0.06005 -0.397646,-0.174001 -0.532847,-0.253234 -0.1352,-0.07923 -0.363267,-0.261508 -0.506814,-0.405055 -0.143548,-0.143548 -0.343881,-0.416504 -0.445186,-0.606571 -0.101304,-0.190067 -0.217839,-0.471948 -0.258965,-0.626403 -0.04113,-0.154455 -0.07478,-0.514777 -0.07478,-0.800715 0,-0.285939 0.03365,-0.646261 0.07478,-0.800716 0.04113,-0.154455 0.154419,-0.430253 0.251761,-0.612885 0.09788,-0.183653 0.327978,-0.47705 0.514834,-0.656477 0.185817,-0.178431 0.493501,-0.402993 0.683742,-0.499026 0.190241,-0.09603 0.534124,-0.224865 0.764185,-0.286291 0.314988,-0.0841 0.587233,-0.111723 1.1023548,-0.111837 0.410046,-9.1e-5 0.85807,0.03491 1.118456,0.08738 0.238917,0.04814 0.449859,0.106303 0.468762,0.129247 0.0189,0.02294 0.02044,0.398795 0.0034,0.835227 -0.03096,0.793513 -0.03096,0.793513 -0.213936,0.811044 -0.112697,0.0108 -0.220444,-0.01638 -0.280527,-0.07075 -0.05365,-0.04855 -0.111671,-0.175287 -0.128927,-0.281626 -0.01726,-0.106339 -0.09335,-0.299089 -0.169088,-0.428333 -0.08418,-0.143643 -0.218213,-0.274985 -0.344799,-0.337879 -0.161797,-0.08039 -0.326764,-0.102612 -0.754335,-0.101618 -0.4740768,0.0011 -0.5885788,0.02048 -0.8563358,0.14491 -0.169996,0.079 -0.412615,0.247168 -0.539153,0.373706 -0.126537,0.126537 -0.288688,0.358111 -0.360335,0.514608 -0.07165,0.156497 -0.159777,0.474359 -0.195845,0.706359 -0.04928,0.316953 -0.05057,0.534005 -0.0052,0.873082 0.03321,0.248196 0.112862,0.591539 0.177009,0.762986 0.06624,0.177053 0.225116,0.432385 0.367744,0.591022 0.138113,0.153614 0.376895,0.343534 0.530628,0.422044 0.206343,0.105378 0.390601,0.149407 0.703871,0.168194 0.2527968,0.01516 0.5228958,-0.0021 0.6680908,-0.04279 0.134053,-0.03753 0.343653,-0.153769 0.465778,-0.258303 0.147277,-0.126064 0.296305,-0.343485 0.442584,-0.645695 0.220538,-0.455633 0.220538,-0.455633 0.395902,-0.405642 0.09645,0.02749 0.20669,0.09247 0.244978,0.144388 0.03829,0.05192 0.05697,0.127344 0.04152,0.16761 -0.01545,0.04027 -0.06658,0.299549 -0.113629,0.576183 -0.04704,0.276635 -0.09716,0.580513 -0.111367,0.675286 -0.02439,0.162722 -0.04631,0.177113 -0.393785,0.258515 -0.202374,0.04741 -0.514077,0.11147 -0.692673,0.142355 -0.178596,0.03088 -0.54799,0.05345 -0.820876,0.05016 -0.2728858,-0.0033 -0.5946608,-0.02564 -0.7150558,-0.04964 z M 30.165211,78.148825 c -0.129287,-0.354234 -0.549475,-1.493036 -0.933751,-2.530672 -0.384277,-1.037635 -0.738844,-1.915975 -0.787929,-1.951866 -0.04908,-0.03589 -0.211719,-0.0821 -0.36141,-0.10269 -0.272165,-0.03743 -0.272165,-0.03743 -0.255711,-0.291859 0.01646,-0.254428 0.01646,-0.254428 1.173976,-0.257171 1.157522,-0.0027 1.157522,-0.0027 1.189668,0.191538 0.01768,0.106854 0.03242,0.221633 0.03275,0.255064 3.32e-4,0.03343 -0.125868,0.07576 -0.280444,0.09407 -0.154576,0.01831 -0.293584,0.04582 -0.308907,0.06115 -0.01532,0.01532 0.250156,0.816982 0.589954,1.781464 0.339798,0.964482 0.623887,1.746907 0.631309,1.738722 0.0074,-0.0082 0.299373,-0.775008 0.648781,-1.704049 0.349407,-0.929041 0.635286,-1.72082 0.635286,-1.759509 0,-0.0454 -0.118611,-0.08411 -0.334522,-0.109169 -0.334523,-0.03883 -0.334523,-0.03883 -0.30159,-0.237954 0.01811,-0.109521 0.0332,-0.22518 0.03353,-0.257019 4.04e-4,-0.03879 0.348069,-0.05677 1.05406,-0.0545 1.053457,0.0034 1.053457,0.0034 1.070872,0.184595 0.0096,0.09966 -0.01031,0.214611 -0.04419,0.255441 -0.03389,0.04083 -0.156012,0.09018 -0.271392,0.109677 -0.11538,0.01949 -0.258186,0.08914 -0.317346,0.154772 -0.05916,0.06563 -0.205926,0.353278 -0.326147,0.639217 -0.120221,0.285938 -0.559241,1.381807 -0.975601,2.435264 -0.41636,1.053457 -0.758648,1.918196 -0.76064,1.921644 -0.002,0.0034 -0.130053,0.02239 -0.284578,0.04209 -0.280957,0.03582 -0.280957,0.03582 -0.516025,-0.608243 z m 14.615052,0.604403 c -0.07525,-0.01247 -0.296883,-0.07252 -0.492525,-0.133454 -0.195642,-0.06093 -0.466531,-0.175065 -0.601975,-0.253628 -0.135445,-0.07856 -0.374852,-0.264329 -0.532015,-0.412813 -0.157164,-0.148483 -0.358415,-0.384033 -0.447225,-0.523445 -0.08881,-0.139411 -0.21608,-0.413546 -0.282824,-0.609188 -0.09557,-0.28012 -0.121071,-0.477823 -0.120024,-0.930325 9.95e-4,-0.430314 0.0302,-0.664932 0.116288,-0.934273 0.06323,-0.197813 0.209443,-0.505846 0.324925,-0.684518 0.115481,-0.178672 0.324076,-0.425302 0.463544,-0.548067 0.139467,-0.122764 0.400852,-0.301705 0.580854,-0.397645 0.180003,-0.09594 0.519706,-0.224946 0.754896,-0.28668 0.299616,-0.07864 0.616005,-0.114227 1.056957,-0.118872 0.399803,-0.0042 0.832199,0.02998 1.185542,0.09376 0.305912,0.05521 0.577051,0.115464 0.602531,0.133897 0.02548,0.01843 0.03761,0.396751 0.02696,0.840708 -0.01937,0.807194 -0.01937,0.807194 -0.222677,0.807194 -0.11182,0 -0.241965,-0.03078 -0.289211,-0.06841 -0.04725,-0.03762 -0.09982,-0.161765 -0.116833,-0.27587 -0.01701,-0.114104 -0.08371,-0.292863 -0.14822,-0.39724 -0.06451,-0.104378 -0.232121,-0.257282 -0.372471,-0.339788 -0.236508,-0.139032 -0.299233,-0.149991 -0.857157,-0.149753 -0.53473,2.28e-4 -0.635597,0.01618 -0.902963,0.142798 -0.165543,0.0784 -0.393543,0.233582 -0.506666,0.344855 -0.113123,0.111273 -0.254829,0.298658 -0.314902,0.416411 -0.06007,0.117754 -0.145694,0.368787 -0.190269,0.557852 -0.04458,0.189064 -0.08141,0.518355 -0.08185,0.731756 -4.44e-4,0.213402 0.04847,0.580674 0.108696,0.81616 0.06023,0.235487 0.169683,0.530845 0.243234,0.656351 0.07355,0.125506 0.23674,0.321256 0.362641,0.435 0.125901,0.113745 0.342744,0.257786 0.481873,0.320092 0.169467,0.07589 0.408271,0.121093 0.723502,0.136943 0.334703,0.01683 0.559829,-0.0023 0.779832,-0.06625 0.309291,-0.08991 0.309291,-0.08991 0.309291,-0.74644 0,-0.654383 -4.59e-4,-0.6567 -0.140376,-0.709896 -0.07721,-0.02935 -0.245773,-0.05337 -0.374593,-0.05337 -0.157407,0 -0.263921,-0.03282 -0.324788,-0.100078 -0.04981,-0.05504 -0.09057,-0.178174 -0.09057,-0.273625 0,-0.173547 0,-0.173547 1.203951,-0.173547 1.203951,0 1.203951,0 1.203951,0.240172 0,0.229803 -0.008,0.241679 -0.186039,0.275073 -0.102321,0.0192 -0.215321,0.07019 -0.251111,0.113308 -0.04611,0.05556 -0.05967,0.333777 -0.04654,0.954946 0.01853,0.876539 0.01853,0.876539 -0.446634,0.983818 -0.25584,0.059 -0.611287,0.133465 -0.789883,0.165469 -0.178595,0.032 -0.535676,0.05484 -0.793513,0.05074 -0.257836,-0.0041 -0.530359,-0.01765 -0.605606,-0.03012 z m 12.986853,-0.330559 c -0.149542,-0.20386 -0.894596,-1.109443 -1.655675,-2.012407 -0.761079,-0.902963 -1.393268,-1.652011 -1.404863,-1.664553 -0.0116,-0.01254 -0.02108,0.695464 -0.02108,1.573345 0,1.52318 0.005,1.60115 0.10945,1.705597 0.07659,0.07659 0.182417,0.10945 0.352483,0.10945 0.133668,0 0.252964,0.01847 0.265103,0.04104 0.01214,0.02257 0.011,0.145705 -0.0025,0.273625 -0.02459,0.232581 -0.02459,0.232581 -1.085978,0.232581 -1.06139,0 -1.06139,0 -1.06139,-0.240407 0,-0.168737 0.02581,-0.250311 0.08656,-0.273625 0.04761,-0.01827 0.155699,-0.03322 0.2402,-0.03322 0.0845,0 0.211773,-0.04705 0.28283,-0.104556 0.129194,-0.104557 0.129194,-0.104557 0.147286,-1.84697 0.01,-0.958328 0.0023,-1.869755 -0.01708,-2.025395 -0.02267,-0.182443 -0.07957,-0.330888 -0.160136,-0.417822 -0.08685,-0.09371 -0.211004,-0.146673 -0.40704,-0.173635 -0.282075,-0.0388 -0.282075,-0.0388 -0.282075,-0.276693 0,-0.130844 0.02614,-0.254056 0.0581,-0.273806 0.03196,-0.01975 0.358254,-0.01786 0.725107,0.0042 0.667007,0.04011 0.667007,0.04011 2.308758,1.98283 1.641751,1.942726 1.641751,1.942726 1.656367,0.604174 0.008,-0.736204 -0.0043,-1.469496 -0.02736,-1.629539 -0.02404,-0.166652 -0.07705,-0.309886 -0.124066,-0.335217 -0.04515,-0.02433 -0.200342,-0.05949 -0.344875,-0.07813 -0.262788,-0.0339 -0.262788,-0.0339 -0.246263,-0.279205 0.01653,-0.245304 0.01653,-0.245304 1.056301,-0.256164 1.039776,-0.01086 1.039776,-0.01086 1.05603,0.238672 0.01626,0.249531 0.01626,0.249531 -0.272743,0.300988 -0.225557,0.04016 -0.30403,0.08149 -0.357479,0.188268 -0.05165,0.103192 -0.06868,0.724114 -0.06929,2.526685 -8.06e-4,2.389872 -8.06e-4,2.389872 -0.178663,2.425668 -0.09782,0.01969 -0.217512,0.04684 -0.26598,0.06034 -0.05978,0.01665 -0.175566,-0.09466 -0.36002,-0.346117 z m 21.790356,0.315979 c -0.120699,-0.02591 -0.363228,-0.09764 -0.538954,-0.159402 -0.175726,-0.06176 -0.434054,-0.185845 -0.574061,-0.275738 -0.140007,-0.08989 -0.358932,-0.266841 -0.4865,-0.393217 -0.127567,-0.126376 -0.304192,-0.343198 -0.392499,-0.481826 -0.08831,-0.138629 -0.215167,-0.412123 -0.281911,-0.607765 -0.09556,-0.28012 -0.121071,-0.477823 -0.120024,-0.930325 9.95e-4,-0.430314 0.0302,-0.664932 0.116288,-0.934273 0.06323,-0.197813 0.209444,-0.505846 0.324925,-0.684518 0.115481,-0.178672 0.324076,-0.425302 0.463544,-0.548067 0.139468,-0.122764 0.400852,-0.301705 0.580855,-0.397645 0.180002,-0.09594 0.519705,-0.224946 0.754896,-0.28668 0.299615,-0.07864 0.616004,-0.114227 1.056956,-0.118872 0.399803,-0.0042 0.8322,0.02998 1.185542,0.09376 0.305913,0.05521 0.577051,0.115464 0.602531,0.133897 0.02548,0.01843 0.03761,0.396751 0.02696,0.840708 -0.01937,0.807194 -0.01937,0.807194 -0.222677,0.807194 -0.11182,0 -0.241965,-0.03078 -0.289211,-0.06841 -0.04725,-0.03762 -0.09982,-0.161765 -0.116834,-0.27587 -0.01701,-0.114104 -0.08371,-0.292863 -0.14822,-0.39724 -0.06451,-0.104378 -0.232121,-0.257282 -0.372471,-0.339788 -0.236507,-0.139032 -0.299232,-0.149991 -0.857156,-0.149753 -0.535036,2.28e-4 -0.635445,0.01613 -0.902963,0.142986 -0.165544,0.0785 -0.39575,0.238456 -0.511569,0.355456 -0.11582,0.117 -0.257526,0.3043 -0.314902,0.416223 -0.05738,0.111923 -0.140792,0.358186 -0.185367,0.547251 -0.04457,0.189064 -0.08141,0.518355 -0.08185,0.731756 -4.45e-4,0.213402 0.04847,0.580674 0.108695,0.81616 0.06023,0.235487 0.169683,0.530845 0.243234,0.656351 0.07355,0.125506 0.236741,0.321256 0.362642,0.435 0.125901,0.113745 0.342743,0.257786 0.481872,0.320092 0.169467,0.07589 0.408271,0.121093 0.723502,0.136943 0.334703,0.01683 0.559829,-0.0023 0.779832,-0.06625 0.309291,-0.08991 0.309291,-0.08991 0.309291,-0.74644 0,-0.654383 -4.58e-4,-0.6567 -0.140375,-0.709896 -0.07721,-0.02935 -0.245774,-0.05337 -0.374594,-0.05337 -0.157406,0 -0.26392,-0.03282 -0.324787,-0.100078 -0.04981,-0.05504 -0.09057,-0.178174 -0.09057,-0.273625 0,-0.173547 0,-0.173547 1.203951,-0.173547 1.203951,0 1.203951,0 1.203951,0.240172 0,0.229803 -0.008,0.241679 -0.186039,0.275073 -0.102321,0.0192 -0.215321,0.07019 -0.25111,0.113308 -0.04611,0.05556 -0.05967,0.333771 -0.04654,0.954917 0.01853,0.876509 0.01853,0.876509 -0.583446,1.02067 -0.428012,0.102499 -0.791754,0.149597 -1.258676,0.162975 -0.361185,0.01035 -0.755454,-0.0024 -0.876153,-0.02829 z m 17.184215,-5.2e-5 c -0.1204,-0.02589 -0.34806,-0.0962 -0.50593,-0.156243 -0.15786,-0.06005 -0.39764,-0.174001 -0.53285,-0.253234 -0.1352,-0.07923 -0.36326,-0.261508 -0.50681,-0.405055 -0.14355,-0.143548 -0.34388,-0.416504 -0.44519,-0.606571 -0.1013,-0.190067 -0.21783,-0.471948 -0.25896,-0.626403 -0.0411,-0.154455 -0.0748,-0.514777 -0.0748,-0.800715 0,-0.285939 0.0337,-0.646261 0.0748,-0.800716 0.0411,-0.154455 0.15442,-0.430253 0.25176,-0.612885 0.0979,-0.183653 0.32798,-0.47705 0.51483,-0.656477 0.18582,-0.178431 0.49351,-0.402993 0.68375,-0.499026 0.19024,-0.09603 0.53412,-0.224865 0.76418,-0.286291 0.31499,-0.0841 0.58723,-0.111723 1.10236,-0.111837 0.41004,-9.1e-5 0.85807,0.03491 1.11845,0.08738 0.23892,0.04814 0.44986,0.106303 0.46876,0.129247 0.0189,0.02294 0.0204,0.398795 0.003,0.835227 -0.031,0.793513 -0.031,0.793513 -0.21393,0.811044 -0.1127,0.0108 -0.22045,-0.01638 -0.28053,-0.07075 -0.0536,-0.04855 -0.11167,-0.175287 -0.12893,-0.281626 -0.0173,-0.106339 -0.0933,-0.299089 -0.16909,-0.428333 -0.0842,-0.143643 -0.21821,-0.274985 -0.3448,-0.337879 -0.16179,-0.08039 -0.32676,-0.102612 -0.75433,-0.101618 -0.47408,0.0011 -0.58858,0.02048 -0.85634,0.14491 -0.16999,0.079 -0.41261,0.247168 -0.53915,0.373706 -0.12654,0.126537 -0.28869,0.358111 -0.36033,0.514608 -0.0717,0.156497 -0.15978,0.474359 -0.19585,0.706359 -0.0493,0.316953 -0.0506,0.534005 -0.005,0.873082 0.0332,0.248196 0.11286,0.591539 0.17701,0.762986 0.0662,0.177053 0.22511,0.432385 0.36774,0.591022 0.13812,0.153614 0.3769,0.343534 0.53063,0.422044 0.20634,0.105378 0.3906,0.149407 0.70387,0.168194 0.2528,0.01516 0.5229,-0.0021 0.66809,-0.04279 0.13406,-0.03753 0.34366,-0.153769 0.46578,-0.258303 0.14728,-0.126064 0.29631,-0.343485 0.44258,-0.645695 0.22054,-0.455633 0.22054,-0.455633 0.39591,-0.405642 0.0964,0.02749 0.20669,0.09247 0.24497,0.144388 0.0383,0.05192 0.057,0.127344 0.0415,0.16761 -0.0155,0.04027 -0.0666,0.299549 -0.11362,0.576183 -0.0471,0.276635 -0.0973,0.581135 -0.11163,0.676667 -0.0255,0.169702 -0.0377,0.176474 -0.5306,0.294499 -0.34153,0.08178 -0.72549,0.126489 -1.18857,0.138405 -0.37623,0.0097 -0.78257,-0.0036 -0.90296,-0.02947 z m -33.061598,-0.04342 c -0.82855,-0.01661 -0.82855,-0.01661 -0.852606,-0.180512 -0.01323,-0.09015 0.01009,-0.212651 0.05182,-0.272232 0.04917,-0.0702 0.138528,-0.10833 0.253852,-0.10833 0.09789,0 0.225778,-0.03493 0.284203,-0.07763 0.101424,-0.07412 0.106959,-0.171839 0.122369,-2.160642 0.01029,-1.327508 -0.0039,-2.12042 -0.03905,-2.186147 -0.03746,-0.06999 -0.141919,-0.114637 -0.325037,-0.138928 -0.148414,-0.01969 -0.298746,-0.07062 -0.334073,-0.11319 -0.03533,-0.04257 -0.05639,-0.159037 -0.04682,-0.258824 0.01741,-0.181432 0.01741,-0.181432 0.810928,-0.186962 0.436432,-0.003 1.125968,-0.01067 1.532301,-0.01695 0.50493,-0.0078 0.868709,0.01602 1.149226,0.07528 0.225741,0.04769 0.582822,0.168875 0.793513,0.269309 0.210691,0.100435 0.493893,0.281768 0.629338,0.402963 0.135444,0.121194 0.32538,0.352402 0.422079,0.513794 0.0967,0.161392 0.21679,0.453511 0.266867,0.649153 0.06795,0.265453 0.0838,0.494574 0.06246,0.902963 -0.02115,0.40497 -0.06568,0.645102 -0.17127,0.923617 -0.07848,0.207002 -0.254887,0.533607 -0.392026,0.72579 -0.137138,0.192182 -0.377167,0.444906 -0.533397,0.561608 -0.15623,0.116702 -0.415703,0.278077 -0.576608,0.358611 -0.160905,0.08053 -0.478829,0.194066 -0.706498,0.252294 -0.304587,0.0779 -0.56705,0.102661 -0.993485,0.09372 -0.318747,-0.0067 -0.952387,-0.01962 -1.40809,-0.02876 z m 2.483124,-0.803255 c 0.214673,-0.09757 0.43422,-0.254545 0.592122,-0.423355 0.138022,-0.147557 0.313371,-0.404633 0.389665,-0.571281 0.07629,-0.166648 0.165467,-0.475821 0.198163,-0.687051 0.04374,-0.282613 0.04266,-0.499225 -0.0041,-0.820092 -0.04273,-0.293152 -0.12072,-0.543295 -0.238004,-0.763343 -0.09595,-0.180017 -0.257659,-0.400361 -0.359357,-0.489654 -0.101699,-0.08929 -0.300972,-0.220806 -0.44283,-0.292253 -0.141858,-0.07145 -0.388424,-0.157594 -0.547924,-0.191436 -0.1595,-0.03384 -0.420557,-0.06153 -0.580128,-0.06153 -0.15957,0 -0.367681,0.02704 -0.462469,0.06008 -0.172341,0.06008 -0.172341,0.06008 -0.172341,2.15773 0,1.890632 0.0091,2.106715 0.09184,2.189493 0.07709,0.07709 0.180391,0.0883 0.643019,0.06981 0.459024,-0.01835 0.608219,-0.04796 0.89235,-0.17711 z M 12.91205,78.644868 c -0.02006,-0.02007 -0.03648,-0.102441 -0.03648,-0.183056 0,-0.08061 0.04503,-0.187329 0.100078,-0.237142 0.05504,-0.04981 0.161154,-0.09057 0.235803,-0.09057 0.07465,0 0.183528,-0.03493 0.241954,-0.07763 0.101424,-0.07412 0.106958,-0.171839 0.122368,-2.160642 0.01037,-1.338801 -0.0037,-2.120172 -0.03952,-2.187019 -0.03587,-0.06703 -0.142167,-0.116977 -0.298972,-0.140491 -0.133821,-0.02007 -0.27163,-0.07061 -0.306244,-0.112318 -0.03461,-0.04171 -0.0551,-0.157474 -0.04552,-0.257261 0.01742,-0.181432 0.01742,-0.181432 1.166641,-0.181432 1.149226,0 1.149226,0 1.166641,0.181432 0.0096,0.09979 -0.0098,0.214185 -0.04299,0.254219 -0.03323,0.04003 -0.15188,0.08988 -0.263678,0.110772 -0.111798,0.02089 -0.234052,0.06342 -0.271675,0.09451 -0.05263,0.04349 -0.06841,0.558344 -0.06841,2.232447 0,2.175918 0,2.175918 0.123132,2.208916 0.06772,0.01815 0.215479,0.03333 0.32835,0.03374 0.201007,7.32e-4 0.205219,0.005 0.205219,0.208702 0,0.114376 -0.02955,0.237507 -0.06567,0.273625 -0.04662,0.04662 -0.3774,0.06567 -1.140105,0.06567 -0.590939,0 -1.090853,-0.01642 -1.110919,-0.03648 z m 2.961556,-0.128812 c -0.01337,-0.0911 0.0098,-0.213919 0.05162,-0.273625 0.04917,-0.0702 0.138528,-0.10833 0.253852,-0.10833 0.09789,0 0.225778,-0.03493 0.284204,-0.07763 0.101424,-0.07412 0.106958,-0.171839 0.122368,-2.160642 0.01029,-1.327508 -0.0039,-2.12042 -0.03905,-2.186147 -0.03746,-0.06999 -0.141919,-0.114637 -0.325038,-0.138928 -0.148413,-0.01969 -0.298746,-0.07062 -0.334073,-0.11319 -0.03533,-0.04257 -0.05639,-0.157274 -0.04682,-0.254905 0.01742,-0.177513 0.01742,-0.177513 1.945536,-0.193267 1.92812,-0.01575 1.92812,-0.01575 1.994689,0.105531 0.03661,0.06671 0.06288,0.170538 0.05837,0.230736 -0.0045,0.0602 -0.0241,0.374182 -0.04354,0.697744 -0.03533,0.588294 -0.03533,0.588294 -0.297477,0.588294 -0.262145,0 -0.262145,0 -0.300929,-0.259944 -0.02133,-0.142969 -0.07219,-0.340136 -0.113017,-0.438148 -0.04218,-0.101265 -0.135983,-0.201682 -0.217255,-0.232582 -0.07866,-0.02991 -0.399995,-0.05438 -0.714072,-0.05438 -0.571051,0 -0.571051,0 -0.571051,0.937652 0,0.937651 0,0.937651 0.846261,0.91193 0.545158,-0.01657 0.866435,-0.0055 0.902963,0.03098 0.03119,0.03119 0.0567,0.183405 0.0567,0.338263 0,0.204832 -0.02769,0.306624 -0.101622,0.373529 -0.0783,0.07086 -0.169362,0.08571 -0.396757,0.06472 -0.162323,-0.01499 -0.522927,-0.04113 -0.80134,-0.05809 -0.506207,-0.03084 -0.506207,-0.03084 -0.506207,0.875446 0,0.906284 0,0.906284 0.140375,0.959655 0.07721,0.02935 0.233461,0.05337 0.347231,0.05337 0.130899,0 0.240113,0.03675 0.297426,0.100078 0.04981,0.05504 0.09057,0.178174 0.09057,0.273625 0,0.173547 0,0.173547 -1.279827,0.173547 -1.279827,0 -1.279827,0 -1.304088,-0.165295 z m 4.470785,-0.06038 c -0.0277,-0.163942 -0.01779,-0.23856 0.03623,-0.272787 0.0409,-0.02591 0.149689,-0.04749 0.241757,-0.04795 0.09207,-4.61e-4 0.2152,-0.03577 0.273626,-0.07847 0.101424,-0.07412 0.106958,-0.171839 0.122368,-2.160642 0.01037,-1.338801 -0.0037,-2.120172 -0.03952,-2.187019 -0.03587,-0.06703 -0.142167,-0.116977 -0.298972,-0.140491 -0.133821,-0.02007 -0.27163,-0.07061 -0.306244,-0.112318 -0.03461,-0.04171 -0.0551,-0.157474 -0.04552,-0.257261 0.01742,-0.181432 0.01742,-0.181432 1.358179,-0.194278 1.045489,-0.01002 1.413075,0.0053 1.669114,0.06947 0.180592,0.04527 0.463054,0.174186 0.627693,0.286472 0.227705,0.155298 0.339027,0.281847 0.465163,0.528791 0.144398,0.282697 0.16573,0.381708 0.165128,0.766408 -5.79e-4,0.370317 -0.0251,0.491665 -0.151614,0.750246 -0.08301,0.169661 -0.26308,0.411858 -0.400161,0.538215 -0.137082,0.126358 -0.388997,0.294464 -0.559812,0.37357 -0.259382,0.120122 -0.407539,0.147372 -0.898867,0.165326 -0.588294,0.0215 -0.588294,0.0215 -0.588294,0.802573 0,0.763745 0.0027,0.781809 0.123132,0.814075 0.06772,0.01815 0.211663,0.03333 0.319868,0.03374 0.120335,4.57e-4 0.23191,0.03961 0.287307,0.100825 0.04981,0.05504 0.09057,0.178174 0.09057,0.273625 0,0.173547 0,0.173547 -1.226503,0.173547 -1.226503,0 -1.226503,0 -1.26463,-0.225671 z m 2.409045,-2.626546 c 0.120395,-0.03335 0.28718,-0.109162 0.370633,-0.168479 0.08345,-0.05932 0.197477,-0.198122 0.253386,-0.308458 0.05591,-0.110336 0.118735,-0.303216 0.139612,-0.428623 0.02088,-0.125407 0.02093,-0.341539 1.27e-4,-0.480294 -0.02081,-0.138755 -0.09035,-0.329523 -0.154532,-0.423928 -0.06418,-0.0944 -0.205918,-0.217673 -0.314961,-0.273929 -0.109044,-0.05626 -0.322465,-0.116993 -0.47427,-0.134972 -0.151804,-0.01798 -0.339632,-0.01672 -0.417395,0.0028 -0.141388,0.03549 -0.141388,0.03549 -0.141388,1.124384 0,0.819914 0.0169,1.095716 0.06841,1.1165 0.03762,0.01518 0.154598,0.02941 0.259943,0.03162 0.105346,0.0022 0.290043,-0.02327 0.410438,-0.05662 z m 11.173029,2.815734 c -0.02007,-0.02007 -0.03648,-0.102441 -0.03648,-0.183056 0,-0.08061 0.04503,-0.187329 0.100078,-0.237142 0.05504,-0.04981 0.161154,-0.09057 0.235803,-0.09057 0.07465,0 0.183528,-0.03493 0.241954,-0.07763 0.101424,-0.07412 0.106958,-0.171839 0.122368,-2.160642 0.01037,-1.338801 -0.0037,-2.120172 -0.03952,-2.187019 -0.03587,-0.06703 -0.142167,-0.116977 -0.298972,-0.140491 -0.133821,-0.02007 -0.27163,-0.07061 -0.306244,-0.112318 -0.03461,-0.04171 -0.0551,-0.157474 -0.04552,-0.257261 0.01742,-0.181432 0.01742,-0.181432 1.16664,-0.181432 1.149226,0 1.149226,0 1.166641,0.181432 0.0096,0.09979 -0.0098,0.214185 -0.04299,0.254219 -0.03323,0.04003 -0.15188,0.08988 -0.263678,0.110772 -0.111798,0.02089 -0.234052,0.06342 -0.271675,0.09451 -0.05263,0.04349 -0.06841,0.558344 -0.06841,2.232447 0,2.175918 0,2.175918 0.123132,2.208916 0.06772,0.01815 0.215479,0.03333 0.32835,0.03374 0.201007,7.32e-4 0.205219,0.005 0.205219,0.208702 0,0.114376 -0.02955,0.237507 -0.06567,0.273625 -0.04662,0.04662 -0.3774,0.06567 -1.140105,0.06567 -0.590939,0 -1.090853,-0.01642 -1.110918,-0.03648 z m 2.999612,-0.189188 c -0.0277,-0.163942 -0.01779,-0.23856 0.03623,-0.272787 0.0409,-0.02591 0.149689,-0.04749 0.241758,-0.04795 0.09207,-4.61e-4 0.215199,-0.03577 0.273625,-0.07847 0.101424,-0.07412 0.106958,-0.171839 0.122368,-2.160642 0.01037,-1.338801 -0.0037,-2.120172 -0.03952,-2.187019 -0.03587,-0.06703 -0.142167,-0.116977 -0.298972,-0.140491 -0.133821,-0.02007 -0.27163,-0.07061 -0.306244,-0.112318 -0.03461,-0.04171 -0.0551,-0.157474 -0.04552,-0.257261 0.01741,-0.181432 0.01741,-0.181432 0.756203,-0.186412 0.406333,-0.0027 0.997364,-0.01051 1.313401,-0.01726 0.316037,-0.0068 0.694101,0.01463 0.840144,0.04751 0.146042,0.03288 0.343052,0.09897 0.4378,0.146851 0.09475,0.04788 0.254954,0.148997 0.356014,0.224693 0.10106,0.0757 0.242421,0.263642 0.314135,0.417658 0.07695,0.165272 0.130608,0.382487 0.130923,0.530041 2.94e-4,0.137506 -0.03616,0.373583 -0.08101,0.524614 -0.04485,0.151031 -0.157201,0.379038 -0.249666,0.506682 -0.09246,0.127645 -0.276627,0.297902 -0.409248,0.37835 -0.132621,0.08045 -0.241908,0.171761 -0.242859,0.202919 -9.51e-4,0.03116 0.186049,0.388238 0.415555,0.793513 0.229507,0.405275 0.494001,0.843953 0.587765,0.97484 0.09376,0.130888 0.237217,0.272489 0.318786,0.314669 0.08157,0.04218 0.248033,0.07669 0.369923,0.07669 0.221618,0 0.221618,0 0.221618,0.273625 0,0.273625 0,0.273625 -0.792825,0.273625 -0.792825,0 -0.792825,0 -0.992236,-0.396756 -0.109675,-0.218216 -0.384098,-0.729211 -0.609829,-1.135545 -0.22573,-0.406333 -0.44795,-0.781883 -0.493822,-0.834556 -0.05238,-0.06014 -0.16168,-0.09577 -0.293822,-0.09577 -0.210419,0 -0.210419,0 -0.210419,0.924471 0,0.792512 0.01236,0.929212 0.08656,0.957688 0.04761,0.01827 0.195367,0.03322 0.32835,0.03322 0.241787,0 0.241787,0 0.241787,0.207955 0,0.114376 -0.02955,0.237507 -0.06567,0.273625 -0.04664,0.04664 -0.378358,0.06567 -1.144416,0.06567 -1.078745,0 -1.078745,0 -1.116872,-0.225671 z m 2.360279,-2.919732 c 0.149648,-0.04444 0.337129,-0.149102 0.416624,-0.232581 0.0795,-0.08348 0.173966,-0.269521 0.209934,-0.413426 0.03597,-0.143906 0.05268,-0.374512 0.03713,-0.512458 -0.01555,-0.137947 -0.07665,-0.315722 -0.135777,-0.395055 -0.05913,-0.07933 -0.188601,-0.191727 -0.287716,-0.249763 -0.125899,-0.07372 -0.2891,-0.106705 -0.54153,-0.10945 -0.361321,-0.0039 -0.361321,-0.0039 -0.376237,0.994803 -0.01492,0.998731 -0.01492,0.998731 0.195286,0.998731 0.115611,0 0.332641,-0.03636 0.482289,-0.0808 z m 9.132315,2.977553 c -0.02615,-0.119043 -0.01084,-0.196613 0.05265,-0.266764 0.05059,-0.0559 0.197681,-0.111106 0.338264,-0.126952 0.136813,-0.01542 0.277391,-0.05665 0.312397,-0.09162 0.04555,-0.04551 0.06823,-0.653687 0.07979,-2.139465 0.01028,-1.322741 -0.0039,-2.113299 -0.03906,-2.179016 -0.03425,-0.06399 -0.143197,-0.117206 -0.28705,-0.140209 -0.12752,-0.02039 -0.263859,-0.06364 -0.302976,-0.0961 -0.03912,-0.03246 -0.07111,-0.148359 -0.07109,-0.257544 3.1e-5,-0.198518 3.1e-5,-0.198518 1.936344,-0.209893 1.784651,-0.01048 1.943115,-0.0039 2.023157,0.08459 0.07447,0.08228 0.08123,0.196997 0.04744,0.804888 -0.03941,0.708926 -0.03941,0.708926 -0.296033,0.725471 -0.256626,0.01654 -0.256626,0.01654 -0.324364,-0.328351 -0.04797,-0.244248 -0.111589,-0.388811 -0.218008,-0.495388 -0.147353,-0.147572 -0.1631,-0.150494 -0.81118,-0.150494 -0.66091,0 -0.66091,0 -0.66091,0.884174 0,0.884174 0,0.884174 0.86869,0.849974 0.812663,-0.03199 0.874852,-0.02739 0.964225,0.07137 0.07478,0.08263 0.08765,0.158163 0.05923,0.347674 -0.01997,0.13316 -0.07832,0.277314 -0.129668,0.320342 -0.07465,0.06255 -0.203054,0.0704 -0.640611,0.03915 -0.300987,-0.0215 -0.676538,-0.04155 -0.834556,-0.04457 -0.287307,-0.0055 -0.287307,-0.0055 -0.287307,0.926196 0,0.93168 0,0.93168 0.140375,0.985051 0.07721,0.02935 0.329626,0.05278 0.560932,0.05206 0.231306,-7.19e-4 0.515654,-0.02337 0.631885,-0.05034 0.116231,-0.02697 0.281087,-0.115867 0.366347,-0.197552 0.08526,-0.08168 0.222566,-0.307451 0.305124,-0.501702 0.145662,-0.342729 0.155068,-0.352211 0.317716,-0.320293 0.09219,0.01809 0.199832,0.07565 0.239213,0.127922 0.03938,0.05227 0.05888,0.156598 0.04334,0.231845 -0.01555,0.07525 -0.07239,0.401515 -0.126328,0.72504 -0.09806,0.588229 -0.09806,0.588229 -2.159585,0.588294 -2.061522,6.6e-5 -2.061522,6.6e-5 -2.098388,-0.167784 z m 20.686064,0 c -0.02615,-0.119043 -0.01084,-0.196613 0.05265,-0.266764 0.05059,-0.0559 0.197682,-0.111106 0.338265,-0.126952 0.136812,-0.01542 0.277391,-0.05665 0.312397,-0.09162 0.04555,-0.04551 0.06824,-0.653687 0.07979,-2.139465 0.01028,-1.322741 -0.0039,-2.113299 -0.03906,-2.179016 -0.03425,-0.06399 -0.143197,-0.117206 -0.28705,-0.140209 -0.12752,-0.02039 -0.263859,-0.06364 -0.302976,-0.0961 -0.03912,-0.03246 -0.07111,-0.148359 -0.07109,-0.257544 3.1e-5,-0.198518 3.1e-5,-0.198518 1.936344,-0.209893 1.784651,-0.01048 1.943115,-0.0039 2.023157,0.08459 0.07447,0.08228 0.08123,0.196997 0.04744,0.804888 -0.03941,0.708926 -0.03941,0.708926 -0.296033,0.725471 -0.256627,0.01654 -0.256627,0.01654 -0.324364,-0.328351 -0.04797,-0.244248 -0.111589,-0.388811 -0.218008,-0.495388 -0.147353,-0.147572 -0.1631,-0.150494 -0.81118,-0.150494 -0.66091,0 -0.66091,0 -0.66091,0.884174 0,0.884174 0,0.884174 0.86869,0.849974 0.814635,-0.03207 0.874678,-0.02758 0.964906,0.07212 0.07524,0.08314 0.08811,0.15702 0.05903,0.338865 -0.02045,0.127902 -0.07116,0.270132 -0.112684,0.316066 -0.0626,0.06925 -0.171974,0.0775 -0.640414,0.04827 -0.310703,-0.01938 -0.694203,-0.03786 -0.852222,-0.04104 -0.287306,-0.0058 -0.287306,-0.0058 -0.287306,0.925881 0,0.93168 0,0.93168 0.140375,0.985051 0.07721,0.02935 0.329626,0.05278 0.560932,0.05206 0.231306,-7.19e-4 0.515654,-0.02337 0.631885,-0.05034 0.11623,-0.02697 0.281087,-0.115867 0.366347,-0.197552 0.08526,-0.08168 0.222566,-0.307451 0.305124,-0.501702 0.145662,-0.342729 0.155067,-0.352211 0.317716,-0.320293 0.09219,0.01809 0.199831,0.07565 0.239213,0.127922 0.03938,0.05227 0.05888,0.156598 0.04334,0.231845 -0.01555,0.07525 -0.07239,0.401515 -0.126328,0.72504 -0.09806,0.588229 -0.09806,0.588229 -2.159585,0.588294 -2.061522,6.6e-5 -2.061522,6.6e-5 -2.098388,-0.167784 z m 14.228172,-0.05782 c -0.0277,-0.163942 -0.0178,-0.23856 0.0362,-0.272787 0.0409,-0.02591 0.14969,-0.04749 0.24176,-0.04795 0.0921,-4.61e-4 0.2152,-0.03577 0.27363,-0.07847 0.10142,-0.07412 0.10696,-0.171839 0.12237,-2.160642 0.0104,-1.338801 -0.004,-2.120172 -0.0395,-2.187019 -0.0359,-0.06703 -0.14216,-0.116977 -0.29897,-0.140491 -0.13382,-0.02007 -0.27163,-0.07061 -0.30624,-0.112318 -0.0346,-0.04171 -0.0551,-0.157474 -0.0455,-0.257261 0.0174,-0.181432 0.0174,-0.181432 0.7562,-0.186412 0.40634,-0.0027 0.99737,-0.01051 1.3134,-0.01726 0.31604,-0.0068 0.69411,0.01463 0.84015,0.04751 0.14604,0.03288 0.34305,0.09897 0.4378,0.146851 0.0948,0.04788 0.25495,0.148997 0.35601,0.224693 0.10106,0.0757 0.24242,0.263642 0.31414,0.417658 0.077,0.165272 0.1306,0.382487 0.13092,0.530041 2.9e-4,0.137506 -0.0362,0.373583 -0.081,0.524614 -0.0449,0.151031 -0.1572,0.379038 -0.24967,0.506682 -0.0925,0.127645 -0.27663,0.297902 -0.40925,0.37835 -0.13262,0.08045 -0.2419,0.171761 -0.24286,0.202919 -9.5e-4,0.03116 0.18605,0.388238 0.41556,0.793513 0.22951,0.405275 0.494,0.843953 0.58776,0.97484 0.0938,0.130888 0.23722,0.272489 0.31879,0.314669 0.0816,0.04218 0.29568,0.07669 0.47581,0.07669 0.18013,0 0.38756,-0.02283 0.46095,-0.05074 0.0734,-0.02791 0.18399,-0.132567 0.24577,-0.232582 0.0618,-0.100014 0.50677,-1.142269 0.98886,-2.316121 0.48209,-1.173852 0.92755,-2.232781 0.98991,-2.353177 0.0624,-0.120395 0.16843,-0.234915 0.23571,-0.254488 0.0673,-0.01957 0.20061,-0.03804 0.29629,-0.04104 0.16628,-0.0052 0.17789,0.0085 0.26236,0.309214 0.0486,0.173068 0.43081,1.309906 0.84935,2.526308 0.41853,1.216401 0.7947,2.245374 0.83593,2.286605 0.0412,0.04123 0.17177,0.08987 0.29008,0.108088 0.11831,0.01822 0.24589,0.05734 0.28352,0.08695 0.0376,0.02961 0.0684,0.149321 0.0684,0.266031 0,0.212199 0,0.212199 -1.17658,0.212199 -1.17659,0 -1.17659,0 -1.17659,-0.183055 0,-0.107842 0.0411,-0.22027 0.10008,-0.273626 0.055,-0.04981 0.16663,-0.09057 0.24798,-0.09057 0.0813,0 0.16155,-0.03557 0.17823,-0.07905 0.0167,-0.04348 -0.0633,-0.363619 -0.17779,-0.711425 -0.20813,-0.632375 -0.20813,-0.632375 -1.01296,-0.632375 -0.80482,0 -0.80482,0 -1.02194,0.560932 -0.11941,0.308512 -0.23279,0.613288 -0.25194,0.677279 -0.027,0.09022 -0.007,0.123847 0.0898,0.149746 0.0686,0.01837 0.17868,0.03374 0.2447,0.03415 0.066,4.11e-4 0.15417,0.0495 0.1959,0.109077 0.0418,0.05971 0.065,0.182523 0.0516,0.273625 -0.0243,0.165295 -0.0243,0.165295 -1.79592,0.165295 -1.77167,0 -1.77167,0 -1.97108,-0.396756 -0.10968,-0.218216 -0.3841,-0.729211 -0.60983,-1.135545 -0.22573,-0.406333 -0.44795,-0.781883 -0.49382,-0.834556 -0.0524,-0.06014 -0.16168,-0.09577 -0.29382,-0.09577 -0.21042,0 -0.21042,0 -0.21042,0.924471 0,0.792512 0.0124,0.929212 0.0866,0.957688 0.0476,0.01827 0.19537,0.03322 0.32835,0.03322 0.24179,0 0.24179,0 0.24179,0.207955 0,0.114376 -0.0296,0.237507 -0.0657,0.273625 -0.0466,0.04664 -0.37836,0.06567 -1.14442,0.06567 -1.07874,0 -1.07874,0 -1.11687,-0.225671 z m 8.29199,-2.439971 c 0,-0.02136 -0.10396,-0.353817 -0.23101,-0.738788 -0.12705,-0.384971 -0.24403,-0.699884 -0.25994,-0.699807 -0.0159,7.7e-5 -0.15207,0.311168 -0.30257,0.691312 -0.15049,0.380144 -0.28183,0.712536 -0.29186,0.738648 -0.01,0.02611 0.23007,0.04748 0.53357,0.04748 0.30349,0 0.55181,-0.01748 0.55181,-0.03884 z m -5.93171,-0.479761 c 0.14965,-0.04444 0.33713,-0.149102 0.41662,-0.232581 0.0795,-0.08348 0.17397,-0.269521 0.20994,-0.413426 0.036,-0.143906 0.0527,-0.374512 0.0371,-0.512458 -0.0155,-0.137947 -0.0766,-0.315722 -0.13577,-0.395055 -0.0591,-0.07933 -0.1886,-0.191727 -0.28772,-0.249763 -0.1259,-0.07372 -0.2891,-0.106705 -0.54153,-0.10945 -0.36132,-0.0039 -0.36132,-0.0039 -0.37623,0.994803 -0.0149,0.998731 -0.0149,0.998731 0.19528,0.998731 0.11561,0 0.33264,-0.03636 0.48229,-0.0808 z m 14.669473,3.10892 c -0.0201,-0.02007 -0.0365,-0.102441 -0.0365,-0.183056 0,-0.08061 0.045,-0.187329 0.10008,-0.237142 0.055,-0.04981 0.16115,-0.09057 0.2358,-0.09057 0.0747,0 0.18353,-0.03493 0.24195,-0.07763 0.10143,-0.07412 0.10696,-0.171839 0.12237,-2.160642 0.0104,-1.338801 -0.004,-2.120172 -0.0395,-2.187019 -0.0359,-0.06703 -0.14217,-0.116977 -0.29897,-0.140491 -0.13382,-0.02007 -0.27163,-0.07061 -0.30625,-0.112318 -0.0346,-0.04171 -0.0551,-0.157474 -0.0455,-0.257261 0.0174,-0.181432 0.0174,-0.181432 1.16664,-0.181432 1.14922,0 1.14922,0 1.16664,0.181432 0.01,0.09979 -0.01,0.214185 -0.043,0.254219 -0.0332,0.04003 -0.15188,0.08988 -0.26367,0.110772 -0.1118,0.02089 -0.23406,0.06342 -0.27168,0.09451 -0.0526,0.04349 -0.0684,0.558344 -0.0684,2.232447 0,2.175918 0,2.175918 0.12314,2.208916 0.0677,0.01815 0.21548,0.03333 0.32835,0.03374 0.201,7.32e-4 0.20522,0.005 0.20522,0.208702 0,0.114376 -0.0296,0.237507 -0.0657,0.273625 -0.0466,0.04662 -0.3774,0.06567 -1.14011,0.06567 -0.59094,0 -1.09085,-0.01642 -1.11092,-0.03648 z m 2.48087,-0.237142 c 0,-0.273625 0,-0.273625 0.18798,-0.273625 0.10338,0 0.24802,-0.02283 0.32142,-0.05074 0.0734,-0.02791 0.18399,-0.132567 0.24577,-0.232582 0.0618,-0.100014 0.50676,-1.142269 0.98885,-2.316121 0.4821,-1.173852 0.92756,-2.232781 0.98992,-2.353177 0.0624,-0.120395 0.16842,-0.234915 0.2357,-0.254488 0.0673,-0.01957 0.20061,-0.03804 0.2963,-0.04104 0.16627,-0.0052 0.17788,0.0085 0.26235,0.309214 0.0486,0.173068 0.43082,1.309906 0.84935,2.526308 0.41854,1.216401 0.79471,2.245374 0.83594,2.286605 0.0412,0.04123 0.17177,0.08987 0.29008,0.108088 0.11831,0.01822 0.24589,0.05734 0.28351,0.08695 0.0376,0.02961 0.0684,0.149321 0.0684,0.266031 0,0.212199 0,0.212199 -1.17659,0.212199 -1.17659,0 -1.17659,0 -1.17659,-0.183055 0,-0.107842 0.0411,-0.22027 0.10008,-0.273626 0.055,-0.04981 0.16663,-0.09057 0.24798,-0.09057 0.0814,0 0.16155,-0.03557 0.17824,-0.07905 0.0167,-0.04348 -0.0633,-0.363619 -0.1778,-0.711425 -0.20813,-0.632375 -0.20813,-0.632375 -1.01295,-0.632375 -0.80482,0 -0.80482,0 -1.02194,0.560932 -0.11941,0.308512 -0.23279,0.613288 -0.25195,0.677279 -0.027,0.09022 -0.007,0.123847 0.0898,0.149746 0.0686,0.01837 0.17868,0.03374 0.24469,0.03415 0.066,4.11e-4 0.15418,0.0495 0.19591,0.109077 0.0418,0.05971 0.065,0.182523 0.0516,0.273625 -0.0243,0.165295 -0.0243,0.165295 -1.08518,0.165295 -1.06093,0 -1.06093,0 -1.06093,-0.273625 z m 3.39295,-2.392017 c 0,-0.02136 -0.10395,-0.353817 -0.231,-0.738788 -0.12706,-0.384971 -0.24403,-0.699884 -0.25995,-0.699807 -0.0159,7.7e-5 -0.15207,0.311168 -0.30256,0.691312 -0.15049,0.380144 -0.28183,0.712536 -0.29187,0.738648 -0.01,0.02611 0.23008,0.04748 0.53357,0.04748 0.3035,0 0.55181,-0.01748 0.55181,-0.03884 z M 57.339659,67.018735 c -0.391284,-0.02476 -0.760678,-0.05478 -0.820875,-0.06669 -0.0602,-0.01192 0.07054,-0.02502 0.290536,-0.02912 0.251005,-0.0047 0.387389,-0.02783 0.366164,-0.06218 -0.0186,-0.0301 -0.149376,-0.05472 -0.290609,-0.05472 -0.141233,0 -0.687714,-0.04978 -1.214402,-0.11063 -0.526689,-0.06085 -1.080747,-0.124548 -1.231241,-0.141558 -0.150493,-0.01701 -0.347504,-0.04243 -0.4378,-0.0565 -0.0903,-0.01406 -0.238054,-0.03327 -0.32835,-0.04268 -0.0903,-0.0094 -0.164175,-0.02254 -0.164175,-0.02918 0,-0.0066 -0.134194,-0.02222 -0.29821,-0.03462 -0.164015,-0.0124 -0.32093,-0.04527 -0.3487,-0.07304 -0.02777,-0.02777 -0.08066,-0.03892 -0.117522,-0.02477 -0.03687,0.01415 -0.643367,-0.08794 -1.347776,-0.226868 -0.70441,-0.138927 -1.921027,-0.400751 -2.703595,-0.581834 -0.782568,-0.181082 -1.976942,-0.474277 -2.654165,-0.651543 -0.677222,-0.177266 -1.354444,-0.357607 -1.504938,-0.400757 -0.150494,-0.04315 -0.60608,-0.177286 -1.012413,-0.29808 -0.406334,-0.120795 -1.182061,-0.358357 -1.723839,-0.527916 -0.541778,-0.16956 -1.597515,-0.506596 -2.346082,-0.74897 -0.748567,-0.242375 -1.401163,-0.448496 -1.450213,-0.458047 -0.04905,-0.0096 -0.09534,-0.02233 -0.102864,-0.0284 -0.0075,-0.0061 -0.03831,-0.01718 -0.06841,-0.02471 -0.0301,-0.0075 -0.06088,-0.01864 -0.06841,-0.02471 -0.0075,-0.0061 -0.05062,-0.01885 -0.09577,-0.02841 -0.04515,-0.0096 -0.570783,-0.168048 -1.168078,-0.35219 -0.597295,-0.184143 -2.30882,-0.640487 -3.80339,-1.014099 -1.49457,-0.373611 -3.172986,-0.817678 -3.729813,-0.986815 -0.556827,-0.169138 -1.162761,-0.353261 -1.346519,-0.409162 -0.183757,-0.0559 -1.107242,-0.276443 -2.052188,-0.49009 -0.944946,-0.213647 -2.038225,-0.475268 -2.42951,-0.581381 C 22.745218,58.352952 22.36414,58.25296 22.28966,58.23686 22.21518,58.22076 21.636464,58.002425 21.003622,57.75167 20.37078,57.500916 19.237344,57.097506 18.484874,56.855203 17.732405,56.612901 16.599597,56.25087 15.967523,56.05069 c -0.632074,-0.200179 -1.617125,-0.524538 -2.189002,-0.720797 -0.571876,-0.196259 -1.465643,-0.48819 -1.986147,-0.648736 -0.520504,-0.160545 -1.01303,-0.304069 -1.094501,-0.318942 -0.08147,-0.01487 -0.197381,-0.03911 -0.257579,-0.05386 -0.0602,-0.01475 -0.5157828,-0.125473 -1.0124128,-0.246056 -0.49663,-0.120584 -1.567872,-0.36876 -2.380539,-0.551504 -0.812667,-0.182743 -1.957788,-0.470412 -2.544714,-0.639263 -0.586926,-0.168852 -1.255422,-0.376396 -1.485547,-0.461211 -0.230124,-0.08481 -0.611831,-0.251354 -0.848238,-0.37009 -0.236406,-0.118735 -0.639153,-0.281839 -0.894993,-0.362453 -0.255839,-0.08061 -0.60060697,-0.20797 -0.76614997,-0.283015 -0.165543,-0.07504 -0.34411,-0.19522 -0.396816,-0.267058 -0.0527,-0.07184 -0.101957,-0.186387 -0.10945,-0.254555 -0.0099,-0.09005 0.0306,-0.145616 0.148087,-0.203208 0.134991,-0.06617 0.238971,-0.06886 0.629338,-0.01631 0.25719597,0.03463 0.83702297,0.163171 1.28850397,0.285658 0.451482,0.122487 0.931694,0.256303 1.067139,0.297367 0.135444,0.04106 0.449429,0.13505 0.697744,0.208857 0.248315,0.07381 0.451481,0.121733 0.451481,0.106503 0,-0.01523 0.03694,0.003 0.08209,0.04043 0.04515,0.03747 0.08209,0.04978 0.08209,0.02736 0,-0.02242 0.03694,-0.01011 0.08209,0.02736 0.04515,0.03747 0.08209,0.04978 0.08209,0.02736 0,-0.02242 0.03586,-0.011 0.07969,0.02537 0.04383,0.03637 0.103694,0.0513 0.133031,0.03317 0.02934,-0.01813 0.06906,-0.0075 0.08827,0.02354 0.01921,0.03108 0.05615,0.04339 0.08209,0.02736 0.02594,-0.01603 0.06288,-0.0037 0.08209,0.02736 0.01921,0.03108 0.05615,0.04339 0.08209,0.02736 0.02594,-0.01603 0.06288,-0.0037 0.08209,0.02736 0.01921,0.03108 0.05578,0.04362 0.08128,0.02786 0.02549,-0.01576 0.11614,-3.61e-4 0.201438,0.03421 0.0853,0.03457 0.192025,0.06895 0.237173,0.0764 0.04515,0.0075 0.586926,0.154749 1.203951,0.327332 0.617025,0.172582 1.318874,0.358393 1.559664,0.412912 0.24079,0.05452 0.699536,0.137687 1.019436,0.184816 0.3199,0.04713 0.8252838,0.08569 1.1230758,0.08569 0.522649,0 0.548456,-0.0058 0.743626,-0.166659 0.111202,-0.09166 0.292697,-0.313299 0.403322,-0.492525 0.123634,-0.200303 0.238609,-0.325867 0.298388,-0.325867 0.05349,0 0.40637,0.06151 0.784183,0.136683 0.377812,0.07518 1.112433,0.246868 1.63249,0.381539 0.520057,0.134671 1.290326,0.346013 1.711709,0.469649 0.421383,0.123635 1.19711,0.346994 1.723839,0.496351 0.526728,0.149358 1.708789,0.453595 2.626801,0.676082 0.918013,0.222487 2.0245,0.506437 2.45886,0.630998 0.43436,0.124562 0.942729,0.295842 1.129707,0.380622 0.317365,0.1439 0.341983,0.16819 0.37037,0.365444 0.01672,0.116213 0.04646,0.358622 0.06609,0.538686 0.01962,0.180063 0.08536,0.463265 0.146078,0.629337 0.06072,0.166073 0.138267,0.3293 0.17233,0.362727 0.03406,0.03343 0.320508,0.149942 0.636545,0.258923 0.316037,0.10898 1.017885,0.320056 1.559663,0.469056 0.541778,0.149001 1.957788,0.516216 3.14669,0.816033 1.188901,0.299818 2.814235,0.697186 3.611852,0.883041 0.797618,0.185855 1.511779,0.347378 1.587026,0.35894 0.07525,0.01156 0.198379,0.03578 0.273625,0.05383 0.07525,0.01804 0.198379,0.04433 0.273626,0.05842 0.07525,0.01409 0.629338,0.134996 1.231313,0.268688 0.601975,0.133692 1.599339,0.354103 2.216364,0.489802 0.617025,0.1357 1.50357,0.319445 1.970101,0.408322 0.466531,0.08888 1.279198,0.239326 1.805926,0.33433 0.526729,0.095 2.201315,0.441541 3.721303,0.770083 1.519988,0.328542 2.972938,0.645198 3.228777,0.703679 0.25584,0.05848 0.939178,0.194909 1.518529,0.303172 0.579351,0.108263 1.613654,0.281294 2.298451,0.384514 0.684797,0.10322 1.294339,0.188221 1.354536,0.188892 0.0602,6.71e-4 0.380339,0.03585 0.711426,0.07818 0.331086,0.04233 1.242258,0.104574 2.024826,0.138321 0.782568,0.03375 2.753903,0.06103 4.380745,0.06063 1.626842,-4.02e-4 3.285046,-0.02696 3.684899,-0.05903 0.399853,-0.03206 0.829579,-0.06621 0.954946,-0.07588 0.125368,-0.0097 0.353373,-0.03183 0.506678,-0.04924 0.153306,-0.01741 0.703272,-0.118488 1.222148,-0.224621 0.518875,-0.106133 1.181484,-0.25658 1.472463,-0.334327 0.29098,-0.07775 0.812256,-0.227803 1.158392,-0.333458 0.346136,-0.105656 1.011045,-0.316146 1.477576,-0.467758 0.466531,-0.151611 1.325299,-0.445767 1.908372,-0.653681 0.583074,-0.207914 1.297235,-0.464855 1.587026,-0.570981 0.289791,-0.106127 0.576145,-0.216217 0.636343,-0.244647 0.0602,-0.02843 0.820946,-0.298645 1.690553,-0.600478 0.869607,-0.301834 1.633021,-0.558584 1.696476,-0.570557 0.06345,-0.01197 0.115373,-0.02548 0.115373,-0.03002 0,-0.0045 0.03694,-0.01673 0.08209,-0.0271 0.04515,-0.01037 1.362653,-0.450466 2.927789,-0.977999 1.56514,-0.527532 3.63374,-1.217415 4.5969,-1.533071 0.96316,-0.315657 2.3053,-0.748989 2.98252,-0.962961 0.67722,-0.213971 1.26825,-0.394825 1.3134,-0.401896 0.0452,-0.0071 0.11287,-0.03207 0.15049,-0.05555 0.0376,-0.02348 0.0684,-0.02829 0.0684,-0.01069 0,0.0176 0.0708,-0.0046 0.15724,-0.04931 0.0865,-0.04472 0.17207,-0.06647 0.19021,-0.04833 0.0181,0.01814 0.0705,0.0018 0.11639,-0.03625 0.0459,-0.03807 0.0834,-0.05576 0.0834,-0.0393 0,0.01646 0.1416,-0.01854 0.31467,-0.07776 0.17307,-0.05922 0.35161,-0.122703 0.39675,-0.141063 0.0452,-0.01836 0.10672,-0.03627 0.13682,-0.03979 0.0301,-0.0035 0.37486,-0.1091 0.76615,-0.234612 0.39128,-0.125511 1.64722,-0.514842 2.79097,-0.86518 1.14376,-0.350337 2.498203,-0.769072 3.009883,-0.930521 0.51168,-0.16145 1.82489,-0.55595 2.91824,-0.876668 1.09335,-0.320719 2.01683,-0.588838 2.05218,-0.595821 0.0354,-0.007 0.1751,-0.04415 0.31055,-0.08259 0.13544,-0.03844 0.3061,-0.08082 0.37924,-0.09416 0.0731,-0.01335 0.15358,-0.037 0.17876,-0.05256 0.0252,-0.01556 0.10078,-0.03836 0.16801,-0.05066 0.0672,-0.0123 0.61475,-0.15985 1.21673,-0.327884 0.60197,-0.168033 1.72247,-0.462539 2.48999,-0.654457 0.76751,-0.191918 1.61712,-0.390684 1.88801,-0.441704 0.27089,-0.05102 0.70185,-0.09466 0.95769,-0.09698 0.37486,-0.0034 0.52093,0.02056 0.75247,0.123414 0.20226,0.08986 0.2873,0.158681 0.2873,0.232526 0,0.05769 -0.0469,0.196864 -0.10427,0.309277 -0.0574,0.112412 -0.22661,0.318827 -0.37615,0.4587 -0.14954,0.139873 -0.42169,0.329936 -0.60478,0.422363 -0.1831,0.09243 -0.51655,0.229694 -0.74099,0.305038 -0.22445,0.07534 -0.69957,0.209434 -1.05583,0.297975 -0.35626,0.08854 -0.93094,0.224009 -1.27708,0.301039 -0.34614,0.07703 -0.8756,0.211543 -1.17659,0.298918 -0.30099,0.08737 -1.35493,0.41991 -2.3421,0.738968 -0.98716,0.319057 -1.83882,0.580105 -1.89257,0.580105 -0.0537,0 -0.11478,0.01705 -0.13562,0.03789 -0.0208,0.02084 -0.0804,0.04459 -0.13225,0.05278 -0.0519,0.0082 -0.45144,0.124862 -0.88787,0.259272 -0.43644,0.13441 -1.50768,0.466074 -2.38054,0.73703 -0.87287,0.270955 -2.288883,0.716714 -3.146693,0.990574 -0.85782,0.27386 -2.05219,0.654871 -2.65417,0.84669 -0.60197,0.191819 -1.59052,0.49863 -2.19677,0.681802 -0.60625,0.183172 -1.16034,0.343774 -1.23131,0.356894 -0.071,0.01312 -0.12904,0.02883 -0.12904,0.03491 0,0.0061 -0.0493,0.01793 -0.10945,0.02635 -0.0602,0.0084 -0.77436,0.212365 -1.58703,0.453227 -0.81267,0.240861 -1.98673,0.600063 -2.60903,0.798227 -0.62229,0.198163 -1.52115,0.497306 -1.99746,0.664762 -0.47631,0.167456 -1.86338,0.65062 -3.082378,1.073698 -1.219001,0.423078 -2.841814,0.976905 -3.606252,1.230728 -0.764438,0.253822 -1.934186,0.668235 -2.599439,0.920917 -0.665254,0.252681 -1.763643,0.672086 -2.440865,0.93201 -0.677222,0.259923 -1.514515,0.570333 -1.860651,0.689798 -0.346136,0.119466 -1.047985,0.336627 -1.559664,0.48258 -0.511679,0.145953 -1.213528,0.328362 -1.559663,0.405353 -0.346136,0.07699 -0.924854,0.188079 -1.286039,0.246862 -0.361185,0.05878 -0.69364,0.109853 -0.738788,0.113488 -0.04515,0.0036 -0.180592,0.02076 -0.300988,0.03805 -0.120395,0.01729 -0.329718,0.04234 -0.465162,0.05568 -0.135445,0.01333 -0.320142,0.02566 -0.410438,0.02741 -0.0903,0.0017 -1.493994,0.111372 -3.119327,0.243618 -1.625334,0.132247 -3.236302,0.240548 -3.57993,0.240671 -0.343627,1.22e-4 -0.612917,0.01208 -0.598422,0.02658 0.01449,0.0145 0.160201,0.04856 0.32379,0.07569 0.297434,0.04933 0.297434,0.04933 -0.140366,0.04779 -0.24079,-8.49e-4 -0.757942,-0.02181 -1.149226,-0.04657 z m 0.820876,-0.103266 c -0.01891,-0.0306 -0.231454,-0.05056 -0.482074,-0.04528 -0.448252,0.0094 -0.448252,0.0094 -0.09254,0.04528 0.195642,0.01971 0.412575,0.04008 0.482074,0.04528 0.07215,0.0054 0.111851,-0.01403 0.09254,-0.04528 z m 5.481501,-9.95307 C 62.884884,56.928149 62.884884,56.928149 62.725392,56.74943 62.5659,56.570711 62.5659,56.570711 62.5659,53.340309 c 0,-3.230401 0,-3.230401 0.142758,-3.373158 0.142757,-0.142757 0.142757,-0.142757 1.272357,-0.107868 0.62128,0.01919 2.053085,0.06107 3.181788,0.09306 1.13638,0.03221 2.117254,0.08355 2.197989,0.11505 0.08019,0.03128 0.175039,0.127471 0.210776,0.213749 0.04742,0.114481 0.06448,0.932906 0.06312,3.028818 -0.0016,2.527794 -0.01225,2.887822 -0.08865,3.004409 -0.04773,0.07285 -0.166376,0.172003 -0.263647,0.220334 -0.09727,0.04833 -0.398492,0.125646 -0.669381,0.171814 -0.270889,0.04617 -0.812667,0.122588 -1.203951,0.169822 -0.391284,0.04724 -1.228577,0.09363 -1.860651,0.103095 -0.632074,0.0095 -1.489945,0.0018 -1.906379,-0.01703 z m -5.673039,-0.528253 c -0.496629,-0.07029 -1.355955,-0.204522 -1.909613,-0.298287 -0.553658,-0.09376 -1.723405,-0.31717 -2.599439,-0.496456 -0.876034,-0.179287 -1.826739,-0.386289 -2.112677,-0.460004 -0.439623,-0.113337 -0.547347,-0.16388 -0.697744,-0.32738 -0.177857,-0.193351 -0.177857,-0.193351 -0.177857,-2.572118 0,-1.727718 0.01789,-2.418041 0.06538,-2.52226 0.03596,-0.07892 0.133241,-0.178584 0.216183,-0.221475 0.115197,-0.05957 0.393719,-0.07761 1.179615,-0.07639 0.565847,8.75e-4 1.829166,0.02433 2.807376,0.05213 0.97821,0.0278 2.320342,0.06784 2.982515,0.089 1.20395,0.03846 1.20395,0.03846 1.381807,0.216022 0.177856,0.177567 0.177856,0.177567 0.177856,3.324864 0,3.147298 0,3.147298 -0.168374,3.288975 -0.09261,0.07792 -0.184954,0.139318 -0.205219,0.136434 -0.02026,-0.0029 -0.443178,-0.06275 -0.939808,-0.133048 z m 15.059704,-0.848891 c -0.119769,-0.111582 -0.119769,-0.111582 -0.119769,-2.657762 0,-1.641671 0.02002,-2.583582 0.05635,-2.651466 0.03099,-0.05791 0.128273,-0.14248 0.216182,-0.18794 0.125194,-0.06474 0.376881,-0.08291 1.161285,-0.08384 0.550797,-6.53e-4 1.617106,-0.03655 2.369575,-0.07976 0.75247,-0.04322 1.821342,-0.118696 2.375272,-0.167731 0.81268,-0.07194 1.031762,-0.07598 1.134637,-0.02092 0.07012,0.03753 0.138811,0.107385 0.152645,0.155239 0.01383,0.04785 0.02905,0.173198 0.03381,0.278544 0.0048,0.105346 0.0062,0.959923 0.0031,1.899061 -0.0055,1.707523 -0.0055,1.707523 -0.199444,1.895835 -0.139389,0.135373 -0.266312,0.199988 -0.451481,0.229842 -0.141671,0.02284 -0.294522,0.04838 -0.33967,0.05676 -0.04515,0.0084 -0.16828,0.0316 -0.273626,0.0516 -0.105345,0.02001 -0.794881,0.170085 -1.532301,0.333503 -0.737419,0.163418 -2.01251,0.468912 -2.833535,0.678875 -0.821025,0.209963 -1.524387,0.381752 -1.563026,0.381752 -0.03864,0 -0.12415,-0.05021 -0.190023,-0.111582 z m -26.360424,-1.53647 c -0.0903,-0.02839 -0.287306,-0.08586 -0.4378,-0.127715 -0.150494,-0.04185 -1.295615,-0.35045 -2.544714,-0.685771 -1.249099,-0.335321 -2.332716,-0.617935 -2.408037,-0.628032 -0.07532,-0.0101 -0.727918,-0.178547 -1.450214,-0.374334 -0.722296,-0.195787 -1.484036,-0.395506 -1.692755,-0.443821 -0.20872,-0.04832 -0.43617,-0.124983 -0.505445,-0.170374 -0.06928,-0.04539 -0.163934,-0.140493 -0.210354,-0.21134 -0.06896,-0.105245 -0.08662,-0.36173 -0.09653,-1.401946 -0.01213,-1.273135 -0.01213,-1.273135 0.131711,-1.381084 0.133321,-0.100053 0.179352,-0.103638 0.629338,-0.04901 0.267023,0.03241 0.817928,0.09963 1.224234,0.149372 0.406306,0.04974 0.800326,0.08917 0.875601,0.08762 0.07527,-0.0015 0.28462,0.01942 0.465212,0.04659 0.180593,0.02717 0.513047,0.06251 0.738788,0.07853 0.225741,0.01602 0.619761,0.05211 0.875601,0.08021 0.255839,0.02809 0.508259,0.05251 0.560931,0.05426 0.05267,0.0017 0.138865,0.0053 0.191538,0.008 0.05267,0.0027 0.563668,0.05086 1.135545,0.107125 0.571876,0.05627 1.407488,0.129503 1.856914,0.162749 0.449427,0.03324 0.860654,0.08374 0.913838,0.112198 0.05318,0.02846 0.134901,0.106293 0.181593,0.172955 0.07306,0.104314 0.08489,0.408723 0.08489,2.184606 0,2.063403 0,2.063403 -0.144193,2.176825 -0.07931,0.06238 -0.159341,0.111305 -0.177856,0.108718 -0.01852,-0.0026 -0.107542,-0.02793 -0.197839,-0.05632 z M 23.188252,53.387392 c -0.182233,-0.0238 -0.711698,-0.139045 -1.176588,-0.256091 -0.46489,-0.117046 -1.387032,-0.374909 -2.049205,-0.573028 -0.79498,-0.237854 -1.715163,-0.46166 -2.708889,-0.658853 -0.827716,-0.164251 -1.714262,-0.364917 -1.970101,-0.445925 -0.25584,-0.08101 -0.557512,-0.1942 -0.670382,-0.251537 -0.155256,-0.07887 -0.205219,-0.137817 -0.205219,-0.242129 0,-0.07583 0.04975,-0.235405 0.110562,-0.354601 0.06081,-0.119196 0.142239,-0.21672 0.180955,-0.21672 0.03871,0 0.672341,0.121607 1.408057,0.270238 0.735716,0.148631 2.000355,0.407375 2.810308,0.574986 0.809953,0.167612 1.484909,0.292481 1.499903,0.277488 0.01499,-0.01499 0.05415,-0.0057 0.08702,0.0206 0.03287,0.02632 0.191106,0.07554 0.35164,0.109378 0.160534,0.03384 0.312746,0.04862 0.33825,0.03286 0.0255,-0.01576 0.06087,-0.0052 0.07859,0.02348 0.01772,0.02867 0.07483,0.05379 0.126913,0.05581 0.05208,0.002 0.16857,0.01273 0.258867,0.02379 0.0903,0.01106 0.176488,0.0262 0.191537,0.03365 0.01505,0.0074 0.04741,0.0101 0.07191,0.0059 0.0245,-0.0042 0.14763,0.02185 0.273625,0.05791 0.125995,0.03606 0.245607,0.06186 0.265805,0.05733 0.0202,-0.0045 0.24668,0.03765 0.503292,0.09373 0.373524,0.08163 0.516414,0.142803 0.716516,0.306772 0.137471,0.112647 0.264583,0.263128 0.282472,0.334402 0.01789,0.07127 0.0159,0.195809 -0.0044,0.276745 -0.02031,0.08094 -0.0841,0.213389 -0.14174,0.294342 -0.05764,0.08095 -0.148354,0.157441 -0.20158,0.169975 -0.05323,0.01253 -0.245875,0.0033 -0.428109,-0.02049 z m 60.646315,-0.342106 c -0.1448,-0.1342 -0.1448,-0.1342 -0.1448,-1.834093 0,-1.699893 0,-1.699893 0.18065,-1.897014 0.16792,-0.183241 0.22091,-0.204116 0.75247,-0.296429 0.3145,-0.05462 0.91658,-0.163206 1.33797,-0.241304 0.42138,-0.0781 1.5665,-0.303183 2.54471,-0.500188 0.97821,-0.197005 1.82782,-0.365342 1.88801,-0.374082 0.0602,-0.0087 0.17102,-0.03165 0.24627,-0.05091 0.0752,-0.01926 0.223,-0.04622 0.32835,-0.05992 0.10534,-0.0137 0.26045,-0.03898 0.34469,-0.05619 0.12075,-0.02467 0.18731,0.0029 0.31467,0.130233 0.16151,0.161518 0.16151,0.161518 0.16151,1.427121 0,0.976742 -0.0175,1.299361 -0.0765,1.413508 -0.0421,0.08135 -0.12402,0.190923 -0.18212,0.243499 -0.0581,0.05258 -0.43616,0.196728 -0.84016,0.320337 -0.40399,0.123609 -1.1778,0.358179 -1.71958,0.521267 -0.54177,0.163088 -1.61302,0.469624 -2.38054,0.681192 -0.76751,0.211568 -1.65638,0.457231 -1.97525,0.545918 -0.31886,0.08869 -0.59231,0.161248 -0.60766,0.161248 -0.0154,0 -0.0931,-0.06039 -0.17271,-0.134199 z M 33.424818,50.713484 c -0.0903,-0.02581 -0.422751,-0.09712 -0.738788,-0.158476 -0.316037,-0.06135 -1.15333,-0.209257 -1.860651,-0.328679 -0.707321,-0.119421 -1.581553,-0.280624 -1.942739,-0.358228 -0.418133,-0.08984 -0.730883,-0.189966 -0.860902,-0.275613 -0.114172,-0.07521 -0.220044,-0.19763 -0.240133,-0.277672 -0.02448,-0.09754 0.0047,-0.224648 0.09159,-0.398865 0.07072,-0.141815 0.244466,-0.349922 0.390089,-0.467241 0.144413,-0.116345 0.355161,-0.25265 0.468327,-0.302901 0.161338,-0.07164 0.347528,-0.0887 0.862458,-0.07902 0.361185,0.0068 0.792145,0.02708 0.957688,0.04509 0.165543,0.01801 0.411806,0.04446 0.54725,0.05879 0.135445,0.01432 0.406334,0.04049 0.601976,0.05816 0.195642,0.01766 0.429591,0.04201 0.519888,0.0541 0.0903,0.01209 0.435064,0.03791 0.76615,0.05737 0.333699,0.01962 0.667316,0.06903 0.748591,0.11087 0.08064,0.04152 0.159118,0.118851 0.174398,0.171854 0.01528,0.053 0.0355,0.511029 0.04492,1.017836 0.01696,0.911989 0.01581,0.922544 -0.112054,1.026095 -0.07106,0.05755 -0.157249,0.102113 -0.191538,0.09904 -0.03429,-0.0031 -0.136222,-0.0267 -0.22652,-0.05251 z M 21.75426,50.180955 c -0.26312,-0.03891 -0.515339,-0.08591 -0.560487,-0.104457 -0.04515,-0.01854 -0.100222,-0.02992 -0.122386,-0.02528 -0.02216,0.0046 -0.379244,-0.06338 -0.793513,-0.151152 -0.414268,-0.08778 -1.195638,-0.211708 -1.736378,-0.275405 -0.540739,-0.0637 -1.155982,-0.155119 -1.367206,-0.20316 -0.297782,-0.06773 -0.425771,-0.129077 -0.56982,-0.273126 -0.166897,-0.166897 -0.1827,-0.208716 -0.155501,-0.411499 0.01888,-0.140726 0.08377,-0.279246 0.172337,-0.367866 0.137964,-0.138045 0.165304,-0.142707 0.948094,-0.161695 0.443318,-0.01075 1.356988,0.01 2.030376,0.04606 1.016953,0.0545 1.235896,0.05317 1.292551,-0.0078 0.03751,-0.04038 0.09606,-0.188989 0.130102,-0.330237 0.03806,-0.157916 0.06166,-0.811225 0.06129,-1.696476 -4.87e-4,-1.151838 -0.056,-2.254757 -0.277692,-5.516677 -0.271993,-4.002112 -0.278163,-4.150912 -0.335831,-8.099305 -0.05406,-3.701246 -0.05146,-4.047301 0.03258,-4.335648 0.05659,-0.194178 0.133625,-0.335997 0.202546,-0.372882 0.08962,-0.04796 0.157439,-0.03244 0.349153,0.07991 0.130862,0.07669 0.341398,0.2568 0.467858,0.400245 0.126461,0.143445 0.277154,0.353157 0.334875,0.466028 0.05772,0.11287 0.09359,0.205219 0.07972,0.205219 -0.01388,0 0.009,0.06596 0.05081,0.14657 0.04182,0.08061 0.06287,0.167884 0.04677,0.193935 -0.0161,0.02605 -0.0025,0.07962 0.03021,0.119041 0.03272,0.03942 0.06248,0.130692 0.06614,0.202822 0.0037,0.07213 0.01468,0.535734 0.02448,1.030232 0.0098,0.494498 0.0029,0.923249 -0.01536,0.95278 -0.01825,0.02953 -0.03124,0.245951 -0.02887,0.480934 0.0024,0.234982 0.02078,0.453874 0.0409,0.486427 0.02012,0.03255 0.03133,0.18727 0.02491,0.343817 -0.0064,0.156548 -0.0071,0.296945 -0.0016,0.311994 0.0055,0.01505 0.0192,0.162807 0.03035,0.328351 0.01115,0.165543 0.02225,0.35024 0.02467,0.410437 0.0024,0.0602 0.04043,0.577349 0.08447,1.149226 0.04404,0.571877 0.129998,1.877069 0.191013,2.900427 0.06102,1.023358 0.136489,2.254671 0.167719,2.736252 0.03123,0.48158 0.09278,1.158802 0.136786,1.504938 0.044,0.346136 0.213593,1.429692 0.37687,2.407902 0.163278,0.97821 0.335641,2.082494 0.383028,2.453966 0.05337,0.418354 0.08616,1.097905 0.08616,1.785544 0,0.933223 -0.01344,1.121297 -0.08434,1.18014 -0.05678,0.04712 -0.289407,0.07167 -0.71187,0.07511 -0.34514,0.0028 -0.842807,-0.02672 -1.105927,-0.06563 z m 73.154137,-0.339697 c -0.10234,-0.102344 -0.10945,-0.182417 -0.10945,-1.233239 0,-0.949846 0.0139,-1.14501 0.0898,-1.260898 0.0494,-0.07541 0.131,-0.15914 0.18131,-0.186067 0.0503,-0.02693 0.60708,-0.136752 1.23725,-0.244055 0.63017,-0.107303 2.13081,-0.391265 3.33477,-0.631026 1.203953,-0.23976 2.780033,-0.549692 3.502403,-0.688736 0.72237,-0.139045 1.64585,-0.311603 2.05219,-0.383464 0.40633,-0.07186 0.86905,-0.131316 1.02827,-0.132124 0.17868,-9.07e-4 0.36721,0.0382 0.49253,0.102158 0.11167,0.05699 0.24519,0.150244 0.29672,0.207221 0.0515,0.05698 0.13156,0.194252 0.17785,0.305054 0.0463,0.110802 0.0833,0.269971 0.0822,0.35371 -0.001,0.08374 -0.0565,0.215723 -0.12313,0.293299 -0.0666,0.07758 -0.19504,0.19061 -0.28534,0.251185 -0.0903,0.06058 -0.28731,0.149179 -0.4378,0.196896 -0.15049,0.04772 -0.86685,0.236456 -1.59191,0.41942 -0.72505,0.182963 -1.87017,0.50834 -2.54471,0.723059 -0.67454,0.214719 -1.54657,0.48651 -1.93786,0.603979 -0.391283,0.117469 -1.154703,0.324912 -1.696473,0.460984 -0.54178,0.136072 -1.55495,0.405959 -2.25149,0.599749 -0.69654,0.19379 -1.29373,0.352345 -1.32708,0.352345 -0.0334,0 -0.1099,-0.04925 -0.1701,-0.10945 z M 13.392805,48.451447 c -0.06,-0.04203 -0.164584,-0.187523 -0.232408,-0.323327 -0.06782,-0.135804 -0.17056,-0.464657 -0.228303,-0.730784 -0.05774,-0.266127 -0.134283,-0.804009 -0.17009,-1.195293 -0.04739,-0.517875 -0.05196,-1.24741 -0.01681,-2.681527 0.02656,-1.083555 0.04504,-2.819707 0.04107,-3.858115 -0.004,-1.038407 -0.04838,-2.589862 -0.09868,-3.447677 -0.0503,-0.857815 -0.105529,-2.37233 -0.122731,-3.365589 -0.0228,-1.316427 -0.01356,-1.870673 0.03407,-2.044799 0.03594,-0.131379 0.124085,-0.297607 0.195872,-0.369394 0.08999,-0.08999 0.192712,-0.130522 0.330777,-0.130522 0.110141,0 0.297198,0.05448 0.415682,0.121077 0.170043,0.09557 0.254138,0.202212 0.399179,0.506207 0.101064,0.211821 0.202248,0.434382 0.224855,0.49458 0.02261,0.0602 0.04979,0.244894 0.06041,0.410437 0.01062,0.165544 0.03474,0.337928 0.05359,0.383076 0.01885,0.04515 0.02904,0.161507 0.02263,0.258576 -0.0064,0.09707 0.0071,0.206883 0.03009,0.244032 0.02296,0.03715 0.0354,0.170701 0.02765,0.296783 -0.0078,0.126082 0.01116,0.244849 0.04203,0.263927 0.03087,0.01908 0.04263,0.06985 0.02614,0.112828 -0.01649,0.04298 -0.0017,0.3808 0.03295,0.750717 0.03461,0.369917 0.08498,1.768445 0.111939,3.10784 0.02696,1.339395 0.08973,3.235618 0.139492,4.213828 0.04977,0.97821 0.094,2.615856 0.09829,3.639214 0.0058,1.383653 -0.01108,1.945693 -0.06589,2.192377 -0.04053,0.182449 -0.151352,0.477965 -0.246263,0.656701 -0.136377,0.256824 -0.223772,0.350796 -0.416742,0.448106 -0.134298,0.06772 -0.319672,0.123131 -0.411943,0.123131 -0.09227,0 -0.216856,-0.03439 -0.276856,-0.07641 z M 9.5647022,48.065435 c -0.24079,-0.03768 -0.723663,-0.147902 -1.07305,-0.244928 -0.349388,-0.09703 -0.712851,-0.223602 -0.807695,-0.281281 -0.09484,-0.05768 -0.221379,-0.18513 -0.281189,-0.283226 -0.09007,-0.147728 -0.108781,-0.276145 -0.10895,-0.747804 -1.85e-4,-0.515361 0.01215,-0.58564 0.129838,-0.739941 0.130042,-0.170494 0.130042,-0.170494 1.354444,-0.166157 1.152451,0.0041 1.2411328,0.01172 1.5090938,0.129899 0.15658,0.06906 0.322952,0.183955 0.369715,0.255326 0.04676,0.07137 0.12182,0.271028 0.166791,0.443684 0.04497,0.172656 0.08163,0.511912 0.08146,0.753903 -1.68e-4,0.241991 -0.02587,0.532043 -0.05712,0.644559 -0.03125,0.112516 -0.10337,0.229491 -0.160272,0.259944 -0.0569,0.03045 -0.234365,0.05293 -0.394362,0.04995 -0.159997,-0.003 -0.4879138,-0.03625 -0.7287048,-0.07393 z m -5.062065,-1.403953 c -0.195642,-0.05875 -0.665717,-0.189471 -1.044611,-0.290503 -0.378894,-0.101032 -0.777877,-0.241939 -0.88663,-0.313128 -0.108752,-0.07119 -0.223552,-0.186001 -0.255109,-0.255139 -0.03156,-0.06914 -0.05738,-0.180634 -0.05738,-0.247768 0,-0.06713 0.03834,-0.176793 0.08519,-0.243687 0.07818,-0.111614 0.129334,-0.121627 0.621391,-0.121627 0.29491,0 0.853761,0.02537 1.241891,0.05638 0.38813,0.03101 0.742631,0.0692 0.787779,0.08487 0.04515,0.01567 0.142101,0.104413 0.215452,0.197208 0.117813,0.149045 0.132571,0.219564 0.126565,0.604767 -0.0051,0.328368 -0.03001,0.461698 -0.100802,0.53992 -0.0517,0.05713 -0.157909,0.10199 -0.236016,0.09969 -0.07811,-0.0023 -0.302082,-0.05225 -0.497724,-0.110991 z M 62.751966,43.799614 C 62.5659,43.613549 62.5659,43.613549 62.5659,39.266976 c 0,-4.346574 0,-4.346574 0.126659,-4.465563 0.100763,-0.09466 0.193069,-0.118937 0.451481,-0.118732 0.178653,1.42e-4 0.965106,0.06086 1.747674,0.134921 0.782568,0.07406 2.063134,0.197293 2.845702,0.273842 0.782568,0.07655 1.476625,0.151338 1.542349,0.166198 0.06572,0.01486 0.172894,0.102006 0.238156,0.193658 0.118658,0.16664 0.118658,0.16664 0.117662,4.047008 -9.36e-4,3.650692 -0.0069,3.890331 -0.100421,4.048683 -0.0638,0.108001 -0.168393,0.187436 -0.291886,0.221675 -0.105852,0.02935 -0.81698,0.09018 -1.580283,0.135187 -0.763303,0.045 -2.13868,0.08183 -3.056393,0.08183 -1.668569,0 -1.668569,0 -1.854634,-0.186065 z m -4.782969,-0.228857 c -0.406333,-0.0387 -2.117198,-0.09715 -3.801922,-0.12989 -1.718958,-0.0334 -3.154928,-0.08424 -3.272317,-0.115849 -0.142447,-0.03836 -0.243238,-0.112181 -0.315932,-0.231402 -0.102958,-0.168856 -0.106757,-0.301627 -0.106954,-3.737717 -1.38e-4,-2.39981 0.01899,-3.617715 0.05862,-3.731373 0.03235,-0.0928 0.11545,-0.205836 0.184664,-0.251187 0.06921,-0.04535 0.578367,-0.157665 1.13145,-0.249586 0.553083,-0.09192 1.510444,-0.228338 2.127469,-0.303147 0.617024,-0.07481 1.429691,-0.161214 1.805926,-0.19201 0.376234,-0.0308 1.242343,-0.07208 1.924686,-0.09175 1.240623,-0.03576 1.240623,-0.03576 1.409169,0.132787 0.168547,0.168547 0.168547,0.168547 0.168547,4.436445 0,4.267897 0,4.267897 -0.168374,4.409575 -0.09261,0.07792 -0.221893,0.138031 -0.287306,0.133575 -0.06541,-0.0045 -0.451387,-0.03977 -0.857721,-0.07847 z m 15.07426,-0.321378 c -0.134325,-0.134325 -0.134325,-0.134325 -0.134325,-3.752875 0,-3.618549 0,-3.618549 0.159966,-3.778515 0.08798,-0.08798 0.217269,-0.159687 0.287306,-0.159346 0.07004,3.41e-4 1.586082,0.159349 3.368987,0.353352 1.782905,0.194004 3.285107,0.376161 3.338227,0.404794 0.05312,0.02863 0.152687,0.112059 0.221261,0.185392 0.12468,0.133331 0.12468,0.133331 0.12471,2.824011 2.1e-5,1.797146 -0.01931,2.726813 -0.0582,2.799483 -0.03203,0.05984 -0.116937,0.14727 -0.18869,0.194284 -0.07175,0.04701 -0.53263,0.158198 -1.024169,0.247074 -0.49154,0.08888 -1.41086,0.235811 -2.042934,0.326522 -0.632075,0.09071 -1.723426,0.238104 -2.425226,0.327539 -0.701799,0.08944 -1.324732,0.16261 -1.384294,0.16261 -0.05956,0 -0.168742,-0.06045 -0.242621,-0.134325 z M 46.175752,43.051137 c -0.24079,-0.024 -1.127336,-0.09361 -1.970101,-0.154684 -0.842766,-0.06108 -2.62817,-0.174906 -3.967566,-0.252951 -1.339395,-0.07805 -2.504894,-0.168842 -2.589997,-0.20177 -0.0851,-0.03293 -0.189659,-0.113174 -0.232348,-0.178324 -0.06299,-0.09613 -0.07848,-0.475327 -0.08222,-2.011855 -0.0032,-1.29627 0.01464,-1.92936 0.05642,-2.007426 0.03356,-0.06271 0.115717,-0.149862 0.182562,-0.193661 0.06685,-0.0438 0.613914,-0.155134 1.215707,-0.247413 0.601793,-0.09228 1.328119,-0.206029 1.614058,-0.252779 0.285938,-0.04675 0.901595,-0.155575 1.368125,-0.241834 0.466531,-0.08626 1.476208,-0.305485 2.243727,-0.487169 0.767519,-0.181684 1.7274,-0.414788 2.13307,-0.518009 0.737583,-0.187674 0.737583,-0.187674 0.889282,-0.07966 0.1517,0.10802 0.1517,0.10802 0.1517,3.350195 0,3.242174 0,3.242174 -0.153488,3.389225 -0.09007,0.08629 -0.208783,0.143889 -0.287307,0.139397 -0.0736,-0.0042 -0.330828,-0.02729 -0.571618,-0.05129 z M 7.8564672,42.45839 c -0.201342,-0.145852 -0.222631,-0.187657 -0.305207,-0.599367 -0.06365,-0.317353 -0.0736,-0.486103 -0.03514,-0.596403 0.02956,-0.08479 0.13288,-0.195229 0.23023,-0.246086 0.09713,-0.05074 0.34899,-0.119315 0.559682,-0.152379 0.210691,-0.03307 0.527928,-0.08492 0.704971,-0.115223 0.177043,-0.03031 0.468949,-0.06676 0.64868,-0.081 0.179732,-0.01424 0.4604518,0.0019 0.6238238,0.03577 0.194412,0.04036 0.345853,0.112197 0.438324,0.207923 0.07771,0.08044 0.222339,0.318643 0.321405,0.529334 0.09907,0.210691 0.188284,0.447013 0.198262,0.525159 0.01165,0.09121 -0.03518,0.21199 -0.130774,0.337324 -0.114465,0.150071 -0.209242,0.208054 -0.409667,0.250628 -0.143412,0.03046 -0.7934128,0.05667 -1.4444468,0.05824 -1.183698,0.0029 -1.183698,0.0029 -1.400138,-0.153931 z m -5.604792,-0.08521 c -0.01401,-0.01401 -0.113506,-0.03639 -0.221098,-0.04974 -0.107592,-0.01334 -0.268253,-0.06182 -0.357024,-0.107728 -0.08877,-0.04591 -0.192512,-0.120949 -0.230534,-0.166763 -0.03802,-0.04581 -0.0551,-0.106009 -0.03794,-0.133766 0.01715,-0.02776 0.11789,-0.09161 0.223856,-0.141894 0.105965,-0.05028 0.379418,-0.127157 0.607672,-0.170829 0.285797,-0.05468 0.796872,-0.0794 1.641507,-0.0794 0.781182,0 1.226499,0.01987 1.226499,0.05472 0,0.0301 0.0343,0.05472 0.07623,0.05472 0.04193,0 0.09221,0.04165 0.111749,0.09256 0.02409,0.06276 -0.02566,0.153737 -0.154559,0.282633 -0.150391,0.150392 -0.230403,0.188561 -0.383225,0.182816 -0.106232,-0.004 -0.208131,0.01698 -0.226443,0.04661 -0.01831,0.02963 -0.05436,0.04085 -0.0801,0.02494 -0.02575,-0.01591 -0.294771,0.0083 -0.597834,0.05383 -0.303063,0.04552 -0.781031,0.08276 -1.062151,0.08276 -0.28112,0 -0.522592,-0.01146 -0.536604,-0.02548 z M 33.214114,42.142345 c -0.0131,-0.0131 -0.227285,-0.03557 -0.475958,-0.04994 -0.248673,-0.01436 -0.476686,-0.04129 -0.506696,-0.05983 -0.03001,-0.01855 -0.130862,-0.03902 -0.224115,-0.04549 -0.09325,-0.0065 -0.336901,-0.02657 -0.541437,-0.04467 -0.204536,-0.0181 -0.395891,-0.04774 -0.425234,-0.06588 -0.02934,-0.01813 -0.169822,-0.04426 -0.312178,-0.05807 -0.142356,-0.0138 -0.554345,-0.08487 -0.91553,-0.157931 -0.361185,-0.07306 -0.878337,-0.19697 -1.149226,-0.275354 -0.270889,-0.07838 -0.562378,-0.184092 -0.647753,-0.234906 -0.08538,-0.05081 -0.195405,-0.159557 -0.24451,-0.241652 -0.08729,-0.145938 -0.08512,-0.153557 0.09756,-0.34204 0.102766,-0.106027 0.405629,-0.305773 0.673029,-0.44388 0.267399,-0.138106 0.758748,-0.348333 1.091885,-0.467169 0.333136,-0.118837 0.669768,-0.225995 0.748069,-0.238128 0.0783,-0.01213 0.425569,-0.09714 0.771704,-0.188907 0.346136,-0.09177 1.027588,-0.253315 1.514338,-0.358999 0.48675,-0.105684 0.946705,-0.192153 1.022123,-0.192153 0.08295,0 0.181928,0.05696 0.250544,0.144193 0.108218,0.137577 0.113422,0.21025 0.113422,1.583974 0,1.432049 -6.9e-4,1.440584 -0.128505,1.589178 -0.105286,0.122402 -0.179026,0.151391 -0.408109,0.160435 -0.153782,0.0061 -0.290324,3.17e-4 -0.303428,-0.01279 z M 83.858137,41.54555 c -0.16837,-0.141677 -0.16837,-0.141677 -0.16837,-2.347389 0,-2.205711 0,-2.205711 0.16528,-2.382644 0.16528,-0.176933 0.16528,-0.176933 0.61565,-0.139951 0.24771,0.02034 1.10298,0.09842 1.90059,0.17351 0.79762,0.07509 2.18901,0.22275 3.09197,0.328133 0.90296,0.105383 1.7323,0.215602 1.84297,0.244932 0.11068,0.02933 0.26459,0.128629 0.34204,0.220667 0.13965,0.165971 0.1408,0.17525 0.1406,1.13451 -1.9e-4,0.86966 -0.0112,0.985215 -0.10933,1.146143 -0.06,0.09843 -0.16458,0.202572 -0.23237,0.231417 -0.0678,0.02884 -0.50497,0.127802 -0.9715,0.219908 -0.46653,0.09211 -1.33173,0.302741 -1.92268,0.46808 -0.59094,0.165339 -1.31741,0.347658 -1.61438,0.405153 -0.29698,0.05749 -1.05105,0.179837 -1.67572,0.271872 -0.62467,0.09204 -1.1584,0.167337 -1.18607,0.167337 -0.0277,0 -0.12607,-0.06376 -0.21868,-0.141678 z m 11.11365,-2.075793 c -0.17129,-0.144131 -0.17284,-0.150028 -0.17284,-0.657407 0,-0.460962 0.013,-0.527125 0.13083,-0.66407 0.13083,-0.152099 0.13083,-0.152099 0.91664,-0.02735 0.4322,0.06861 1.26603,0.220125 1.85296,0.3367 0.58692,0.116576 1.32463,0.240325 1.63936,0.274998 0.31472,0.03467 0.63665,0.09636 0.715413,0.137089 0.0787,0.04072 0.17421,0.111426 0.21213,0.157113 0.0379,0.04569 0.0607,0.124736 0.0507,0.175665 -0.01,0.05093 -0.085,0.142434 -0.16668,0.203344 -0.10704,0.07984 -0.229213,0.109888 -0.437803,0.107674 -0.15913,-0.0017 -0.87116,-0.02138 -1.58229,-0.04376 -0.88459,-0.02784 -1.52413,-0.01982 -2.02483,0.0254 -0.40252,0.03635 -0.78337,0.07822 -0.84632,0.09306 -0.0731,0.01723 -0.17692,-0.02557 -0.28731,-0.118454 z M 2.3136352,37.273717 c -0.07525,-0.01133 -0.235318,-0.04772 -0.355713,-0.08086 -0.120395,-0.03314 -0.323561,-0.109422 -0.451481,-0.169509 -0.12792,-0.06009 -0.232582,-0.130106 -0.232582,-0.155598 0,-0.02549 0.240106,-0.120333 0.533569,-0.210759 0.293463,-0.09043 1.123615,-0.325452 1.844781,-0.522279 0.721166,-0.196827 1.352045,-0.344907 1.401952,-0.329067 0.04991,0.01584 0.133842,0.07643 0.18652,0.134634 0.07287,0.08052 0.09543,0.199845 0.09431,0.498892 -0.0014,0.37217 -0.01119,0.402688 -0.18433,0.574246 -0.172323,0.170744 -0.215525,0.18449 -0.749592,0.238498 -0.311701,0.03152 -0.878105,0.05396 -1.258675,0.04986 -0.380571,-0.0041 -0.753512,-0.01672 -0.828759,-0.02806 z m 5.259627,-0.365668 c -0.07193,-0.04182 -0.16341,-0.134889 -0.203279,-0.206823 -0.04575,-0.08255 -0.07321,-0.326885 -0.07443,-0.662454 -0.0019,-0.510102 0.0045,-0.539008 0.157026,-0.712717 0.11719,-0.133472 0.235839,-0.19806 0.451482,-0.245773 0.160883,-0.0356 0.686536,-0.151587 1.168116,-0.257757 0.48158,-0.10617 1.0036398,-0.193439 1.1601328,-0.193931 0.250031,-7.87e-4 0.305265,0.02067 0.455509,0.176961 0.164599,0.171223 0.169835,0.191163 0.140374,0.534665 -0.01683,0.196246 -0.0675,0.479448 -0.112609,0.629338 -0.0451,0.149891 -0.128834,0.348528 -0.186067,0.441417 -0.05743,0.09321 -0.215286,0.22117 -0.352293,0.285571 -0.136528,0.06418 -0.4040768,0.140518 -0.5945528,0.169649 -0.190475,0.02913 -0.691087,0.06757 -1.112469,0.08543 -0.600904,0.02546 -0.79436,0.01606 -0.89694,-0.04357 z M 101.49299,33.778464 c -0.33647,-0.03866 -0.95212,-0.135472 -1.36813,-0.215141 -0.416003,-0.07967 -1.027263,-0.207747 -1.358343,-0.284617 -0.33109,-0.07687 -1.26689,-0.3127 -2.07956,-0.524068 -0.81266,-0.211367 -1.52421,-0.416819 -1.58122,-0.456559 -0.057,-0.03974 -0.14919,-0.141334 -0.20485,-0.225763 -0.0865,-0.131143 -0.10127,-0.266806 -0.10158,-0.931207 -3.4e-4,-0.729805 0.007,-0.784572 0.11941,-0.889282 0.0659,-0.06137 0.13738,-0.111582 0.15891,-0.111582 0.0215,0 0.40475,0.109198 0.8516,0.242662 0.44685,0.133463 1.44043,0.439522 2.20795,0.680129 0.76752,0.240608 1.691,0.539823 2.052193,0.664922 0.36118,0.1251 0.96452,0.351941 1.34076,0.504091 0.37623,0.15215 0.84694,0.358018 1.04602,0.457485 0.19908,0.09947 0.42687,0.257992 0.50621,0.35228 0.0793,0.09429 0.14425,0.233719 0.14425,0.30985 0,0.08414 -0.0572,0.184426 -0.14594,0.255745 -0.0803,0.06453 -0.19724,0.147236 -0.25995,0.183793 -0.0627,0.03656 -0.24945,0.06446 -0.41499,0.06201 -0.16554,-0.0025 -0.57628,-0.03609 -0.91274,-0.07475 z M 0.70422323,32.631288 c -0.117659,-0.04193 -0.262681,-0.124986 -0.322273,-0.184578 -0.06364,-0.06364 -0.09434,-0.144856 -0.0744,-0.196827 0.01867,-0.04866 0.190122,-0.158548 0.380997,-0.244188 0.190874,-0.08564 0.56751297,-0.243916 0.83697597,-0.351726 0.269462,-0.10781 0.686309,-0.267826 0.926326,-0.355592 0.240017,-0.08776 0.888698,-0.323591 1.441513,-0.524058 0.552815,-0.200466 2.510603,-0.88981 4.350641,-1.531876 1.8400368,-0.642065 3.8134208,-1.323561 4.3852968,-1.514435 0.571877,-0.190874 1.058246,-0.351097 1.08082,-0.356051 0.02257,-0.005 0.0472,-0.01397 0.05473,-0.02004 0.0075,-0.0061 0.05062,-0.01928 0.09577,-0.02936 0.04515,-0.01008 1.510411,-0.499194 3.256139,-1.086917 1.745729,-0.587722 4.368427,-1.478302 5.828217,-1.979065 1.45979,-0.500763 2.691104,-0.919054 2.736252,-0.929535 0.04515,-0.01048 0.08209,-0.02282 0.08209,-0.02743 0,-0.0046 0.03694,-0.0174 0.08209,-0.02843 0.04515,-0.01103 0.229845,-0.06749 0.410438,-0.12545 0.180592,-0.05796 0.968633,-0.34405 1.751201,-0.635744 0.782568,-0.291695 2.137012,-0.821946 3.009877,-1.178337 0.872864,-0.35639 1.796349,-0.727505 2.052189,-0.824699 0.255839,-0.09719 0.563668,-0.220278 0.684063,-0.273521 0.120395,-0.05324 0.588294,-0.2373 1.039775,-0.409016 0.451482,-0.171717 0.898476,-0.346589 0.993322,-0.388607 0.09484,-0.04202 0.207715,-0.07639 0.250823,-0.07639 0.04311,0 0.09685,-0.01847 0.119421,-0.04104 0.02257,-0.02257 0.06362,-0.04412 0.09121,-0.04789 0.02759,-0.0038 0.05632,-0.01175 0.06385,-0.01775 0.0075,-0.006 0.07095,-0.02152 0.140948,-0.03449 0.07,-0.01297 0.180815,-0.05336 0.246263,-0.08976 0.06545,-0.0364 0.137465,-0.07013 0.160039,-0.07496 0.02258,-0.0048 0.0472,-0.01374 0.05472,-0.01981 0.0075,-0.0061 0.05179,-0.01855 0.09838,-0.02774 0.04658,-0.0092 0.534172,-0.17989 1.083535,-0.379337 0.549364,-0.199446 1.139222,-0.421379 1.310796,-0.493184 0.171574,-0.0718 1.432448,-0.512274 2.801942,-0.97882 1.369494,-0.466546 3.056393,-1.035511 3.748665,-1.264367 0.692271,-0.228855 1.307928,-0.424703 1.368126,-0.435217 0.0602,-0.01051 0.183329,-0.04956 0.273625,-0.08677 0.0903,-0.03721 0.225741,-0.07621 0.300988,-0.08668 0.07525,-0.01047 0.142969,-0.02381 0.150493,-0.02964 0.0075,-0.0058 0.03831,-0.01677 0.06841,-0.02429 0.0301,-0.0075 0.06088,-0.01864 0.06841,-0.02471 0.0075,-0.0061 0.05678,-0.02146 0.10945,-0.0342 0.05267,-0.01275 0.138865,-0.0336 0.191538,-0.04635 0.05267,-0.01275 0.101925,-0.02814 0.10945,-0.0342 0.0075,-0.0061 0.03831,-0.01718 0.06841,-0.02471 0.0301,-0.0075 0.06704,-0.01984 0.08209,-0.02736 0.01505,-0.0075 0.05199,-0.01984 0.08209,-0.02736 0.0301,-0.0075 0.06088,-0.01859 0.06841,-0.02459 0.0075,-0.006 0.07004,-0.02138 0.138918,-0.03418 0.06888,-0.0128 0.598345,-0.160765 1.176589,-0.32881 0.578243,-0.168045 1.55619,-0.439032 2.173215,-0.602194 0.617024,-0.163161 1.602075,-0.407013 2.189001,-0.541893 0.586926,-0.134879 1.499621,-0.330768 2.028212,-0.435308 0.52859,-0.10454 1.341257,-0.244074 1.805926,-0.310077 0.732382,-0.104029 1.157356,-0.123269 3.192311,-0.144529 1.569991,-0.0164 2.557785,-0.0033 2.982514,0.03952 0.349281,0.03522 0.967511,0.111813 1.373845,0.170199 0.406333,0.05839 1.243626,0.206228 1.860651,0.328537 0.617025,0.122309 1.983782,0.440516 3.037239,0.707127 1.053457,0.26661 2.481781,0.648644 3.174053,0.848963 0.692271,0.20032 1.283302,0.370515 1.3134,0.378212 0.0301,0.0077 0.128604,0.03356 0.218901,0.05748 0.0903,0.02392 0.188801,0.05817 0.2189,0.07613 0.0301,0.01795 0.07319,0.03609 0.09577,0.04032 0.02257,0.0042 0.0472,0.01278 0.05473,0.01902 0.0075,0.0062 0.08235,0.0226 0.166277,0.03636 0.08393,0.01376 0.219372,0.05277 0.300987,0.08668 0.08162,0.03392 0.160705,0.06411 0.175755,0.06709 0.01505,0.003 0.05814,0.02497 0.09577,0.04886 0.03762,0.02389 0.06841,0.0313 0.06841,0.01646 0,-0.01483 0.252419,0.05859 0.560931,0.163166 0.308513,0.104576 1.390646,0.459293 2.40474,0.78826 1.014094,0.328967 2.442418,0.768801 3.174052,0.977409 0.731635,0.208607 2.266035,0.644404 3.409795,0.968437 1.14375,0.324033 2.11692,0.592371 2.1626,0.596306 0.0457,0.0039 0.1134,0.02591 0.15049,0.04884 0.0371,0.02293 0.0675,0.0249 0.0675,0.0044 0,-0.02051 0.0308,-0.0125 0.0684,0.01781 0.0376,0.03031 0.1546,0.07503 0.25995,0.09938 0.10534,0.02435 0.21,0.04874 0.23258,0.0542 0.0226,0.0055 0.0595,0.01676 0.0821,0.02511 0.0226,0.0083 0.0657,0.02054 0.0958,0.0271 0.0301,0.0066 0.13528,0.03061 0.23372,0.05346 0.0984,0.02285 0.1925,0.06339 0.209,0.09009 0.0165,0.0267 0.0499,0.03628 0.0741,0.02129 0.0243,-0.01499 0.15185,0.0077 0.28352,0.0504 0.13168,0.04271 1.07671,0.351582 2.10007,0.686372 1.02336,0.33479 2.63638,0.84422 3.58449,1.132067 0.94811,0.287847 2.88127,0.853003 4.295923,1.255903 1.41464,0.4029 2.64388,0.74569 2.73164,0.761757 0.0878,0.01607 0.18052,0.04216 0.20612,0.05798 0.0256,0.01582 0.10727,0.03978 0.18147,0.05323 0.0742,0.01346 0.90494,0.255541 1.84607,0.537967 0.94113,0.282426 2.10517,0.628965 2.58675,0.770085 0.48158,0.141121 1.58976,0.464319 2.46263,0.718218 0.87286,0.253899 2.31304,0.698353 3.2004,0.987675 0.88736,0.289322 1.65077,0.545097 1.69648,0.568389 0.0457,0.02329 0.21567,0.09382 0.3777,0.156726 0.16203,0.06291 0.31434,0.114378 0.33847,0.114378 0.0241,0 0.11319,0.02841 0.19792,0.06313 0.0847,0.03472 0.17868,0.06874 0.20878,0.0756 0.0301,0.0069 0.36584,0.147272 0.7461,0.312037 0.38026,0.164764 0.89988,0.413226 1.15471,0.552138 0.25484,0.138911 0.61478,0.364053 0.79989,0.500316 0.1851,0.136263 0.33654,0.281519 0.33654,0.322792 0,0.0442 -0.0843,0.08898 -0.20522,0.108961 -0.11287,0.01866 -0.43514,0.03419 -0.71615,0.03452 -0.34235,4.04e-4 -0.64027,-0.03514 -0.90296,-0.107744 -0.21562,-0.05959 -0.76143,-0.207075 -1.21291,-0.327741 -0.45148,-0.120667 -1.19027,-0.31803 -1.64175,-0.438585 -0.45148,-0.120555 -0.95632,-0.256417 -1.12186,-0.301915 -0.16555,-0.0455 -0.65807,-0.179362 -1.0945,-0.297475 -0.43644,-0.118113 -0.99053,-0.267906 -1.23132,-0.332872 -0.24079,-0.06497 -0.61018,-0.163018 -0.82087,-0.217892 -0.21069,-0.05487 -0.58009,-0.153237 -0.82088,-0.218585 -0.24079,-0.06535 -0.65943,-0.177926 -0.93032,-0.250174 -0.27089,-0.07225 -0.84961,-0.22668 -1.28604,-0.343184 -0.43643,-0.116503 -1.18753,-0.316479 -1.66912,-0.44439 -0.48158,-0.127912 -0.93716,-0.243209 -1.01241,-0.256217 -0.0752,-0.01301 -0.45695,-0.109209 -0.84824,-0.21378 -0.39128,-0.104571 -1.31477,-0.352225 -2.05219,-0.550342 -0.73742,-0.198117 -1.59933,-0.430205 -1.915373,-0.515752 -0.31604,-0.08555 -0.90707,-0.243383 -1.3134,-0.350747 -0.40634,-0.107364 -0.91117,-0.242142 -1.12187,-0.299506 -0.21069,-0.05736 -0.56777,-0.15424 -0.79351,-0.215279 -0.22574,-0.06104 -1.48168,-0.398085 -2.79098,-0.748992 -1.30929,-0.350907 -2.51598,-0.67444 -2.68152,-0.718961 -0.16555,-0.04452 -0.53494,-0.143665 -0.82088,-0.220319 -0.28594,-0.07665 -0.6307,-0.161232 -0.76615,-0.187952 -0.13544,-0.02672 -0.52946,-0.124811 -0.8756,-0.217979 -0.34614,-0.09317 -0.9741,-0.262598 -1.39549,-0.376513 -0.42138,-0.113915 -1.43106,-0.384734 -2.24372,-0.601821 -0.81267,-0.217087 -1.7731,-0.475157 -2.134277,-0.573489 -0.361185,-0.09833 -1.05072,-0.282285 -1.532301,-0.408783 -0.48158,-0.126499 -1.417378,-0.399558 -2.079551,-0.606799 -0.662173,-0.20724 -1.850922,-0.552018 -2.641665,-0.766172 -0.790742,-0.214154 -1.495475,-0.399845 -1.566072,-0.412647 -0.0706,-0.0128 -0.544122,-0.157022 -1.052276,-0.32049 -0.508154,-0.163467 -1.404128,-0.460221 -1.991054,-0.659453 -0.586926,-0.199232 -1.682795,-0.556153 -2.435264,-0.793159 -0.75247,-0.237005 -1.624713,-0.49594 -1.938319,-0.57541 -0.313606,-0.07947 -0.916949,-0.215618 -1.340763,-0.302551 -0.423814,-0.08693 -1.115339,-0.20748 -1.536722,-0.267882 -0.421382,-0.0604 -1.073979,-0.137673 -1.450213,-0.171714 -0.376235,-0.03404 -1.348972,-0.06398 -2.161639,-0.06653 -0.827821,-0.0026 -1.730258,0.02425 -2.052189,0.06105 -0.316037,0.03613 -0.931694,0.128722 -1.368126,0.205759 -0.436432,0.07704 -1.32557,0.260417 -1.975862,0.407509 -0.650291,0.147092 -1.536837,0.364639 -1.970101,0.483437 -0.433264,0.118799 -0.97245,0.268534 -1.19819,0.332745 -0.225741,0.06421 -0.92759,0.274377 -1.559664,0.467035 -0.632074,0.192658 -1.917758,0.609554 -2.857075,0.926435 -0.939317,0.31688 -2.429206,0.861875 -3.310864,1.2111 -0.881659,0.349224 -2.20636,0.857212 -2.943779,1.128863 -0.73742,0.271651 -2.289169,0.809729 -3.448332,1.195729 -1.159162,0.386 -2.168839,0.713831 -2.243726,0.728513 -0.07489,0.01468 -0.210038,0.05121 -0.300334,0.08118 -0.0903,0.02996 -0.792145,0.255244 -1.559664,0.50062 -0.767518,0.245377 -2.946943,0.959407 -4.843165,1.586733 -1.896223,0.627327 -3.969282,1.303837 -4.606799,1.503356 -0.637517,0.19952 -1.203921,0.371536 -1.258676,0.382259 -0.05476,0.01072 -0.641332,0.183764 -1.303505,0.384535 -0.662173,0.200772 -2.016618,0.599759 -3.009877,0.886637 -0.993259,0.286878 -2.187633,0.628016 -2.654164,0.758085 -0.466531,0.130068 -1.660905,0.448834 -2.654165,0.708368 -0.993259,0.259535 -2.089128,0.558602 -2.435264,0.664594 -0.346136,0.105992 -0.863287,0.266866 -1.149226,0.357497 -0.285938,0.09063 -0.5568268,0.179188 -0.6019748,0.196792 -0.04515,0.0176 -0.0944,0.03614 -0.10945,0.0412 -0.01505,0.0051 -0.101241,0.02858 -0.191538,0.05228 -0.0903,0.0237 -0.219584,0.07767 -0.287306,0.119931 -0.06772,0.04226 -0.123131,0.06531 -0.123131,0.05123 0,-0.01409 -0.129288,0.0314 -0.287307,0.101079 -0.158018,0.06968 -0.69364,0.281141 -1.190269,0.469912 -0.49663,0.188771 -1.026095,0.390414 -1.176589,0.448096 -0.150494,0.05768 -0.778463,0.285055 -1.395488,0.505274 -0.617025,0.220219 -1.514925,0.528951 -1.995333,0.68607 -0.480408,0.157119 -1.056908,0.332586 -1.281111,0.389928 -0.224203,0.05734 -0.508364,0.103176 -0.631469,0.101855 -0.123105,-0.0013 -0.32009297,-0.03671 -0.43775097,-0.07863 z M 25.914603,32.029408 c -0.15758,-0.04432 -0.409115,-0.142715 -0.558966,-0.21865 -0.149851,-0.07594 -0.300061,-0.189644 -0.3338,-0.252685 -0.03374,-0.06304 -0.04691,-0.172126 -0.02927,-0.242409 0.01999,-0.07966 0.150563,-0.199182 0.346685,-0.317353 0.173037,-0.104261 0.585501,-0.32449 0.916588,-0.489398 0.331086,-0.164908 0.89749,-0.416923 1.258675,-0.560032 0.361186,-0.143109 0.767519,-0.30982 0.902964,-0.37047 0.135444,-0.06065 0.603343,-0.24103 1.039775,-0.400847 0.436432,-0.159817 1.586211,-0.556072 2.555064,-0.880568 1.76155,-0.589992 1.76155,-0.589992 1.901695,-0.458332 0.140144,0.131659 0.140144,0.131659 0.140144,1.344315 0,1.212656 0,1.212656 -0.177856,1.406176 -0.173104,0.18835 -0.218067,0.203198 -1.682795,0.555694 -0.827716,0.199195 -1.812767,0.435606 -2.189001,0.525357 -0.376235,0.08975 -0.979579,0.215454 -1.340764,0.279337 -0.425269,0.07522 -0.974919,0.123957 -1.559663,0.138301 -0.684304,0.01678 -0.972344,0.0026 -1.189474,-0.05844 z m 62.536244,-1.127999 c -1.61029,-0.328782 -2.98936,-0.606681 -3.06461,-0.617554 -0.0752,-0.01087 -0.17375,-0.03348 -0.2189,-0.05025 -0.0451,-0.01676 -0.32835,-0.08097 -0.62933,-0.14269 -0.48344,-0.09913 -0.5648,-0.132867 -0.69775,-0.28932 -0.15049,-0.177107 -0.15049,-0.177107 -0.15049,-1.531487 0,-1.327708 0.002,-1.356604 0.12121,-1.467304 0.0696,-0.06484 0.15698,-0.09833 0.20522,-0.07864 0.0462,0.01886 0.58884,0.202873 1.20587,0.408928 0.61702,0.206055 1.79908,0.582245 2.6268,0.835978 0.82772,0.253733 1.94821,0.590421 2.48999,0.748196 0.54178,0.157774 1.04163,0.322189 1.11079,0.365368 0.0692,0.04318 0.17373,0.157204 0.23238,0.25339 0.0938,0.153828 0.10645,0.277002 0.1051,1.02312 -0.001,0.58064 -0.0226,0.875631 -0.0682,0.935068 -0.0367,0.04776 -0.12046,0.115479 -0.1862,0.150494 -0.0657,0.03502 -0.12731,0.0616 -0.13682,0.05907 -0.01,-0.0025 -1.33478,-0.273592 -2.94506,-0.602373 z M 37.470695,29.957233 c -0.134703,-0.117975 -0.134703,-0.117975 -0.137696,-1.578318 -0.0017,-0.853778 0.01924,-1.501597 0.05053,-1.559664 0.02944,-0.05463 0.111197,-0.151686 0.181683,-0.215688 0.07685,-0.06978 0.643002,-0.281877 1.414195,-0.529796 0.707321,-0.227386 1.618493,-0.53521 2.024826,-0.684055 0.406333,-0.148844 1.317505,-0.498015 2.024826,-0.775936 0.707321,-0.27792 1.704685,-0.659993 2.216364,-0.84905 0.511679,-0.189057 1.108027,-0.400252 1.325216,-0.469321 0.384208,-0.122183 0.397902,-0.122855 0.506207,-0.02484 0.108827,0.09849 0.111316,0.156342 0.111316,2.58772 0,2.48698 0,2.48698 -0.177856,2.661364 -0.177857,0.174384 -0.177857,0.174384 -2.749933,0.521218 -1.414643,0.190758 -3.064602,0.42898 -3.666578,0.52938 -0.601975,0.100401 -1.193006,0.196748 -1.313401,0.214105 -0.120395,0.01736 -0.280466,0.04112 -0.355712,0.0528 -0.07525,0.01168 -0.198379,0.03408 -0.273626,0.04976 -0.07525,0.01569 -0.24763,0.04371 -0.383075,0.06228 -0.135444,0.01857 -0.339935,0.05451 -0.454424,0.07989 -0.1752,0.03883 -0.229491,0.02745 -0.342865,-0.07184 z m 42.224142,-0.753131 c -0.135445,-0.0267 -0.788041,-0.135884 -1.450214,-0.242624 -0.662173,-0.106741 -1.893486,-0.290045 -2.736251,-0.407343 -0.842766,-0.117298 -1.689391,-0.230595 -1.881389,-0.251772 -0.276361,-0.03048 -0.38752,-0.07225 -0.533569,-0.20048 -0.184482,-0.161977 -0.184482,-0.161977 -0.184482,-2.363133 0,-2.201155 0,-2.201155 0.127763,-2.321182 0.08299,-0.07796 0.17409,-0.111499 0.259944,-0.09569 0.0727,0.01338 0.144494,0.02908 0.159544,0.03488 0.01505,0.0058 0.04658,0.0074 0.07006,0.0035 0.02348,-0.0039 0.11271,0.02917 0.198281,0.07342 0.08557,0.04425 0.165989,0.07005 0.178705,0.05734 0.01272,-0.01272 0.391389,0.08375 0.841495,0.214368 0.450106,0.130619 1.717233,0.509345 2.815838,0.841614 1.098606,0.332268 2.138497,0.656988 2.31087,0.721599 0.198035,0.07423 0.355154,0.176103 0.426814,0.276742 0.108867,0.152889 0.11331,0.225617 0.110937,1.816148 -0.0025,1.65688 -0.0025,1.65688 -0.14256,1.780011 -0.07705,0.06772 -0.18181,0.120434 -0.232804,0.117136 -0.051,-0.0033 -0.203536,-0.02784 -0.33898,-0.05455 z m -29.053553,-1.19305 c -0.169617,-0.158446 -0.169617,-0.158446 -0.169617,-2.883036 0,-2.710877 6.01e-4,-2.725468 0.119448,-2.898913 0.0657,-0.09588 0.162048,-0.200927 0.214116,-0.233443 0.05207,-0.03252 0.595503,-0.182158 1.207634,-0.332535 0.612132,-0.150378 1.494674,-0.347397 1.961205,-0.437821 0.466531,-0.09042 1.279197,-0.226666 1.805926,-0.302762 0.526728,-0.0761 1.349507,-0.175727 1.828397,-0.221404 0.47889,-0.04568 0.986527,-0.08305 1.128082,-0.08305 0.205114,0 0.286667,0.0293 0.401648,0.144275 0.144275,0.144275 0.144275,0.144275 0.144275,3.315075 0,3.170799 0,3.170799 -0.150494,3.320033 -0.150494,0.149234 -0.150494,0.149234 -1.73752,0.21735 -0.872864,0.03746 -2.054925,0.104347 -2.626801,0.148629 -0.571877,0.04428 -1.64312,0.142141 -2.380539,0.217464 -0.73742,0.07532 -1.393724,0.148567 -1.458454,0.162766 -0.07861,0.01725 -0.174005,-0.02679 -0.287306,-0.132628 z m 18.300083,-0.203477 c -0.0602,-0.01062 -0.675854,-0.05707 -1.368126,-0.103207 -0.692271,-0.04614 -2.034211,-0.09973 -2.982087,-0.11909 -1.723412,-0.0352 -1.723412,-0.0352 -1.874333,-0.186119 C 62.5659,27.248238 62.5659,27.248238 62.5659,24.152064 c 0,-3.023208 0.0026,-3.098754 0.10945,-3.205625 0.0602,-0.0602 0.140233,-0.112176 0.177857,-0.115507 0.03762,-0.0033 0.129972,-0.0014 0.205219,0.0042 0.07525,0.0057 0.456954,0.07171 0.848238,0.146763 0.391284,0.07506 1.647223,0.357659 2.790977,0.628006 1.143753,0.270347 2.208941,0.528948 2.367085,0.57467 0.206434,0.05968 0.327053,0.134943 0.42765,0.266832 0.140116,0.183702 0.140116,0.183702 0.139802,2.308183 -1.73e-4,1.168465 -0.0018,2.272491 -0.0035,2.453391 -0.0027,0.273823 -0.0265,0.354021 -0.142244,0.478844 -0.09168,0.09887 -0.189524,0.147397 -0.287307,0.142482 -0.08155,-0.0041 -0.197531,-0.01614 -0.257729,-0.02677 z M 36.133708,16.395245 c -0.105346,-0.03024 -0.271599,-0.115737 -0.369452,-0.189989 -0.09785,-0.07425 -0.214827,-0.206385 -0.259944,-0.293631 -0.04512,-0.08725 -0.08203,-0.232572 -0.08203,-0.322946 0,-0.09037 0.02886,-0.227647 0.06412,-0.30505 0.03527,-0.0774 0.139928,-0.186719 0.232581,-0.242925 0.09265,-0.05621 0.353157,-0.168133 0.578898,-0.248723 0.225741,-0.08059 0.917285,-0.279056 1.536765,-0.441032 0.61948,-0.161977 1.267938,-0.347486 1.441017,-0.412244 0.17308,-0.06476 0.401784,-0.194209 0.508232,-0.287672 0.106447,-0.09346 0.254732,-0.266864 0.329521,-0.385337 0.07479,-0.118473 0.181874,-0.3488 0.237967,-0.511837 0.05609,-0.163037 0.129925,-0.448853 0.164072,-0.635147 0.03415,-0.186294 0.0815,-0.634231 0.105237,-0.995416 0.02373,-0.361186 0.02128,-1.2107922 -0.0055,-1.8880142 -0.02674,-0.677222 -0.06948,-1.552634 -0.09498,-1.945359 -0.0255,-0.392725 -0.02581,-0.88525 -6.96e-4,-1.094501 0.02862,-0.238475 0.108364,-0.507943 0.213677,-0.722078 0.118304,-0.24055 0.236237,-0.388564 0.398607,-0.500277 0.126826,-0.08726 0.380277,-0.221653 0.563222,-0.298654 0.182946,-0.077 0.798044,-0.275501 1.366885,-0.441112 0.568841,-0.16561 1.317459,-0.402514 1.663594,-0.526453 0.346136,-0.123938 0.986419,-0.368299 1.422851,-0.543025 0.436433,-0.174726 1.15259,-0.478706 1.59146,-0.675511 0.438871,-0.196806 1.066841,-0.468043 1.395489,-0.60275 0.328648,-0.134707 0.90537,-0.344111 1.281604,-0.465342 0.376235,-0.121231 1.016518,-0.307401 1.422851,-0.413711 0.406334,-0.10631001 1.05893,-0.25479901 1.450214,-0.32997701 0.391284,-0.07518 1.154698,-0.198029 1.696476,-0.273003 0.541778,-0.07497 1.354444,-0.174397 1.805926,-0.220941 0.451482,-0.04654 1.177956,-0.112553 1.614389,-0.146688 0.449084,-0.0351199925 1.090434,-0.0462 1.477576,-0.02551 0.376234,0.0201 1.06577,0.07207 1.532301,0.115473 0.466531,0.04341 1.254571,0.128936 1.751201,0.190065 0.496629,0.06113 1.444741,0.197869 2.106914,0.303866 0.662173,0.105997 1.801478,0.30249 2.53179,0.43665201 0.730311,0.134162 1.887746,0.368367 2.572076,0.520457 0.684331,0.15209 1.72445,0.397511 2.311376,0.54538 0.586926,0.147868 1.35034,0.35374 1.696476,0.457493 0.346136,0.103753 0.88621,0.265831 1.200165,0.360174 0.313955,0.09434 0.843419,0.282757 1.176588,0.418698 0.333169,0.135942 0.790459,0.347806 1.0162,0.470809 0.22574,0.123004 0.487875,0.282393 0.582521,0.354199 0.09465,0.07181 0.201445,0.20144 0.23733,0.288075 0.04899,0.118261 0.0569,0.782649 0.03174,2.665754 -0.01843,1.379528 -0.04725,2.803749 -0.06404,3.1649342 -0.01886,0.405608 -0.0067,0.764889 0.03171,0.939654 0.04345,0.197527 0.129077,0.358879 0.283607,0.534434 0.121749,0.138314 0.326895,0.313327 0.45588,0.388917 0.128985,0.07559 0.458779,0.233288 0.732875,0.350439 0.274097,0.11715 0.535389,0.250033 0.58065,0.295294 0.04526,0.04526 0.139451,0.127281 0.209311,0.182266 0.06986,0.05498 0.156185,0.183683 0.191833,0.285996 0.03565,0.102312 0.06482,0.257634 0.06482,0.34516 0,0.08753 -0.02819,0.271075 -0.06264,0.407887 -0.04616,0.183308 -0.107345,0.276011 -0.232581,0.352379 -0.121247,0.07393 -0.27329,0.103689 -0.530586,0.103835 -0.198352,1.12e-4 -0.547579,-0.04761 -0.776059,-0.106042 -0.22848,-0.05844 -0.595657,-0.170891 -0.815948,-0.249901 -0.220291,-0.07901 -0.511348,-0.181059 -0.646792,-0.226776 -0.135445,-0.04572 -0.283202,-0.09808 -0.32835,-0.116365 -0.04515,-0.01828 -0.106714,-0.03797 -0.136813,-0.04374 -0.0301,-0.0058 -0.0732,-0.01642 -0.09577,-0.02365 -0.02257,-0.0072 -0.05951,-0.01864 -0.08209,-0.02535 -0.02258,-0.0067 -0.146252,-0.03149 -0.274838,-0.05507 -0.128587,-0.02358 -0.246351,-0.06319 -0.261697,-0.08802 -0.01535,-0.02483 -0.06287,-0.03173 -0.105617,-0.01532 -0.04274,0.0164 -0.107194,0.0116 -0.143225,-0.01067 -0.03603,-0.02227 -0.164353,-0.04939 -0.285161,-0.06027 -0.120808,-0.01088 -0.248687,-0.04388 -0.284177,-0.07334 -0.03549,-0.02945 -0.07775,-0.04033 -0.09391,-0.02416 -0.01616,0.01616 -0.65418,-0.09679 -1.417815,-0.251008 -0.763636,-0.154218 -1.794761,-0.375702 -2.291391,-0.492188 -0.49663,-0.116485 -1.506307,-0.373634 -2.243727,-0.571441 -0.73742,-0.197807 -1.764903,-0.468783 -2.283297,-0.602169 -0.518394,-0.133386 -1.392627,-0.341464 -1.942739,-0.462395 -0.550113,-0.120932 -1.357285,-0.281398 -1.793718,-0.356592 -0.436432,-0.07519 -1.101341,-0.177996 -1.477576,-0.228448 -0.517975,-0.06946 -1.129177,-0.09269 -2.517351,-0.09568 -1.756195,-0.0038 -1.866787,0.0022 -2.629857,0.141241 -0.438113,0.07985 -1.238466,0.247065 -1.778564,0.37158 -0.540097,0.124515 -1.166692,0.276381 -1.392433,0.337479 -0.225741,0.0611 -0.964529,0.270807 -1.641751,0.466018 -0.677223,0.195212 -1.662273,0.489283 -2.189002,0.653493 -0.526728,0.164209 -1.536405,0.497534 -2.243726,0.740723 -0.707321,0.243189 -1.692372,0.571819 -2.189002,0.730289 -0.496629,0.158471 -1.814135,0.575661 -2.927789,0.92709 -1.113655,0.35143 -2.578918,0.795287 -3.25614,0.986351 -0.677222,0.191063 -1.551455,0.422139 -1.942739,0.513501 -0.391284,0.09136 -0.822243,0.181 -0.957688,0.199196 -0.135444,0.0182 -0.307828,0.04211 -0.383075,0.05314 -0.07525,0.01103 -0.223005,-0.0047 -0.32835,-0.03493 z m 7.981281,-4.147897 c 0.231055,-0.05899 0.739997,-0.217074 1.130981,-0.35129 0.390985,-0.134216 0.872958,-0.317005 1.071051,-0.406199 0.198093,-0.08919 0.451453,-0.242319 0.563023,-0.340279 0.11157,-0.09796 0.260909,-0.279392 0.331865,-0.403184 0.07096,-0.123792 0.16778,-0.385146 0.215164,-0.580788 0.04739,-0.1956422 0.08482,-0.4049662 0.08319,-0.4651632 -0.0016,-0.0602 -2.26e-4,-1.007173 0.0031,-2.10439 0.0061,-1.994939 0.0061,-1.994939 -0.145889,-2.145574 -0.142003,-0.14076 -0.184253,-0.15103 -0.644491,-0.156662 -0.270889,-0.0033 -0.577086,0.01982 -0.680438,0.05141 -0.103352,0.03159 -0.199592,0.04575 -0.213865,0.03148 -0.01427,-0.01427 -0.059,0.0015 -0.09939,0.035 -0.04039,0.03352 -0.07344,0.04261 -0.07344,0.02019 0,-0.02242 -0.03586,-0.011 -0.07969,0.02537 -0.04383,0.03638 -0.09938,0.05397 -0.123447,0.03909 -0.02407,-0.01487 -0.14212,0.02175 -0.262342,0.08139 -0.120221,0.05964 -0.267836,0.118058 -0.328034,0.129829 -0.0602,0.01177 -0.3434,0.138736 -0.629338,0.282147 -0.350657,0.17587 -0.619893,0.359096 -0.82711,0.562884 -0.276197,0.271625 -0.313767,0.336616 -0.372025,0.643541 -0.03564,0.187772 -0.102078,0.606419 -0.147639,0.930326 -0.04556,0.323907 -0.09678,1.192266 -0.113818,1.9296852 -0.02178,0.942722 -0.01147,1.434344 0.03474,1.65598 0.03752,0.179962 0.124795,0.385426 0.203401,0.478844 0.119037,0.141468 0.1747,0.163628 0.411008,0.163628 0.150328,0 0.462368,-0.04827 0.693423,-0.107261 z m 32.43757,-1.273743 c 0.187126,-0.204415 0.187126,-0.204415 0.187126,-2.5063882 0,-1.88253 -0.01416,-2.328899 -0.0777,-2.449749 -0.04273,-0.08128 -0.184336,-0.250814 -0.314669,-0.376749 -0.130334,-0.125935 -0.360102,-0.289801 -0.510596,-0.364146 -0.150494,-0.07435 -0.484399,-0.209061 -0.742012,-0.299366 -0.257613,-0.09031 -0.833242,-0.243256 -1.279176,-0.339889 -0.536538,-0.116267 -0.887142,-0.165455 -1.036519,-0.145419 -0.165234,0.02216 -0.272415,0.08122 -0.399928,0.220359 -0.104877,0.114441 -0.218707,0.334186 -0.286044,0.5522 -0.06346,0.205464 -0.138919,0.686958 -0.174427,1.113014 -0.03529,0.423407 -0.05058,1.228242 -0.03506,1.845397 0.02131,0.847616 0.04894,1.154006 0.122469,1.358301 0.05645,0.156849 0.217689,0.396375 0.397694,0.5908032 0.166511,0.179851 0.409993,0.389853 0.541072,0.46667 0.131078,0.07682 0.367486,0.188934 0.525351,0.24915 0.157865,0.06021 0.33628,0.120694 0.396477,0.134397 0.0602,0.0137 0.171016,0.03688 0.246263,0.05152 0.07525,0.01463 0.259944,0.04063 0.410438,0.05777 0.150494,0.01714 0.302447,0.04694 0.337673,0.06622 0.03523,0.01928 0.388137,0.02274 0.784244,0.0077 0.720195,-0.02736 0.720195,-0.02736 0.907321,-0.231778 z M 50.51507,10.027962 c 0.279712,-0.04536 0.932308,-0.1917802 1.450214,-0.3253692 0.517906,-0.133589 1.150971,-0.305804 1.40681,-0.382699 0.25584,-0.0769 0.600608,-0.19273 0.766151,-0.257411 0.165543,-0.06468 0.383181,-0.193863 0.483639,-0.28707 0.100459,-0.09321 0.230199,-0.261723 0.288312,-0.374478 0.05811,-0.112755 0.16574,-0.457522 0.239172,-0.76615 0.07343,-0.308628 0.171454,-0.893597 0.217828,-1.29993 0.04772,-0.418099 0.08382,-1.190128 0.08318,-1.778564 -9.78e-4,-0.895586 -0.01526,-1.070882 -0.103006,-1.264089 -0.05603,-0.123373 -0.184777,-0.283444 -0.286105,-0.355713 -0.152994,-0.109118 -0.264148,-0.134594 -0.655528,-0.150243 -0.381434,-0.01525 -0.57371,0.0091 -1.008437,0.127489 -0.295428,0.08048 -0.92247,0.290185 -1.393427,0.466003 -0.470957,0.175819 -1.002211,0.361706 -1.180565,0.413084 -0.178353,0.05138 -0.447411,0.154376 -0.597904,0.228885 -0.150494,0.07451 -0.368004,0.225271 -0.483355,0.335027 -0.115351,0.109757 -0.250796,0.273436 -0.300988,0.363733 -0.07149,0.128611 -0.08943,0.294576 -0.08282,0.76615 0.0046,0.331086 0.03827,0.762046 0.07474,0.957688 0.03672,0.197006 0.07812,1.051581 0.09278,1.915376 0.0222,1.307429 0.04025,1.575152 0.111601,1.6554332 0.04682,0.05267 0.149026,0.09567 0.227132,0.09555 0.07811,-1.21e-4 0.370867,-0.03734 0.650578,-0.0827 z M 70.029313,9.6046758 c 0.136362,-0.123131 0.136362,-0.123131 0.255233,-2.439827 0.06538,-1.274183 0.109267,-2.486642 0.09753,-2.694354 -0.01995,-0.353012 -0.03551,-0.392468 -0.238499,-0.604599 -0.124274,-0.129872 -0.383671,-0.305027 -0.606451,-0.4095 -0.21411,-0.100408 -0.620444,-0.235493 -0.902963,-0.30019 -0.352141,-0.08064 -0.694366,-0.117452 -1.088284,-0.117062 -0.316037,3.12e-4 -0.677025,0.02816 -0.802196,0.06188 -0.142052,0.03827 -0.291161,0.133721 -0.396756,0.253987 -0.169174,0.192679 -0.169174,0.192679 -0.169174,2.681986 0,2.489308 0,2.489308 0.218034,2.725847 0.135052,0.146514 0.362064,0.302928 0.596465,0.41097 0.208137,0.09594 0.61723,0.235006 0.909096,0.309044 0.291866,0.07404 0.68221,0.156401 0.86743,0.183029 0.18522,0.02663 0.513931,0.05145 0.730469,0.05517 0.336973,0.0058 0.413354,-0.01099 0.530066,-0.116377 z m -6.111588,-1.203951 c 0.06173,-0.06772 0.177152,-0.227804 0.256504,-0.355737 0.07935,-0.127933 0.1809,-0.373213 0.225662,-0.545066 0.06507,-0.249809 0.08132,-0.724388 0.08108,-2.366834 -1.78e-4,-1.200782 -0.02304,-2.136232 -0.05503,-2.251388 -0.0301,-0.108358 -0.104576,-0.242128 -0.165503,-0.297266 -0.07549,-0.06832 -0.280229,-0.122694 -0.642712,-0.170702 -0.292565,-0.03875 -1.022791,-0.133845 -1.622726,-0.211329 -0.984392,-0.127137 -1.238993,-0.139311 -2.610168,-0.124808 -1.519378,0.01607 -1.519378,0.01607 -1.720764,0.207607 -0.110762,0.105346 -0.249816,0.298751 -0.309008,0.429788 -0.05919,0.131037 -0.142188,0.451179 -0.184434,0.711425 -0.05608,0.345476 -0.07687,1.024784 -0.07702,2.51709 -2.08e-4,2.043914 -2.08e-4,2.043914 0.162013,2.195451 0.08922,0.08335 0.240058,0.167105 0.335191,0.186131 0.09513,0.01903 0.459616,0.03459 0.809963,0.03459 0.350346,0 1.067586,-0.03622 1.593867,-0.08048 0.956873,-0.08048 0.956873,-0.08048 2.188186,0.07557 0.677222,0.08583 1.319369,0.158986 1.426993,0.162571 0.138828,0.0046 0.228285,-0.02926 0.307907,-0.116614 z"
     id="path2" /></svg>
